<svg width="3840" height="479" viewBox="0 0 3840 479" fill="none" xmlns="http://www.w3.org/2000/svg">
<path d="M525.682 479C350.568 479 175.606 478.975 1.46039 478.918C0.664195 478.918 0.0214844 478.707 0.0214844 478.445C0.0214844 478.184 0.664195 477.973 1.46039 477.973C555.592 478.159 1118.99 477.992 1663.84 477.831C2037.32 477.721 2417.52 477.607 2799.09 477.607C3145.72 477.607 3493.47 477.699 3838.53 477.97C3839.33 477.97 3839.97 478.184 3839.97 478.442C3839.97 478.704 3839.33 478.915 3838.53 478.915C3493.51 478.644 3145.68 478.553 2799.09 478.553C2417.47 478.553 2037.36 478.666 1663.84 478.776C1290.22 478.887 907.779 479 525.682 479Z" fill="#F4F4E3"/>
<path d="M1755.11 467.008C1617.82 467.008 1480.19 464.525 1345.8 462.099C1240.55 460.199 1131.71 458.236 1024.88 457.502C846.309 456.273 665.295 459.14 490.247 461.913C330.164 464.449 164.642 467.068 1.4508 466.551C0.654603 466.548 0.0214844 466.334 0.0214844 466.075C0.0310771 465.814 0.702566 465.618 1.46998 465.606C164.575 466.123 330.058 463.501 490.103 460.968C665.199 458.195 846.261 455.328 1024.93 456.557C1131.82 457.291 1240.67 459.257 1345.95 461.157C1535.04 464.569 1730.56 468.098 1922.39 464.657C2104.89 461.384 2289.51 454.458 2468.06 447.763C2597.39 442.914 2731.12 437.898 2863.02 434.306C2957.87 431.726 3059.84 432.268 3174.75 435.964C3277.27 439.262 3380.75 444.726 3480.83 450.006C3597.21 456.15 3717.55 462.502 3838.65 465.609C3839.44 465.628 3840.03 465.858 3839.97 466.116C3839.91 466.375 3839.21 466.567 3838.43 466.551C3717.2 463.441 3596.81 457.083 3480.38 450.939C3280.73 440.4 3074.28 429.501 2863.27 435.245C2731.42 438.834 2597.71 443.85 2468.4 448.699C2289.81 455.397 2105.14 462.323 1922.55 465.6C1866.96 466.595 1811.07 467.008 1755.11 467.008Z" fill="#F4F4E3"/>
<path d="M3838.54 460.964C3838.49 460.964 3838.43 460.964 3838.39 460.961C3706.86 456.248 3581.29 443.27 3459.86 430.717C3425.68 427.185 3390.33 423.53 3355.18 420.093C3203.82 405.284 3066.27 402.058 2895.27 409.308C2759.13 415.08 2621.73 423.568 2488.86 431.779C2304.34 443.182 2113.52 454.968 1923.06 459.669C1886.84 460.564 1850.48 460.961 1814.09 460.961C1658.58 460.961 1502.15 453.68 1349.89 446.591C1245.68 441.738 1137.91 436.722 1032.41 434.155C832.301 429.28 633.425 438.232 441.111 446.89C297.805 453.34 149.627 460.013 1.48666 460.964C0.709654 460.967 0.0381649 460.763 0.0189795 460.501C-0.00020594 460.24 0.632912 460.025 1.42911 460.019C149.397 459.068 297.498 452.401 440.717 445.954C633.185 437.29 832.205 428.332 1032.63 433.212C1138.21 435.783 1246.02 440.803 1350.29 445.655C1538.02 454.392 1732.13 463.428 1922.83 458.724C2113.14 454.03 2303.86 442.246 2488.32 430.846C2621.23 422.635 2758.67 414.144 2894.89 408.369C3066.32 401.103 3204.22 404.336 3355.99 419.185C3391.15 422.626 3426.51 426.281 3460.71 429.816C3587.59 442.929 3707.44 455.315 3838.69 460.022C3839.48 460.051 3840.05 460.284 3839.97 460.542C3839.89 460.785 3839.27 460.964 3838.54 460.964Z" fill="#F4F4E3"/>
<path d="M3838.54 455.772C3838.49 455.772 3838.44 455.772 3838.4 455.769C3704.23 451.456 3588.84 435.787 3466.68 419.195C3433.22 414.652 3398.61 409.951 3363.77 405.533C3220.84 387.401 3084.05 383.428 2906.37 392.25C2768.34 399.103 2629.73 409.925 2495.67 420.389C2309.3 434.936 2116.59 449.981 1922.32 454.619C1732.13 459.159 1541.8 444.978 1357.74 431.262C1253.82 423.518 1146.36 415.512 1040.72 411.041C830.422 402.143 627.134 417.409 430.55 432.17C291.542 442.608 147.805 453.403 1.52631 455.769C0.710934 455.775 0.0586307 455.58 0.0202599 455.322C-0.0181109 455.06 0.595822 454.84 1.38242 454.827C147.403 452.464 291.024 441.679 429.908 431.25C528.415 423.852 630.27 416.205 731.617 411.687C845.262 406.62 946.494 406.104 1041.1 410.105C1146.87 414.582 1254.4 422.592 1358.39 430.342C1542.24 444.042 1732.36 458.208 1922.12 453.677C2116.16 449.045 2308.75 434.01 2495.01 419.472C2629.13 409.002 2767.81 398.176 2905.96 391.317C2993.98 386.947 3067.89 385.74 3138.58 387.524C3215.19 389.455 3289.19 395.057 3364.82 404.654C3399.69 409.078 3434.31 413.779 3467.79 418.325C3589.75 434.889 3704.95 450.532 3838.69 454.83C3839.48 454.855 3840.07 455.085 3839.99 455.347C3839.9 455.589 3839.27 455.772 3838.54 455.772Z" fill="#F4F4E3"/>
<path d="M1.45914 444.59C0.691725 444.59 0.0586061 444.392 0.0202353 444.137C-0.0181355 443.875 0.60539 443.655 1.39199 443.645C153.791 441.506 300.809 428.008 442.992 414.954C539.485 406.094 639.268 396.935 739.215 391.5C851.286 385.406 952.029 384.729 1047.22 389.433C1157.87 394.9 1268.01 404.752 1374.53 414.28C1550.64 430.031 1732.75 446.317 1920.94 443.034C2116.49 439.622 2308.99 422.693 2495.16 406.318C2629.87 394.471 2769.16 382.221 2908.56 375.182C2997.37 370.699 3071.39 369.438 3141.51 371.219C3220.82 373.232 3294.53 379.244 3366.86 389.6C3402.09 394.644 3436.55 400.01 3469.88 405.199C3588.57 423.679 3700.67 441.137 3838.63 443.642C3839.42 443.655 3840.03 443.878 3839.98 444.14C3839.94 444.401 3839.25 444.609 3838.46 444.584C3699.95 442.067 3587.6 424.573 3468.65 406.05C3435.34 400.864 3400.9 395.501 3365.71 390.463C3230.32 371.077 3093.72 366.785 2908.99 376.112C2769.74 383.141 2630.53 395.385 2495.9 407.225C2309.59 423.609 2116.94 440.554 1921.09 443.97C1836.45 445.447 1745.79 443.109 1643.92 436.827C1553.13 431.225 1461.95 423.071 1373.77 415.184C1267.33 405.666 1157.26 395.82 1046.79 390.363C835.295 379.915 636.256 398.186 443.769 415.859C301.433 428.925 154.252 442.438 1.5167 444.581C1.49751 444.59 1.47833 444.59 1.45914 444.59Z" fill="#F4F4E3"/>
<path d="M3838.54 428.674C3838.51 428.674 3838.48 428.674 3838.45 428.674C3700.64 425.904 3587.14 408.997 3466.98 391.098C3433.67 386.135 3399.23 381.006 3364.16 376.185C3228.09 357.473 3086.88 353.115 2906.28 362.054C2768.54 368.872 2630.86 380.871 2497.71 392.472C2313.65 408.509 2123.32 425.095 1929.8 428.274C1842.77 429.704 1749.27 426.887 1643.94 419.669C1550.1 413.235 1455.83 403.981 1364.67 395.036C1257.92 384.56 1147.55 373.728 1037.62 367.41C822.633 355.06 621.762 375.987 427.5 396.227C290.526 410.497 148.89 425.255 1.56505 428.677C0.768854 428.699 0.0877719 428.501 0.0302157 428.239C-0.0273405 427.978 0.567407 427.754 1.3636 427.735C148.343 424.323 289.816 409.58 426.627 395.326C524.07 385.174 624.832 374.676 725.891 368.501C839.19 361.578 941.324 360.917 1038.12 366.478C1148.21 372.801 1258.67 383.643 1365.49 394.129C1547.73 412.016 1736.16 430.511 1929.66 427.332C2122.88 424.156 2313.06 407.586 2496.97 391.558C2630.2 379.947 2767.96 367.943 2905.85 361.118C2992.83 356.814 3069.14 355.592 3139.15 357.382C3218.3 359.408 3292.26 365.271 3365.27 375.313C3400.38 380.14 3434.84 385.272 3468.17 390.238C3588.08 408.099 3701.35 424.972 3838.63 427.732C3839.42 427.748 3840.03 427.971 3839.98 428.233C3839.93 428.482 3839.3 428.674 3838.54 428.674Z" fill="#F4F4E3"/>
<path d="M1911.79 415.686C1831.86 415.686 1746.06 412.472 1650.9 405.934C1551.48 399.103 1451.42 389.374 1354.67 379.962C1242.37 369.039 1126.24 357.746 1011.36 351.045C797.777 338.59 602.383 360.251 413.426 381.2C281.603 395.817 145.301 410.931 1.5827 414.936C0.7961 414.955 0.0958325 414.765 0.0286836 414.504C-0.0384653 414.242 0.54669 414.016 1.34288 413.994C144.706 409.998 280.845 394.903 412.505 380.306C507.358 369.788 605.443 358.912 704.287 352.484C815.053 345.279 915.662 344.504 1011.86 350.115C1126.9 356.826 1243.11 368.128 1355.49 379.058C1549.02 397.881 1749.14 417.343 1952.63 414.454C2140.21 411.788 2324.94 396.198 2503.6 381.122C2633.51 370.157 2767.86 358.821 2902.34 352.532C2987.59 348.543 3063.61 347.459 3134.74 349.211C3213.6 351.155 3287.65 356.565 3361.12 365.752C3396.17 370.135 3430.75 374.801 3464.19 379.313C3586.51 395.814 3702.04 411.4 3838.63 414C3839.42 414.016 3840.03 414.239 3839.98 414.498C3839.93 414.759 3839.25 414.951 3838.46 414.942C3701.4 412.336 3585.65 396.721 3463.11 380.186C3429.68 375.677 3395.12 371.014 3360.1 366.635C3221.01 349.239 3079.96 345.178 2902.75 353.467C2768.42 359.75 2634.17 371.08 2504.32 382.039C2325.52 397.128 2140.64 412.73 1952.76 415.399C1939.26 415.591 1925.61 415.686 1911.79 415.686Z" fill="#F4F4E3"/>
<path d="M1947.43 405.036C1860.45 405.036 1766.8 401.725 1662.43 394.973C1556.11 388.098 1448.95 378.384 1345.31 368.991C1224.08 358.005 1098.72 346.643 974.947 339.872C813.886 331.063 667.568 335.896 500.512 355.544C471.129 359 441.612 362.611 413.064 366.105C276.426 382.823 147.375 398.612 1.57587 402.698C0.779671 402.72 0.0889966 402.528 0.0218477 402.267C-0.0453013 402.008 0.539854 401.778 1.33605 401.756C146.742 397.682 275.62 381.913 412.067 365.22C440.624 361.726 470.151 358.115 499.543 354.655C667.079 334.947 813.848 330.102 975.418 338.939C1099.35 345.72 1224.78 357.088 1346.08 368.081C1553.4 386.869 1767.77 406.296 1984.38 403.886C2164.37 401.882 2341.73 387.549 2513.26 373.689C2638.78 363.547 2768.58 353.061 2898.53 347.465C3069.67 340.099 3214.86 343.823 3355.46 359.186C3390.52 363.018 3425.29 367.107 3458.92 371.058C3584.15 385.782 3702.45 399.692 3838.61 401.753C3839.41 401.766 3840.02 401.986 3839.98 402.248C3839.94 402.509 3839.25 402.705 3838.47 402.698C3701.88 400.631 3583.4 386.699 3457.95 371.95C3424.34 367.999 3389.58 363.912 3354.55 360.084C3214.37 344.768 3069.59 341.054 2898.9 348.401C2769.1 353.987 2639.39 364.47 2513.94 374.606C2342.27 388.479 2164.75 402.821 1984.46 404.828C1972.25 404.967 1959.91 405.036 1947.43 405.036Z" fill="#F4F4E3"/>
<path d="M1987.24 396.089C1892.6 396.089 1790.5 392.765 1676.28 385.981C1562.81 379.242 1448.29 369.796 1337.53 360.662C1205.87 349.804 1069.72 338.575 935.204 331.902C766.593 323.536 622.357 328.08 467.511 346.631C438.657 350.088 409.84 353.705 381.964 357.202C256.424 372.953 137.849 387.828 1.57464 391.234C0.78804 391.256 0.0877728 391.057 0.0302165 390.799C-0.0273397 390.537 0.567408 390.31 1.35401 390.291C137.206 386.895 255.599 372.042 380.937 356.32C408.823 352.823 437.659 349.206 466.533 345.746C621.858 327.138 766.535 322.582 935.635 330.972C1070.3 337.655 1206.5 348.887 1338.23 359.751C1559.76 378.019 1788.82 396.908 2019.51 395.018C2191.2 393.609 2360.47 380.546 2524.17 367.915C2644.85 358.601 2769.63 348.972 2894.63 344.06C3058.8 337.611 3207.5 340.856 3349.24 353.979C3384.34 357.231 3419.34 360.712 3453.18 364.08C3581.47 376.847 3702.63 388.905 3838.58 390.291C3839.37 390.301 3840 390.518 3839.97 390.78C3839.94 391.041 3839.33 391.252 3838.48 391.237C3702.15 389.844 3580.8 377.767 3452.34 364.985C3418.5 361.616 3383.52 358.135 3348.45 354.89C3207.09 341.798 3058.75 338.565 2894.96 344.999C2770.13 349.902 2645.43 359.527 2524.82 368.835C2360.98 381.479 2191.56 394.551 2019.58 395.963C2008.9 396.045 1998.11 396.089 1987.24 396.089Z" fill="#F4F4E3"/>
<path d="M2023.07 388.254C1921.82 388.254 1812.43 384.955 1689.76 378.216C1569.68 371.618 1448.36 362.415 1331.03 353.514C1189.63 342.788 1043.41 331.695 898.886 325.144C721.69 317.113 579.353 321.234 437.4 338.507C411.702 341.635 386.108 344.884 361.369 348.025C243.292 363.019 131.758 377.182 1.54646 379.807C0.759861 379.819 0.0691866 379.624 0.0212231 379.362C-0.0267404 379.101 0.5776 378.877 1.37379 378.861C131.144 376.246 242.467 362.109 360.333 347.143C385.082 343.998 410.685 340.75 436.403 337.618C578.835 320.289 721.584 316.149 899.289 324.205C1043.94 330.762 1190.22 341.859 1331.68 352.59C1566.31 370.389 1808.95 388.799 2052.68 387.211C2217.07 386.143 2379.18 374.066 2535.97 362.386C2651.56 353.775 2771.08 344.871 2890.81 340.422C2967.78 337.561 3044.29 336.742 3118.23 337.99C3194.42 339.275 3270.17 342.792 3343.38 348.444C3378.54 351.16 3413.77 354.081 3447.82 356.907C3578.89 367.777 3702.68 378.049 3838.57 378.861C3839.37 378.868 3840 379.082 3839.98 379.344C3839.97 379.605 3839.32 379.804 3838.51 379.807C3702.3 378.987 3578.35 368.707 3447.11 357.821C3413.07 354.998 3377.85 352.077 3342.71 349.364C3198.9 338.261 3046.96 335.567 2891.14 341.358C2771.56 345.804 2652.12 354.701 2536.6 363.306C2379.68 374.996 2217.41 387.082 2052.73 388.153C2042.92 388.222 2033.04 388.254 2023.07 388.254Z" fill="#F4F4E3"/>
<path d="M2043.09 380.958C1938.74 380.958 1825.9 377.69 1699.41 371.017C1573.81 364.394 1446.8 355.112 1323.97 346.132C1176.24 335.335 1023.48 324.171 872.822 317.624C687.222 309.561 550.632 313.106 416.123 329.477C393.139 332.275 370.327 335.158 348.264 337.95C235.051 352.264 128.112 365.78 1.52631 367.718C0.739712 367.731 0.0586305 367.529 0.0202597 367.267C-0.0181111 367.006 0.595822 366.785 1.39202 366.773C127.517 364.845 234.236 351.353 347.228 337.067C369.301 334.276 392.122 331.393 415.125 328.592C487.33 319.804 561.337 314.744 641.36 313.122C711.06 311.71 784.723 312.844 873.206 316.685C1023.99 323.236 1176.81 334.405 1324.6 345.206C1570.27 363.162 1824.3 381.729 2078.49 379.877C2236.93 378.724 2393.02 367.126 2543.97 355.912C2655.76 347.607 2771.36 339.018 2887.27 334.708C2971.45 331.579 3061.39 331.815 3162.24 335.432C3252.16 338.659 3342.38 344.22 3429.63 349.598C3561.95 357.752 3698.77 366.187 3838.57 366.77C3839.37 366.773 3840 366.987 3839.99 367.249C3839.98 367.51 3839.31 367.724 3838.53 367.715C3698.49 367.132 3561.54 358.691 3429.1 350.527C3254.9 339.79 3074.77 328.69 2887.6 335.646C2771.84 339.95 2656.32 348.533 2544.6 356.835C2393.51 368.061 2237.28 379.669 2078.56 380.825C2066.84 380.917 2055.02 380.958 2043.09 380.958Z" fill="#F4F4E3"/>
<path d="M2038.02 373.664C1935.95 373.664 1825.45 370.384 1702.02 363.714C1572.54 356.716 1441.46 346.738 1314.69 337.09C1166.66 325.823 1013.59 314.169 863.776 307.363C677.054 298.875 541.221 302.01 409.58 317.836C388.582 320.363 367.756 322.947 347.621 325.448C234.936 339.441 128.495 352.658 1.50693 354.237C0.701144 354.256 0.0488403 354.041 0.0104695 353.783C-0.0279013 353.525 0.595624 353.304 1.39182 353.292C127.91 351.719 234.13 338.53 346.595 324.563C366.739 322.061 387.565 319.474 408.583 316.948C479.818 308.381 553.5 303.563 633.839 302.221C702.561 301.071 775.744 302.407 864.169 306.424C1014.1 313.239 1167.24 324.894 1315.33 336.167C1569.08 355.481 1831.46 375.454 2091.56 372.407C2247.09 370.586 2399.92 358.657 2547.73 347.122C2657.23 338.577 2770.45 329.74 2884.15 325.051C2970.07 321.507 3062.36 321.349 3166.26 324.569C3258.92 327.443 3352.24 332.679 3442.48 337.746C3571.06 344.964 3704.01 352.428 3838.56 353.285C3839.36 353.292 3839.99 353.506 3839.97 353.767C3839.95 354.029 3839.27 354.249 3838.5 354.23C3703.74 353.37 3570.67 345.9 3442 338.678C3261.86 328.564 3075.58 318.11 2884.52 325.99C2770.97 330.675 2657.82 339.504 2548.4 348.042C2400.46 359.587 2247.48 371.525 2091.66 373.352C2074.04 373.563 2056.16 373.664 2038.02 373.664Z" fill="#F4F4E3"/>
<path d="M2033.79 355.692C1886.14 355.692 1736.44 346.117 1591.12 336.819C1569.74 335.452 1547.62 334.037 1526.06 332.689C1470.77 329.235 1414.61 325.574 1360.29 322.039C1209.91 312.243 1054.4 302.114 900.017 295.173C716.307 286.914 577.539 289.687 436.027 304.442C410.395 307.114 384.773 309.906 359.986 312.603C241.161 325.54 128.926 337.755 1.516 339.608C0.729401 339.617 0.0483191 339.419 0.019541 339.157C-0.00923711 338.896 0.595103 338.675 1.3913 338.663C128.408 336.816 240.461 324.616 359.084 311.705C383.872 309.004 409.513 306.216 435.154 303.541C577.107 288.739 716.24 285.957 900.41 294.234C1054.88 301.178 1210.43 311.311 1360.86 321.11C1415.16 324.648 1471.33 328.306 1526.6 331.759C1548.18 333.108 1570.3 334.522 1591.68 335.89C1755.09 346.341 1924.06 357.151 2089.2 354.271C2240.65 351.631 2390.97 341.347 2536.34 331.403C2643.18 324.093 2753.67 316.535 2863.9 312.054C2951.93 308.475 3046.37 308.277 3152.63 311.443C3247.4 314.269 3342.81 319.459 3435.07 324.478C3565.96 331.595 3701.31 338.959 3838.57 339.828C3839.36 339.835 3840 340.049 3839.98 340.31C3839.97 340.572 3839.28 340.777 3838.51 340.774C3701.04 339.904 3565.59 332.534 3434.6 325.41C3250.45 315.394 3060.02 305.038 2864.26 312.993C2754.14 317.471 2643.72 325.023 2536.93 332.329C2391.46 342.28 2241.04 352.57 2089.36 355.217C2070.88 355.541 2052.35 355.692 2033.79 355.692Z" fill="#F4F4E3"/>
<path d="M3838.54 330.464C3838.53 330.464 3838.52 330.464 3838.51 330.464C3688.3 329.507 3539.9 321.768 3396.39 314.282C3205.28 304.313 3007.67 294.007 2805.45 299.848C2702.37 302.826 2598.1 307.445 2497.26 311.913C2358.67 318.053 2215.38 324.402 2073.06 326.583C2047.48 326.973 2021.79 327.159 1996.06 327.159C1785.16 327.159 1570.4 314.774 1361.93 302.753C1236.33 295.51 1106.44 288.021 980.49 283.471C802.114 277.031 653.024 279.885 497.076 292.725C466.322 295.258 435.26 297.939 405.216 300.532C275.091 311.765 140.534 323.378 1.5167 325.319C0.730095 325.329 0.0490132 325.127 0.0202351 324.865C-0.0181357 324.604 0.60539 324.383 1.40158 324.374C140.112 322.436 274.515 310.838 404.497 299.618C434.55 297.025 465.631 294.341 496.395 291.808C652.689 278.937 802.095 276.076 980.817 282.529C1106.86 287.082 1236.79 294.574 1362.44 301.818C1596.19 315.297 1837.89 329.232 2072.94 325.634C2215.13 323.457 2358.37 317.111 2496.89 310.971C2597.75 306.5 2702.06 301.881 2805.21 298.9C3007.77 293.049 3205.58 303.365 3396.85 313.343C3540.26 320.823 3688.57 328.558 3838.58 329.516C3839.37 329.522 3840.01 329.737 3839.99 329.998C3839.96 330.26 3839.33 330.464 3838.54 330.464Z" fill="#F4F4E3"/>
<path d="M3838.54 322.483C3838.53 322.483 3838.52 322.483 3838.51 322.483C3678.31 321.317 3518.23 312.344 3363.42 303.666C3312.65 300.821 3260.15 297.878 3208.41 295.254C3062.31 287.843 2911.71 285.219 2720.11 286.737C2539.52 288.171 2355.9 289.478 2178.33 290.742C2134.55 291.054 2090.78 291.366 2047 291.678C1838.68 293.165 1626.39 286.895 1421.08 280.826C1312.17 277.606 1199.53 274.279 1089.15 272.162C911.125 268.753 749.574 271.976 580.743 282.307C540.77 284.752 500.221 287.389 460.997 289.938C311.581 299.649 157.081 309.691 1.50638 311.411C0.700594 311.42 0.0482902 311.216 0.0195121 310.954C-0.00926599 310.693 0.61426 310.475 1.41045 310.466C156.755 308.749 311.14 298.713 460.44 289.012C499.665 286.463 540.233 283.826 580.215 281.381C749.286 271.034 911.058 267.804 1089.32 271.22C1199.75 273.334 1312.4 276.664 1421.34 279.884C1626.57 285.95 1838.79 292.226 2046.94 290.732C2090.72 290.417 2134.49 290.109 2178.27 289.797C2355.84 288.533 2539.47 287.229 2720.04 285.795C2911.81 284.273 3062.57 286.901 3208.86 294.321C3260.62 296.946 3313.13 299.889 3363.91 302.737C3518.62 311.408 3678.6 320.375 3838.58 321.541C3839.37 321.547 3840 321.764 3839.99 322.023C3839.96 322.278 3839.32 322.483 3838.54 322.483Z" fill="#F4F4E3"/>
<path d="M3838.54 315.94C3838.53 315.94 3838.51 315.94 3838.5 315.94C3661.1 314.425 3483.15 304.881 3311.06 295.652C3252.48 292.511 3191.91 289.263 3132.3 286.383C3008.58 280.403 2883.87 278.367 2763.26 276.398C2716.61 275.636 2668.36 274.848 2620.54 273.843C2532.33 271.987 2443.66 268.055 2357.91 264.255C2246.34 259.308 2130.97 254.195 2015.61 253.615C1848.72 252.774 1679.25 255.216 1515.37 257.579C1416.04 259.009 1313.32 260.49 1212.21 261.224C1051.18 262.393 863.66 264.347 675.989 272.753C626.135 274.987 575.457 277.428 526.448 279.788C355.027 288.046 177.773 296.585 1.47787 297.899C0.700865 297.911 0.0197831 297.697 0.0101904 297.436C-0.008995 297.174 0.624123 296.96 1.42032 296.954C177.533 295.643 354.7 287.108 526.036 278.853C575.054 276.489 625.733 274.051 675.605 271.814C863.43 263.398 1051.04 261.445 1212.15 260.276C1313.22 259.542 1415.92 258.061 1515.24 256.63C1679.16 254.267 1848.68 251.825 2015.66 252.667C2131.19 253.25 2246.64 258.366 2358.29 263.316C2443.99 267.116 2532.61 271.045 2620.72 272.898C2668.52 273.903 2716.76 274.69 2763.4 275.453C2884.08 277.422 3008.86 279.461 3132.71 285.447C3192.35 288.33 3252.92 291.579 3311.51 294.72C3483.5 303.945 3661.36 313.483 3838.57 314.995C3839.36 315.001 3839.99 315.219 3839.97 315.48C3839.96 315.735 3839.32 315.94 3838.54 315.94Z" fill="#F4F4E3"/>
<path d="M3838.54 309.93C3838.52 309.93 3838.51 309.93 3838.49 309.93C3643.41 308.036 3447.21 297.906 3257.47 288.111C3191.05 284.683 3122.37 281.135 3054.82 278C2973.01 274.203 2888.84 272.426 2807.44 270.709C2712.34 268.702 2614 266.626 2519.09 261.313C2438.55 256.805 2361.82 248.121 2287.61 239.721C2191.21 228.81 2091.52 217.527 1983.4 215.489C1842.13 212.826 1706.42 223.728 1575.18 234.27C1497.49 240.512 1417.15 246.965 1335.97 250.617C1231.23 255.327 1123.14 256.928 1018.61 258.478C937.487 259.681 853.599 260.923 771.85 263.61C712.145 265.573 651.423 267.747 592.697 269.852C399.26 276.78 199.233 283.942 1.46015 284.787C1.45056 284.787 1.45056 284.787 1.44097 284.787C0.654364 284.787 0.0116534 284.579 0.00206071 284.32C-0.007532 284.059 0.625586 283.845 1.42178 283.841C199.06 282.997 399.011 275.838 592.39 268.913C651.116 266.808 711.848 264.634 771.562 262.671C853.398 259.981 937.324 258.736 1018.49 257.536C1122.95 255.989 1230.97 254.388 1335.58 249.684C1416.62 246.042 1496.89 239.592 1574.5 233.357C1705.94 222.799 1841.87 211.878 1983.56 214.55C2092.06 216.595 2191.95 227.9 2288.54 238.833C2362.64 247.22 2439.26 255.891 2519.56 260.387C2614.33 265.69 2712.59 267.766 2807.61 269.77C2889.06 271.49 2973.29 273.267 3055.2 277.07C3122.78 280.209 3191.47 283.753 3257.9 287.184C3447.55 296.974 3643.66 307.1 3838.56 308.991C3839.36 308.997 3839.98 309.218 3839.95 309.476C3839.96 309.728 3839.32 309.93 3838.54 309.93Z" fill="#F4F4E3"/>
<path d="M3838.54 303.562C3838.52 303.562 3838.51 303.562 3838.49 303.562C3627.66 301.344 3415.24 290.688 3209.84 280.385C3136.21 276.693 3060.07 272.874 2985.22 269.503C2871.97 264.408 2751.4 259.259 2632.03 257.224C2624.62 257.098 2617.23 256.978 2609.85 256.862C2547.18 255.86 2487.99 254.915 2428.15 249.335C2352.46 242.274 2288.2 229.318 2226.05 216.784C2145.48 200.539 2062.16 183.739 1954.86 180.421C1852.31 177.251 1749.89 185.034 1658.67 202.93C1641.12 206.371 1623.88 210.013 1607.21 213.539C1555.63 224.44 1506.9 234.734 1446.68 240.323C1383.15 246.218 1320.22 246.656 1253.61 247.116C1248.89 247.148 1244.16 247.183 1239.42 247.217C1113.63 248.147 985.94 251.285 862.463 254.322L857.331 254.448C788.532 256.14 718.544 258.04 650.858 259.877C438.197 265.649 218.294 271.614 1.47009 272.089H1.4605C0.673894 272.089 0.0311831 271.878 0.0215904 271.62C0.0119977 271.358 0.654709 271.147 1.4509 271.144C218.169 270.668 438.015 264.704 650.618 258.935C718.304 257.098 788.302 255.198 857.11 253.506L862.242 253.38C985.758 250.343 1113.48 247.198 1239.35 246.272C1244.09 246.237 1248.82 246.203 1253.54 246.171C1319.97 245.711 1382.71 245.273 1445.89 239.413C1505.7 233.864 1554.25 223.605 1605.65 212.742C1622.34 209.213 1639.61 205.567 1657.19 202.117C1748.94 184.117 1851.97 176.29 1955.13 179.479C2063.1 182.816 2146.71 199.675 2227.55 215.977C2289.53 228.473 2353.62 241.398 2428.93 248.424C2488.46 253.976 2547.5 254.921 2609.99 255.916C2617.38 256.036 2624.78 256.153 2632.18 256.279C2751.67 258.317 2872.3 263.466 2985.62 268.564C3060.49 271.932 3136.63 275.754 3210.28 279.446C3415.61 289.746 3627.92 300.399 3838.6 302.614C3839.4 302.623 3840.02 302.841 3839.99 303.102C3839.95 303.361 3839.32 303.562 3838.54 303.562Z" fill="#F4F4E3"/>
<path d="M3838.54 295.934C3838.52 295.934 3838.51 295.934 3838.49 295.934C3616.23 293.542 3392.03 282.49 3175.21 271.799C3095.71 267.88 3013.51 263.828 2932.74 260.27C2801.54 254.492 2683 249.536 2560.87 247.422C2553.12 247.286 2545.39 247.166 2537.66 247.047C2475.97 246.083 2417.71 245.169 2360.05 238.07C2290.88 229.557 2244.83 214.175 2196.06 197.892C2187.33 194.977 2178.3 191.962 2169.13 188.988C2100.79 166.81 2026.21 154.903 1934.43 151.516C1857.8 148.689 1750.82 151.459 1676.33 180.701C1663.4 185.78 1651.98 191.036 1640.95 196.118C1611.26 209.795 1583.21 222.713 1530.5 230.31C1475.62 238.218 1414.81 238.401 1356 238.578C1347.41 238.603 1338.54 238.631 1329.9 238.681C1197.61 239.466 1063.25 242.072 933.295 244.592L921.372 244.822C846.568 246.272 770.469 247.904 696.874 249.482C469.037 254.369 233.45 259.423 1.46022 259.817H1.45062C0.664022 259.817 0.0213115 259.606 0.0117188 259.347C0.0117188 259.086 0.644837 258.875 1.44103 258.872C233.345 258.478 468.893 253.427 696.682 248.54C770.277 246.962 846.376 245.33 921.199 243.88L933.123 243.65C1063.09 241.13 1197.5 238.524 1329.84 237.736C1338.49 237.686 1347.37 237.657 1355.96 237.632C1414.47 237.456 1474.99 237.273 1529.33 229.443C1581.32 221.951 1609.14 209.137 1638.6 195.57C1649.67 190.472 1661.11 185.2 1674.11 180.096C1705.19 167.893 1744.79 159.232 1791.79 154.355C1834.47 149.925 1882.56 148.655 1934.73 150.58C2027.2 153.992 2102.32 165.981 2171.15 188.317C2180.34 191.297 2189.36 194.312 2198.1 197.23C2246.63 213.438 2292.48 228.744 2361.04 237.185C2418.28 244.233 2476.33 245.141 2537.78 246.102C2545.51 246.221 2553.25 246.344 2561 246.476C2683.25 248.594 2801.85 253.553 2933.11 259.335C3013.9 262.895 3096.11 266.947 3175.62 270.867C3392.36 281.554 3616.48 292.604 3838.57 294.992C3839.37 295.001 3839.99 295.219 3839.96 295.48C3839.95 295.732 3839.32 295.934 3838.54 295.934Z" fill="#F4F4E3"/>
<path d="M3838.54 286.153C3838.52 286.153 3838.51 286.153 3838.49 286.153C3611.53 283.843 3382.29 272.583 3160.6 261.694C3077.31 257.604 2991.19 253.372 2906.61 249.689L2892.55 249.078C2773.16 243.873 2649.71 238.491 2527.62 236.623C2516.76 236.456 2505.71 236.333 2495.03 236.217C2439.01 235.596 2381.1 234.956 2327.15 227.7C2258.26 218.437 2219.01 201.47 2177.45 183.511C2169.26 179.972 2160.8 176.311 2152.06 172.697C2091.31 147.56 2021.78 134.973 1926.61 131.882C1799.97 127.771 1719.51 138.209 1680.64 163.793C1671.49 169.814 1664.76 176.018 1658.24 182.017C1641.61 197.333 1625.91 211.798 1573.59 220.579C1524.7 228.784 1466.62 228.686 1410.45 228.589C1397.44 228.567 1385.14 228.544 1373 228.626C1242.47 229.505 1109.84 231.702 981.585 233.825L952.999 234.298C872.641 235.624 790.901 237.111 711.858 238.551C479.091 242.789 238.39 247.169 1.46992 247.988C1.46032 247.988 1.46032 247.988 1.45073 247.988C0.664129 247.988 0.0214175 247.78 0.0118248 247.521C0.00223205 247.26 0.644943 247.046 1.43154 247.043C238.285 246.223 478.947 241.844 711.685 237.609C790.738 236.169 872.478 234.682 952.845 233.356L981.432 232.883C1109.71 230.759 1242.36 228.567 1372.93 227.684C1385.12 227.602 1397.43 227.624 1410.46 227.646C1466.29 227.741 1524.01 227.842 1572.27 219.741C1623.57 211.13 1639.09 196.835 1655.52 181.702C1662.06 175.678 1668.83 169.446 1678.05 163.374C1699.89 149.007 1735.39 139.179 1783.58 134.167C1822.39 130.13 1869.26 129.075 1926.88 130.947C1975.39 132.522 2017.14 136.605 2054.52 143.433C2091.22 150.135 2123.86 159.518 2154.29 172.114C2163.05 175.738 2171.52 179.402 2179.72 182.944C2221.04 200.799 2260.05 217.665 2328.23 226.83C2381.7 234.02 2439.35 234.66 2495.1 235.278C2505.8 235.397 2516.86 235.517 2527.74 235.684C2649.94 237.556 2773.45 242.94 2892.9 248.145L2906.97 248.757C2991.56 252.44 3077.7 256.671 3161 260.764C3382.61 271.65 3611.76 282.908 3838.56 285.214C3839.36 285.223 3839.98 285.441 3839.95 285.702C3839.95 285.951 3839.32 286.153 3838.54 286.153Z" fill="#F4F4E3"/>
<path d="M3838.54 281.947C3838.49 281.947 3838.46 281.947 3838.41 281.944C3628.45 275.544 3416.39 264.939 3211.29 254.683C3111.5 249.693 3008.31 244.532 2906.71 239.925C2898 239.531 2889.28 239.134 2880.57 238.737C2765.88 233.52 2647.28 228.122 2530.11 225.744C2517.3 225.482 2504.24 225.299 2491.59 225.123C2437.71 224.367 2382 223.582 2330.33 216.669C2260.84 207.371 2220.64 190.178 2178.07 171.976C2169.8 168.438 2161.24 164.776 2152.45 161.172C2091.4 136.149 2019.45 123.145 1926.02 120.253C1798.18 116.296 1719.84 126.599 1679.47 152.681C1670.1 158.733 1663.11 165.063 1656.34 171.182C1639.04 186.825 1622.69 201.602 1570.19 210.283C1522.59 218.157 1466.04 217.797 1411.34 217.448C1397.38 217.359 1384.2 217.274 1371.24 217.328C1237.65 217.873 1101.9 220.082 970.611 222.215L951.829 222.52C863.423 223.957 773.52 225.602 686.571 227.196C462.102 231.308 229.978 235.561 1.48945 236.582C0.712439 236.582 0.0409503 236.377 0.0313576 236.116C0.0217649 235.854 0.654883 235.64 1.45108 235.637C229.882 234.616 461.968 230.363 686.418 226.251C773.366 224.657 863.279 223.012 951.695 221.575L970.477 221.269C1101.79 219.133 1237.58 216.925 1371.21 216.38C1384.22 216.326 1397.42 216.411 1411.41 216.499C1465.75 216.846 1521.93 217.205 1568.91 209.435C1620.39 200.922 1636.54 186.318 1653.64 170.854C1660.44 164.707 1667.46 158.352 1676.92 152.246C1688.64 144.671 1703.98 138.301 1722.5 133.31C1739.49 128.732 1759.68 125.174 1782.53 122.739C1821.07 118.627 1868.1 117.506 1926.3 119.308C1974.79 120.808 2016.7 124.897 2054.4 131.807C2091.05 138.521 2123.86 147.932 2154.71 160.576C2163.51 164.187 2172.09 167.852 2180.37 171.393C2222.69 189.491 2262.66 206.584 2331.42 215.787C2382.63 222.64 2438.09 223.418 2491.73 224.171C2504.38 224.348 2517.46 224.534 2530.3 224.792C2647.58 227.174 2766.23 232.571 2880.97 237.792C2889.69 238.189 2898.4 238.586 2907.11 238.98C3008.73 243.589 3111.93 248.75 3211.74 253.741C3416.78 263.994 3628.81 274.599 3838.68 280.995C3839.47 281.02 3840.05 281.25 3839.97 281.509C3839.9 281.764 3839.28 281.947 3838.54 281.947Z" fill="#F4F4E3"/>
<path d="M3838.54 277.237C3838.46 277.237 3838.4 277.237 3838.32 277.231C3725.79 271.582 3611.47 265.624 3500.93 259.861C3308.06 249.807 3108.61 239.409 2911.94 230.313C2901.55 229.834 2891.17 229.349 2880.77 228.867C2769.12 223.684 2653.67 218.325 2539.69 215.476C2525.86 215.13 2511.72 214.881 2498.05 214.641C2445.29 213.712 2390.73 212.754 2340.21 206.049C2269.96 196.729 2227.62 179.501 2182.79 161.261C2173.99 157.679 2164.88 153.973 2155.57 150.337C2091.14 125.188 2018.02 112.147 1925.45 109.289C1800.41 105.433 1721.5 116.013 1677.09 142.587C1666.99 148.63 1659.09 155.051 1651.44 161.258C1631.78 177.229 1613.2 192.315 1560.42 200.913C1513.2 208.604 1457.64 207.996 1403.9 207.407C1389.94 207.253 1376.75 207.111 1363.75 207.111C1363.7 207.111 1363.65 207.111 1363.6 207.111C1227.09 207.124 1088.31 209.31 954.112 211.428L946.332 211.55C850.76 213.056 753.576 214.849 659.587 216.585C443.953 220.562 220.989 224.676 1.46992 225.641C0.692908 225.647 0.021419 225.436 0.0118263 225.174C0.00223363 224.913 0.635352 224.699 1.43155 224.695C220.884 223.731 443.818 219.619 659.424 215.64C753.413 213.907 850.606 212.114 946.188 210.605L953.968 210.482C1088.21 208.365 1227.01 206.175 1363.6 206.163C1363.65 206.163 1363.7 206.163 1363.75 206.163C1376.79 206.163 1390.01 206.308 1404 206.462C1457.38 207.048 1512.57 207.653 1559.13 200.066C1610.93 191.628 1629.31 176.703 1648.77 160.902C1656.44 154.67 1664.38 148.223 1674.56 142.13C1698.79 127.627 1734.72 117.595 1781.34 112.305C1820.57 107.856 1867.8 106.561 1925.72 108.347C1974.18 109.844 2016.51 113.993 2055.14 121.042C2091.95 127.756 2125.52 137.139 2157.78 149.729C2167.11 153.372 2176.22 157.08 2185.04 160.666C2229.62 178.808 2271.74 195.942 2341.29 205.17C2391.38 211.815 2445.69 212.773 2498.21 213.696C2511.9 213.936 2526.06 214.184 2539.92 214.531C2654 217.379 2769.49 222.742 2881.18 227.928C2891.58 228.41 2901.97 228.892 2912.35 229.374C3109.04 238.471 3308.5 248.868 3501.38 258.922C3611.92 264.685 3726.23 270.643 3838.76 276.292C3839.55 276.33 3840.09 276.573 3839.97 276.831C3839.86 277.07 3839.24 277.237 3838.54 277.237Z" fill="#F4F4E3"/>
<path d="M3838.54 271.04C3838.45 271.04 3838.35 271.037 3838.25 271.031C3566.99 252.911 3275.55 236.895 2921.05 220.631C2909.9 220.121 2898.74 219.607 2887.59 219.09C2778.64 214.071 2665.99 208.882 2554.84 205.763C2540.43 205.359 2525.69 205.06 2511.44 204.77C2459.16 203.711 2405.1 202.618 2354.97 196.065C2278.03 186.004 2226.01 167.418 2175.7 149.44C2108.09 125.28 2044.24 102.462 1925.17 98.8101C1802.47 95.0481 1722.33 105.984 1672.98 133.226C1661.99 139.294 1653 145.829 1644.31 152.152C1621.78 168.524 1600.52 183.988 1546.97 192.567C1499.72 200.139 1444.84 199.282 1391.77 198.456C1377.92 198.239 1364.82 198.037 1351.87 197.977C1213.41 197.36 1073.42 199.452 938.035 201.471C837.033 202.981 734.334 204.855 635.011 206.67C427.444 210.464 212.807 214.386 1.48945 215.164C0.683661 215.155 0.0409503 214.957 0.0313576 214.698C0.0217649 214.437 0.654883 214.222 1.45108 214.219C212.702 213.441 427.31 209.518 634.848 205.725C734.171 203.91 836.889 202.032 937.9 200.523C1073.33 198.5 1213.36 196.408 1351.91 197.026C1364.92 197.082 1378.03 197.287 1391.9 197.505C1444.61 198.327 1499.11 199.178 1545.7 191.71C1598.32 183.282 1619.39 167.966 1641.68 151.755C1650.41 145.41 1659.43 138.85 1670.5 132.737C1697.25 117.973 1732.9 108.064 1779.47 102.449C1819.8 97.5876 1867.55 96.0879 1925.43 97.8617C1979.39 99.5159 2027.27 105.386 2071.8 115.805C2111.52 125.1 2145.23 137.145 2177.82 148.794C2227.92 166.693 2279.71 185.201 2356.04 195.179C2405.75 201.679 2459.57 202.766 2511.62 203.822C2525.9 204.112 2540.65 204.408 2555.09 204.814C2666.31 207.937 2779.01 213.129 2887.99 218.148C2899.15 218.662 2910.3 219.175 2921.45 219.689C3276.01 235.956 3567.51 251.975 3838.83 270.101C3839.61 270.155 3840.11 270.404 3839.95 270.659C3839.82 270.886 3839.21 271.04 3838.54 271.04Z" fill="#F4F4E3"/>
<path d="M3838.54 263.538C3838.43 263.538 3838.31 263.535 3838.2 263.526C3537.97 239.208 3225.99 223.873 2933.58 210.924C2922.83 210.448 2912.08 209.969 2901.32 209.493C2794.42 204.745 2683.89 199.833 2574.9 196.585C2560.29 196.15 2545.36 195.819 2530.91 195.501C2478.56 194.345 2424.41 193.147 2374.04 186.691C2295.45 176.618 2240.03 157.947 2186.44 139.89C2114.06 115.506 2045.7 92.4743 1925.13 88.8068C1803.96 85.1204 1719.6 96.8097 1667.27 124.543C1656.42 130.293 1646.84 136.541 1637.57 142.584C1612.08 159.207 1585.7 176.398 1530.1 185.148C1482.41 192.649 1427.97 191.544 1375.33 190.479C1361.81 190.204 1349.04 189.946 1336.31 189.823C1196.86 188.5 1053.56 190.472 927.108 192.212C822.27 193.655 715.676 195.558 612.583 197.398C412.354 200.971 205.315 204.666 1.47009 205.167H1.4605C0.673894 205.167 0.0311831 204.959 0.0215904 204.698C0.0119977 204.436 0.654709 204.225 1.4509 204.222C205.229 203.721 412.23 200.025 612.429 196.456C715.522 194.616 822.135 192.712 926.993 191.269C1053.48 189.53 1196.86 187.558 1336.4 188.881C1349.18 189.001 1362.56 189.275 1375.51 189.537C1427.79 190.598 1481.84 191.695 1528.86 184.297C1583.58 175.689 1609.72 158.643 1635.01 142.162C1644.31 136.1 1653.92 129.833 1664.83 124.048C1692.55 109.362 1730.24 98.9491 1776.87 93.0981C1818.36 87.8931 1868.33 86.1318 1925.41 87.8679C1980.02 89.5283 2029.26 95.4454 2075.95 105.959C2117.59 115.336 2153.65 127.485 2188.51 139.232C2241.89 157.216 2297.09 175.812 2375.1 185.809C2425.06 192.212 2478.98 193.403 2531.11 194.556C2545.57 194.874 2560.52 195.205 2575.17 195.643C2684.21 198.891 2794.79 203.803 2901.73 208.555C2912.48 209.033 2923.22 209.509 2933.98 209.985C3226.48 222.938 3538.55 238.276 3838.91 262.606C3839.67 262.669 3840.14 262.924 3839.96 263.179C3839.78 263.397 3839.18 263.538 3838.54 263.538Z" fill="#F4F4E3"/>
<path d="M3838.54 254.926C3838.41 254.926 3838.28 254.919 3838.15 254.907C3539.13 227.016 3222.44 212.589 2949.07 201.256L2923.69 200.203C2817.4 195.789 2707.5 191.227 2599.22 187.95C2584.91 187.518 2570.33 187.175 2556.23 186.844C2503.16 185.596 2448.28 184.308 2396.83 177.931C2315.79 167.886 2256.41 149.067 2198.99 130.865C2121.32 106.248 2047.97 82.9951 1925.3 79.3025C1805.71 75.7011 1718.95 87.8788 1660.06 116.532C1648.05 122.373 1637.14 128.785 1626.59 134.983C1597.5 152.069 1567.43 169.736 1510.07 178.58C1461.59 186.053 1407.38 184.695 1354.95 183.385C1342.5 183.073 1329.62 182.751 1317.24 182.565C1177.54 180.473 1031.29 182.276 913.784 183.719C806.422 185.039 697.257 186.917 591.69 188.728C398.301 192.052 198.331 195.487 1.45062 195.651C0.65443 195.651 0.0117188 195.439 0.0117188 195.178C0.0117188 194.916 0.65443 194.705 1.45062 194.705C198.255 194.541 398.186 191.107 591.546 187.783C697.123 185.968 806.298 184.094 913.678 182.77C1031.24 181.324 1177.55 179.525 1317.38 181.617C1329.8 181.803 1342.7 182.127 1355.17 182.439C1407.22 183.744 1461.06 185.092 1508.85 177.723C1565.38 169.005 1595.22 151.474 1624.09 134.52C1634.67 128.303 1645.61 121.875 1657.69 115.999C1688.17 101.166 1727.21 90.5254 1773.71 84.3689C1816.95 78.6471 1868.05 76.6243 1925.58 78.3572C1981.11 80.0303 2032 86.001 2081.14 96.6159C2124.97 106.081 2163.63 118.334 2201.01 130.181C2258.22 148.317 2317.39 167.067 2397.87 177.042C2448.92 183.369 2503.59 184.654 2556.46 185.896C2570.57 186.227 2585.17 186.57 2599.51 187.005C2707.83 190.282 2817.76 194.847 2924.07 199.261L2949.44 200.314C3083.55 205.872 3241.64 212.753 3397.39 221.641C3561.51 231.005 3705.95 241.589 3838.94 253.993C3839.71 254.066 3840.15 254.324 3839.93 254.576C3839.75 254.79 3839.16 254.926 3838.54 254.926Z" fill="#F4F4E3"/>
<path d="M3838.54 245.381C3838.4 245.381 3838.25 245.375 3838.11 245.359C3548.8 215.235 3241.99 202.049 2977.12 192.055C2853.33 187.385 2732.09 182.892 2609.74 179.253C2598.25 178.913 2586.62 178.617 2575.37 178.33C2519.71 176.912 2467.13 175.576 2414.94 168.912C2334.52 158.647 2272.77 140.152 2213.06 122.262C2129.86 97.3396 2051.29 73.8035 1926.05 70.1833C1809 66.8025 1719.88 79.2637 1653.59 108.285C1639.28 114.549 1626.22 121.497 1613.57 128.217C1581.92 145.045 1549.18 162.447 1492.91 171.704C1442.48 180 1390.76 178.626 1336.03 177.17C1328.54 176.972 1320.81 176.767 1313.19 176.591C1171.43 173.336 1030.72 174.473 887.04 176.042C781.453 177.196 674.101 178.951 570.279 180.652C383.903 183.702 191.195 186.859 1.46067 186.635C0.664474 186.635 0.0217633 186.421 0.031356 186.16C0.031356 185.898 0.674067 185.69 1.47026 185.69C1.47026 185.69 1.47026 185.69 1.47985 185.69C191.118 185.911 383.807 182.757 570.145 179.707C673.976 178.009 781.347 176.25 886.954 175.097C1030.72 173.528 1171.5 172.388 1313.4 175.649C1321.04 175.825 1328.78 176.03 1336.27 176.228C1390.6 177.671 1441.92 179.036 1491.63 170.856C1547.16 161.722 1579.68 144.434 1611.14 127.719C1623.81 120.983 1636.91 114.017 1651.3 107.718C1685.06 92.9412 1725.61 82.2475 1771.84 75.9365C1816.61 69.8272 1868.58 67.5744 1926.31 69.2412C1982.97 70.8764 2035.67 76.8849 2087.43 87.6101C2133.59 97.1727 2174.98 109.571 2215.01 121.563C2274.53 139.393 2336.08 157.828 2415.99 168.03C2467.79 174.64 2520.17 175.973 2575.61 177.385C2586.88 177.671 2598.51 177.968 2610.01 178.311C2732.41 181.95 2853.67 186.443 2977.46 191.116C3242.46 201.113 3549.44 214.305 3838.99 244.458C3839.75 244.537 3840.17 244.801 3839.93 245.05C3839.72 245.252 3839.16 245.381 3838.54 245.381Z" fill="#F4F4E3"/>
<path d="M3838.54 235.096C3838.39 235.096 3838.22 235.086 3838.07 235.071C3580.02 205.74 3315.13 192.866 2996.8 182.56C2879.59 178.763 2759.87 175.128 2640.99 171.747C2630.71 171.454 2620.31 171.192 2610.25 170.937C2552.37 169.469 2497.69 168.079 2443.24 161.333C2360 151.021 2293.78 132.406 2229.74 114.403C2139.97 89.1654 2055.18 65.3299 1926.53 61.6907C1810.42 58.4045 1718.02 71.4109 1644.04 101.453C1628.31 107.843 1613.62 114.964 1599.41 121.848C1563.65 139.184 1526.68 157.108 1467.67 166.567C1415.29 174.964 1362.84 173.306 1307.3 171.551C1300.96 171.35 1294.41 171.145 1287.93 170.956C1149.13 166.91 1010.96 167.66 869.821 168.87C760.799 169.803 649.965 171.51 542.777 173.165C365.407 175.896 181.995 178.726 1.43155 178.127C0.635352 178.124 0.00223363 177.91 0.0118263 177.648C0.021419 177.387 0.692908 177.166 1.46992 177.182C181.937 177.78 365.321 174.954 542.652 172.223C649.85 170.572 760.704 168.864 869.753 167.928C1010.98 166.718 1149.25 165.968 1288.19 170.017C1294.68 170.206 1301.23 170.414 1307.57 170.612C1362.69 172.355 1414.75 174 1466.4 165.719C1524.72 156.371 1561.48 138.55 1597.02 121.319C1611.26 114.416 1625.98 107.279 1641.79 100.858C1716.41 70.5538 1809.64 57.4341 1926.77 60.7487C1984.93 62.3934 2039.91 68.4712 2094.85 79.3287C2143.83 89.0078 2188.45 101.554 2231.61 113.688C2295.46 131.638 2361.49 150.199 2444.25 160.451C2498.33 167.15 2552.79 168.533 2610.47 169.995C2620.55 170.25 2630.95 170.515 2641.24 170.808C2760.13 174.189 2879.86 177.825 2997.08 181.621C3115.2 185.446 3270.37 190.963 3423 199.766C3577.63 208.683 3713.71 219.938 3839 234.179C3839.75 234.264 3840.15 234.532 3839.89 234.781C3839.69 234.973 3839.14 235.096 3838.54 235.096Z" fill="#F4F4E3"/>
<path d="M3838.54 224.258C3838.38 224.258 3838.2 224.249 3838.04 224.23C3565.66 190.951 3282.99 180.066 3018.09 173.263C2969.27 172.009 2918.66 171.546 2865.07 171.058C2730.78 169.832 2591.92 168.562 2473.56 154.343C2387.2 143.967 2316.31 125.227 2247.76 107.103C2155.32 82.6631 2059.73 57.394 1927.15 53.7202C1811.74 50.5222 1715.67 64.083 1633.45 95.1779C1616.21 101.697 1599.81 108.988 1583.96 116.039C1543.83 133.888 1502.33 152.342 1440.17 162.034C1385.45 170.563 1331.93 168.584 1275.27 166.486C1270.25 166.3 1265.18 166.114 1260.09 165.931C1121.62 161.004 982.024 161.423 850.901 162.276C741.765 162.985 630.826 164.577 523.541 166.114C352.465 168.569 175.566 171.105 1.43887 170.131C0.642678 170.128 0.00955968 169.911 0.0287451 169.649C0.0383378 169.391 0.681049 169.186 1.46765 169.186C1.47724 169.186 1.48684 169.186 1.49643 169.186C175.537 170.16 352.388 167.623 523.416 165.169C630.72 163.631 741.679 162.037 850.844 161.328C982.053 160.474 1121.76 160.055 1260.39 164.989C1265.5 165.172 1270.55 165.358 1275.59 165.544C1331.83 167.623 1384.96 169.589 1438.93 161.177C1500.44 151.589 1541.72 133.23 1581.64 115.475C1597.52 108.411 1613.94 101.104 1631.27 94.554C1672.22 79.0712 1715.32 68.157 1763.05 61.1875C1813.27 53.8557 1867.02 51.1019 1927.38 52.775C1987.29 54.4354 2044.76 60.5857 2103.08 71.5818C2155.07 81.3838 2203.11 94.0846 2249.57 106.363C2317.93 124.439 2388.64 143.129 2474.55 153.451C2592.47 167.617 2731.09 168.884 2865.15 170.109C2918.77 170.598 2969.42 171.061 3018.31 172.318C3186.87 176.647 3315.21 181.61 3434.43 188.406C3584.12 196.938 3716.47 208.366 3839.04 223.341C3839.79 223.433 3840.16 223.704 3839.88 223.949C3839.67 224.138 3839.12 224.258 3838.54 224.258Z" fill="#F4F4E3"/>
<path d="M3838.54 213.05C3838.37 213.05 3838.18 213.041 3838.01 213.016C3560.57 176.946 3266.42 167.881 3015.27 163.769C2974.19 163.098 2932.15 162.928 2887.64 162.749C2760.15 162.238 2628.3 161.709 2513.99 148.907C2421.1 138.507 2343.27 119.24 2268 100.606C2168.2 75.8979 2064.99 50.3483 1927.54 46.3689C1813.16 43.0575 1714 56.8137 1624.41 88.4284C1605.11 95.2372 1586.52 102.9 1568.54 110.31C1525.01 128.248 1480.01 146.796 1417.34 157.093C1357.63 166.901 1300.24 164.428 1239.48 161.806C1232.83 161.52 1225.94 161.224 1219.06 160.94C1097.46 155.974 975.693 155.836 861.376 156.119C742.168 156.416 620.983 158.016 503.799 159.563C339.179 161.737 168.956 163.987 1.41952 162.654C0.623326 162.648 -0.000199617 162.43 0.0189858 162.169C0.0381712 161.907 0.67129 161.699 1.49626 161.709C168.937 163.042 339.111 160.792 503.693 158.618C620.907 157.068 742.11 155.467 861.367 155.171C975.769 154.887 1097.65 155.026 1219.42 159.998C1226.32 160.278 1233.21 160.578 1239.87 160.864C1302.79 163.58 1357.14 165.924 1416.07 156.242C1478.16 146.04 1522.97 127.573 1566.3 109.715C1584.31 102.292 1602.94 94.6134 1622.31 87.7794C1712.55 55.9378 1812.47 42.0839 1927.8 45.4205C1989.86 47.2165 2050.25 53.5117 2112.39 64.6654C2167.8 74.6061 2219.62 87.4359 2269.74 99.8436C2344.82 118.43 2422.46 137.653 2514.92 148.003C2628.8 160.754 2760.41 161.283 2887.68 161.794C2932.21 161.973 2974.27 162.14 3015.42 162.815C3181.35 165.531 3314.3 169.809 3433.82 176.281C3583.19 184.369 3715.74 196.093 3839.08 212.127C3839.81 212.222 3840.18 212.499 3839.88 212.742C3839.65 212.937 3839.11 213.05 3838.54 213.05Z" fill="#F4F4E3"/>
<path d="M3838.54 201.661C3838.36 201.661 3838.16 201.649 3837.98 201.623C3560.72 163.628 3278.83 156.876 3039.65 155.282C3003.64 155.042 2967.25 155.137 2928.73 155.238C2799.15 155.575 2665.17 155.925 2546.98 143.063C2450.45 132.559 2367.63 113.159 2287.54 94.3998C2180.81 69.3986 2070.46 43.5466 1928.3 39.4663C1814.35 36.1958 1711 50.4814 1612.32 83.1327C1591.33 90.077 1570.89 97.8845 1551.11 105.437C1502.84 123.869 1452.92 142.928 1386.36 153.499C1323.7 163.449 1267.79 160.717 1203.04 157.554C1197.78 157.295 1192.47 157.037 1187.09 156.782C1066.64 151.054 944.066 150.584 838.652 150.581C720.326 150.587 600.043 152.046 483.722 153.461C325.663 155.38 162.232 157.368 1.40069 155.726C0.604494 155.717 -0.0190316 155.499 0.00974649 155.238C0.0385246 154.976 0.700421 154.775 1.49662 154.781C162.222 156.419 325.615 154.434 483.616 152.516C599.966 151.101 720.268 149.642 838.652 149.636C839.141 149.636 839.63 149.636 840.119 149.636C945.313 149.636 1067.42 150.134 1187.5 155.846C1192.88 156.101 1198.21 156.363 1203.46 156.618C1267.73 159.759 1323.25 162.472 1385.1 152.648C1451.13 142.162 1500.85 123.179 1548.92 104.819C1568.73 97.2544 1589.21 89.4342 1610.28 82.4679C1657.81 66.7393 1704.91 55.5258 1754.26 48.1908C1809.91 39.9169 1866.91 36.7567 1928.55 38.5243C1992.7 40.3643 2055.87 46.7478 2121.64 58.0401C2180.27 68.1067 2235.66 81.0816 2289.22 93.631C2369.14 112.353 2451.77 131.708 2547.89 142.168C2665.63 154.979 2799.37 154.63 2928.71 154.296C2967.25 154.195 3003.66 154.1 3039.71 154.34C3198.51 155.399 3327.78 158.782 3446.51 164.993C3589.74 172.482 3718.16 184.181 3839.09 200.754C3839.82 200.855 3840.17 201.132 3839.86 201.371C3839.63 201.554 3839.11 201.661 3838.54 201.661Z" fill="#F4F4E3"/>
<path d="M3838.54 190.279C3838.35 190.279 3838.16 190.267 3837.96 190.239C3617.31 158.57 3385.93 145.69 3064.31 147.177C3034.67 147.313 3003.72 147.647 2973.8 147.965C2841.08 149.386 2703.84 150.854 2580.3 137.778C2480.02 127.163 2392.25 107.629 2307.37 88.74C2193.72 63.4488 2076.2 37.2944 1929.08 33.107C1757.69 28.2297 1662.98 60.5123 1562.71 94.6886C1501.15 115.67 1437.51 137.366 1353.95 150.255C1288.44 160.363 1231.18 157.212 1164.86 153.564C1161.1 153.356 1157.3 153.148 1153.47 152.94C1040.16 146.777 923.72 145.687 814.785 145.428C697.639 145.151 578.555 146.484 463.385 147.776C311.984 149.471 155.44 151.226 1.40088 149.339C0.604681 149.329 -0.00925176 149.109 0.0195263 148.847C0.0483045 148.585 0.700608 148.381 1.51599 148.393C155.45 150.281 311.945 148.526 463.289 146.831C578.488 145.539 697.601 144.206 814.804 144.483C923.854 144.742 1040.42 145.832 1153.94 152.007C1157.78 152.215 1161.58 152.426 1165.34 152.631C1231.18 156.254 1288.03 159.38 1352.73 149.398C1435.81 136.581 1499.27 114.948 1560.65 94.0301C1611.32 76.7576 1659.19 60.443 1717.32 48.5899C1748.62 42.2096 1779.84 37.767 1812.77 35.0038C1849.66 31.9097 1887.78 30.9803 1929.33 32.1618C1995.69 34.0491 2061.7 40.5239 2131.12 51.9549C2193.01 62.1444 2251.97 75.2642 2308.98 87.9523C2393.7 106.803 2481.3 126.3 2581.19 136.874C2704.24 149.899 2841.22 148.434 2973.7 147.016C3003.64 146.695 3034.59 146.364 3064.26 146.229C3216.28 145.526 3341.78 147.943 3459.21 153.828C3595.98 160.684 3720.24 172.311 3839.11 189.369C3839.83 189.473 3840.17 189.753 3839.84 189.993C3839.62 190.172 3839.1 190.279 3838.54 190.279Z" fill="#F4F4E3"/>
<path d="M3838.54 179.088C3838.34 179.088 3838.14 179.076 3837.95 179.044C3620.68 146.516 3391.93 134.278 3096.25 139.364C3073.69 139.751 3050.46 140.227 3028 140.687C2886.22 143.589 2739.64 146.592 2604.33 131.972C2504.33 121.168 2414.43 102.002 2327.48 83.4629C2206.81 57.737 2082.04 31.1351 1930.07 27.1935C1755.72 22.6722 1653.69 55.6039 1545.64 90.4702C1476.63 112.743 1405.27 135.772 1313.05 148.362C1249.07 157.099 1194.97 154.427 1135.92 150.341C1017.45 142.143 895.47 141.021 780.684 140.574C668.085 140.133 553.615 141.336 442.906 142.499C298.21 144.017 148.592 145.586 1.40178 143.513C0.605587 143.501 -0.00834552 143.28 0.0300253 143.022C0.0683961 142.76 0.739885 142.559 1.52649 142.571C148.611 144.644 298.181 143.075 442.82 141.557C553.558 140.394 668.056 139.194 780.723 139.632C895.653 140.079 1017.81 141.204 1136.53 149.421C1195.11 153.476 1248.74 156.129 1311.96 147.496C1403.65 134.975 1474.81 112.009 1543.64 89.8023C1595.72 72.9961 1649.58 55.6165 1710.95 43.4578C1743.98 36.9105 1776.63 32.3261 1810.73 29.44C1848.96 26.2042 1888.07 25.1645 1930.31 26.2609C1998.84 28.038 2067.7 34.5317 2140.82 46.117C2206 56.4421 2268.56 69.7792 2329.06 82.6784C2415.86 101.183 2505.6 120.317 2605.25 131.08C2740.02 145.64 2886.33 142.644 3027.82 139.748C3050.29 139.288 3073.52 138.812 3096.1 138.425C3392.27 133.33 3621.44 145.593 3839.14 178.187C3839.86 178.295 3840.19 178.575 3839.85 178.814C3839.61 178.985 3839.09 179.088 3838.54 179.088Z" fill="#F4F4E3"/>
<path d="M3838.54 168.277C3838.34 168.277 3838.13 168.261 3837.93 168.233C3667.54 141.76 3494.91 129.164 3294.49 129.164C3238.55 129.164 3180.49 130.144 3119.65 132.075C3107.51 132.459 3095.34 132.86 3083.14 133.257C2934.97 138.096 2781.77 143.103 2636.27 127.768C2532.74 116.857 2438.31 97.5711 2346.99 78.9186C2219.58 52.8965 2087.83 25.989 1930.77 21.9623C1753.17 17.4063 1642.84 51.0911 1526.03 86.7514C1451.47 109.512 1374.38 133.045 1278.26 145.601C1247.94 149.562 1220.11 151.191 1191.49 151.191C1162.74 151.191 1133.2 149.546 1099.53 146.969C983.061 138.052 860.889 136.637 755.513 136.01C644.4 135.352 531.456 136.489 422.224 137.592C284.31 138.985 141.695 140.421 1.39202 138.254C0.595822 138.241 -0.0181111 138.021 0.0202597 137.759C0.0586305 137.497 0.739712 137.299 1.52631 137.308C141.714 139.476 284.271 138.036 422.138 136.647C531.398 135.544 644.391 134.403 755.57 135.065C861.09 135.692 983.455 137.107 1100.19 146.049C1166.82 151.15 1217.14 152.571 1277.2 144.722C1372.81 132.233 1449.71 108.759 1524.07 86.0582C1580.29 68.896 1638.42 51.1509 1703.41 38.6991C1738.4 31.9943 1772.64 27.2934 1808.05 24.3254C1847.77 20.9982 1887.98 19.9175 1930.99 21.0202C2001.79 22.8351 2073.5 29.417 2150.23 41.1378C2218.61 51.5857 2284.65 65.071 2348.51 78.1151C2439.67 96.7361 2533.96 115.99 2637.14 126.867C2782.08 142.142 2934.97 137.148 3082.85 132.314C3095.04 131.917 3107.21 131.517 3119.36 131.133C3398.71 122.257 3620.7 133.436 3839.14 167.376C3839.86 167.486 3840.17 167.77 3839.83 168.006C3839.6 168.176 3839.08 168.277 3838.54 168.277Z" fill="#F4F4E3"/>
<path d="M3838.54 158.035C3838.33 158.035 3838.11 158.019 3837.91 157.988C3618.98 122.797 3404.35 112.724 3141.96 125.327C3054.39 129.533 2965.12 133.818 2875.39 133.818C2805.96 133.818 2736.27 131.254 2666.84 124.095C2559.91 113.074 2461.18 93.6744 2365.71 74.9179C2231.85 48.6185 2093.45 21.4243 1931.4 17.3063C1750.37 12.7062 1631.86 46.9801 1506.4 83.2643C1426.16 106.47 1343.19 130.469 1242.84 142.943C1212.26 146.746 1184.62 148.327 1156.79 148.327C1126.87 148.327 1096.73 146.497 1062.41 143.623C953.526 134.505 838.231 132.482 729.862 131.654C620.381 130.819 509.096 131.947 401.475 133.037C270.362 134.366 134.788 135.743 1.39221 133.572C0.59602 133.56 -0.00832022 133.336 0.0300506 133.078C0.0684214 132.816 0.739911 132.621 1.53611 132.63C134.817 134.798 270.333 133.421 401.389 132.092C509.048 130.998 620.371 129.87 729.929 130.708C838.471 131.537 953.967 133.566 1063.12 142.707C1128.77 148.205 1179.05 149.859 1241.82 142.054C1341.67 129.64 1424.44 105.701 1504.49 82.5491C1564.79 65.1096 1627.15 47.0747 1695.73 34.396C1732.67 27.5683 1768.49 22.776 1805.23 19.7481C1846.45 16.3516 1887.79 15.2425 1931.61 16.3579C2004.63 18.2137 2079.1 24.8807 2159.29 36.7339C2230.75 47.2984 2300.1 60.9254 2367.17 74.1019C2462.51 92.8331 2561.09 112.201 2667.69 123.191C2826.22 139.531 2986.52 131.833 3141.53 124.388C3271.62 118.14 3388.19 117.466 3497.93 122.324C3613.73 127.451 3725.35 138.837 3839.17 157.134C3839.88 157.247 3840.18 157.531 3839.84 157.767C3839.59 157.937 3839.07 158.035 3838.54 158.035Z" fill="#F4F4E3"/>
<path d="M3838.54 148.54C3838.32 148.54 3838.1 148.524 3837.89 148.489C3615.2 111.515 3415.12 102.621 3168.84 118.753C3094.85 123.598 3016.05 128.451 2937.64 129.906C2853.45 131.466 2777.65 128.873 2705.88 121.979C2590.78 110.92 2484.53 90.8747 2381.76 71.4849C2242.48 45.2044 2098.45 18.0323 1931.73 13.3314C1747.5 8.13576 1614.54 44.6877 1485.96 80.0329C1397.78 104.272 1306.61 129.333 1198.9 141.274C1172.23 144.23 1147.91 145.427 1124.1 145.427C1088.85 145.427 1054.68 142.805 1015.49 139.384C917.285 130.811 815.199 128.624 728.28 127.619C613.023 126.283 495.868 127.562 382.568 128.8C257.652 130.165 128.477 131.573 1.36389 129.487C0.5677 129.475 -0.0366405 129.251 0.00173028 128.993C0.0401011 128.731 0.71159 128.536 1.50778 128.545C128.496 130.631 257.614 129.223 382.472 127.858C495.82 126.62 613.033 125.341 728.385 126.677C815.458 127.685 917.755 129.875 1016.22 138.473C1081.4 144.163 1132.58 147.629 1197.98 140.383C1305.18 128.501 1396.14 103.494 1484.11 79.3146C1548.67 61.5695 1615.42 43.2195 1687.72 30.3581C1726.67 23.4296 1764.12 18.5931 1802.2 15.5716C1844.94 12.1813 1887.39 11.1416 1931.97 12.3988C2007.07 14.5161 2084 21.3406 2167.14 33.2662C2241.24 43.8937 2313.41 57.5082 2383.18 70.6752C2485.8 90.0366 2591.9 110.053 2706.67 121.081C2861.15 135.921 3007.1 128.394 3168.25 117.836C3291.75 109.748 3403.93 108.109 3511.23 112.829C3619.41 117.59 3726.68 128.98 3839.15 147.658C3839.86 147.774 3840.15 148.061 3839.79 148.294C3839.57 148.445 3839.07 148.54 3838.54 148.54Z" fill="#F4F4E3"/>
<path d="M1089.98 142.393C1053.19 142.393 1018.27 139.526 978.111 135.78C881.436 126.756 779.37 124.478 701.256 123.504C588.101 122.093 473.103 123.517 361.895 124.897C243.771 126.362 121.627 127.877 1.38225 125.996C0.586056 125.984 -0.0278768 125.763 0.010494 125.502C0.0488649 125.24 0.720354 125.039 1.51655 125.051C121.636 126.932 243.723 125.417 361.78 123.952C473.036 122.572 588.091 121.144 701.362 122.559C779.638 123.536 881.925 125.82 978.898 134.869C1043.61 140.909 1094.61 144.646 1161.87 137.664C1274.09 126.012 1371.32 100.652 1465.32 76.1294C1533.7 58.293 1604.4 39.8516 1680.1 26.924C1720.87 19.9608 1759.83 15.0992 1799.19 12.0682C1843.37 8.66535 1886.93 7.63189 1932.36 8.91425C2009.42 11.0851 2088.74 17.9916 2174.84 30.0243C2251.57 40.7495 2326.55 54.4711 2399.06 67.7421C2505.34 87.1949 2615.22 107.309 2733.1 118.45C2898.3 134.066 3047.67 123.945 3186.5 112.237C3305.69 102.186 3414.74 99.4891 3519.89 103.992C3622.19 108.371 3726.63 119.856 3839.19 139.1C3839.9 139.22 3840.17 139.507 3839.81 139.737C3839.44 139.967 3838.57 140.058 3837.87 139.939C3613.69 101.61 3419.1 93.5972 3187.22 113.151C3119.85 118.832 3040.27 124.897 2960.91 126.8C2880.5 128.731 2805.71 126.296 2732.3 119.355C2614.12 108.182 2504.08 88.0424 2397.66 68.5644C2252.91 42.0697 2103.24 14.6738 1932.12 9.85317C1744.31 4.5599 1603.4 41.3198 1467.12 76.8667C1372.9 101.443 1275.47 126.857 1162.74 138.562C1136.61 141.278 1112.94 142.393 1089.98 142.393Z" fill="#F4F4E3"/>
<path d="M1057.14 138.856C1015.06 138.856 976.557 135.245 932.133 131.076C858.461 124.167 776.654 120.534 666.885 119.299C558.612 118.079 448.641 119.718 342.287 121.303C230.628 122.966 115.161 124.687 1.40088 123.105C0.604681 123.092 -0.00925176 122.875 0.0195263 122.613C0.0483045 122.352 0.738979 122.147 1.51599 122.16C115.142 123.741 230.542 122.021 342.143 120.358C448.555 118.773 558.583 117.131 666.971 118.354C776.99 119.592 859.008 123.237 932.91 130.169C1002.57 136.704 1057.6 141.865 1134.7 133.739C1247.73 121.826 1348.37 97.1238 1445.68 73.2347C1518.01 55.4771 1592.8 37.1176 1672.02 24.1932C1714.7 17.23 1755.22 12.3526 1795.92 9.28379C1841.61 5.83686 1886.34 4.74039 1932.66 5.92507C2011.37 7.94156 2092.75 14.8323 2181.48 26.9942C2260.54 37.8328 2338 51.7592 2412.92 65.2287C2519.37 84.3695 2629.46 104.159 2745.96 115.417C2907.57 131.032 3042.43 123.688 3207.65 106.778C3265.97 100.81 3320.44 97.0545 3374.17 95.2964C3427.2 93.5634 3478.16 93.8218 3529.94 96.0935C3627.18 100.356 3725.46 111.661 3839.21 131.675C3839.91 131.798 3840.18 132.085 3839.8 132.315C3839.42 132.545 3838.55 132.633 3837.85 132.507C3610.06 92.4355 3427.73 85.2423 3208.5 107.679C3042.76 124.643 2907.44 132.006 2745.14 116.321C2628.34 105.035 2518.12 85.2171 2411.54 66.0541C2261.93 39.1561 2107.23 11.3412 1932.44 6.86399C1740.85 1.95511 1591.67 38.5732 1447.4 73.9878C1349.89 97.9241 1249.08 122.673 1135.58 134.637C1107.03 137.646 1081.48 138.856 1057.14 138.856Z" fill="#F4F4E3"/>
<path d="M1025.87 135.288C981.766 135.288 941.937 131.387 895.729 126.866C824.734 119.916 743.704 116.191 640.717 115.139C534.708 114.058 427.126 116.068 323.083 118.009C217.746 119.975 108.821 122.011 1.40166 120.842C0.605471 120.832 -0.0180551 120.615 0.0107231 120.354C0.0395012 120.092 0.71099 119.897 1.49759 119.897C108.782 121.062 217.64 119.03 322.92 117.064C427.02 115.12 534.67 113.11 640.803 114.194C744.04 115.246 825.3 118.986 896.545 125.959C966.552 132.812 1021.85 138.225 1099.6 130.679C1218.18 119.169 1325.08 94.3062 1428.47 70.2628C1504.19 52.65 1582.5 34.4386 1664.74 21.6371C1709.04 14.7401 1750.92 9.9163 1792.77 6.89472C1839.76 3.4982 1885.51 2.44269 1932.63 3.65889C2012.83 5.73208 2096.04 12.6921 2187.01 24.9359C2268.08 35.847 2347.69 49.8521 2424.69 63.3941C2533.84 82.5948 2646.69 102.448 2765.48 113.794C2935.24 130.011 3070.06 121.037 3220.26 102.577C3277.17 95.5823 3330.51 91.1145 3383.35 88.9184C3434.8 86.779 3484.59 86.8452 3535.54 89.1201C3627.87 93.2444 3724.38 104.827 3839.23 125.565C3839.93 125.691 3840.18 125.978 3839.8 126.208C3839.41 126.438 3838.54 126.52 3837.84 126.394C3642.59 91.1397 3463.02 73.7507 3221.27 103.465C3132.73 114.348 3063.28 120.164 2996.1 122.326C2919.78 124.78 2844.08 122.288 2764.69 114.701C2645.61 103.327 2532.62 83.4487 2423.35 64.2259C2269.57 37.1735 2110.55 9.20106 1932.42 4.59781C1737.45 -0.443409 1581.23 35.8943 1430.15 71.0315C1326.57 95.1222 1219.46 120.029 1100.43 131.583C1073.38 134.214 1049.03 135.288 1025.87 135.288Z" fill="#F4F4E3"/>
<path d="M995.799 131.417C957.265 131.417 919.95 128.547 873.78 123.796C795.024 115.695 708.248 111.448 608.503 110.821C507.329 110.181 404.802 112.639 305.642 115.018C206.08 117.403 103.121 119.873 1.42911 119.211C0.632912 119.205 -0.00020594 118.991 0.0189795 118.729C0.0381649 118.468 0.738432 118.263 1.48666 118.266C103.045 118.924 205.926 116.461 305.431 114.075C404.658 111.697 507.252 109.239 608.551 109.879C708.574 110.509 795.609 114.769 874.634 122.898C950.234 130.674 1001.87 133.383 1074.33 126.612C1194.55 115.377 1304.97 91.0024 1411.76 67.4316C1490.77 49.989 1572.48 31.9541 1657.63 19.3511C1703.5 12.5612 1746.68 7.84764 1789.61 4.93949C1837.84 1.67531 1884.51 0.752154 1932.34 2.12273C2013.91 4.45745 2098.7 11.5718 2191.56 23.8692C2274.31 34.8276 2355.71 48.8012 2434.44 62.3148C2548.8 81.9472 2667.07 102.251 2791.74 113.701C2961.61 129.303 3091.51 118.915 3234.28 98.517C3289.26 90.6622 3341.28 85.6462 3393.31 83.1917C3443.12 80.8413 3491.77 80.8917 3542.08 83.3493C3630.51 87.6721 3722.17 99.2732 3839.26 120.963C3839.95 121.092 3840.2 121.379 3839.81 121.606C3839.41 121.833 3838.54 121.915 3837.85 121.785C3633.75 83.9763 3461.79 67.0441 3235.44 99.3835C3150.8 111.476 3083.66 118.093 3017.74 120.834C2944.09 123.896 2869.91 121.861 2790.98 114.611C2666.01 103.133 2547.62 82.8105 2433.12 63.1529C2275.9 36.1635 2113.33 8.25411 1932.11 3.06481C1734.2 -2.60341 1571.11 33.4003 1413.38 68.2162C1306.41 91.8279 1195.8 116.246 1075.14 127.52C1046.33 130.207 1020.81 131.417 995.799 131.417Z" fill="#F4F4E3"/>
<path d="M969.278 127.164C921.775 127.164 880.066 122.838 831.076 117.756C757.883 110.163 675.06 106.445 577.876 106.388C481.489 106.341 384.065 109.366 289.827 112.296C195.521 115.229 98.0013 118.279 1.46039 118.213C0.664195 118.213 0.0214844 118.002 0.0214844 117.74C0.0214844 117.479 0.664195 117.268 1.46039 117.268C97.8383 117.325 195.31 114.287 289.548 111.357C383.864 108.424 481.393 105.393 577.876 105.443C675.357 105.5 758.459 109.233 831.939 116.855C900.872 124.004 955.32 129.653 1031.8 123.743C1163.23 113.588 1283.25 88.6022 1399.31 64.4422C1480.6 47.5194 1564.65 30.0233 1651.85 17.792C1698.81 11.2038 1742.93 6.62573 1786.7 3.7932C1835.85 0.614081 1883.32 -0.299631 1931.83 1.00478C2014.14 3.21347 2099.91 10.2964 2194.03 22.6568C2277.89 33.6718 2360.51 47.7652 2440.4 61.3985C2559.72 81.7556 2683.1 102.809 2813.15 114.022C2961.26 126.793 3081.09 122.192 3226.78 98.1427C3282.64 88.9204 3335.22 82.9088 3387.53 79.7643C3437.57 76.7553 3486.49 76.4339 3537.09 78.775C3584 80.9458 3632.24 85.4199 3684.58 92.4524C3730.96 98.6846 3780.11 106.817 3839.25 118.043C3839.94 118.172 3840.17 118.462 3839.78 118.689C3839.39 118.916 3838.5 118.991 3837.81 118.862C3622.72 78.0346 3454 61.6947 3228.07 98.9902C3134.38 114.457 3051.31 121.915 2964.62 121.918C2915.87 121.918 2865.99 119.562 2812.41 114.939C2682.05 103.701 2558.52 82.622 2439.06 62.2429C2279.49 35.0172 2114.47 6.86205 1931.59 1.95316C1730.78 -3.43778 1563.05 31.4789 1400.84 65.2488C1284.58 89.4497 1164.35 114.479 1032.46 124.672C1009.78 126.414 989.019 127.161 969.278 127.164Z" fill="#F4F4E3"/>
<path d="M945.133 122.347C897.285 122.347 855.758 117.999 806.634 112.86L798.087 111.965C727.139 104.564 647.558 101.224 554.816 101.763C461.201 102.305 366.78 106.13 275.477 109.826C185.957 113.449 93.3879 117.198 1.49936 117.863C0.674386 117.869 0.0508602 117.661 0.0316748 117.4C0.0124894 117.138 0.645608 116.924 1.4418 116.918C93.196 116.253 185.689 112.51 275.131 108.887C366.511 105.188 460.999 101.359 554.768 100.818C647.836 100.279 727.715 103.628 798.96 111.064L807.507 111.959C874.032 118.922 926.581 124.42 999.745 119.536C1137.74 110.326 1264.34 85.5552 1386.78 61.6C1470.42 45.2381 1556.9 28.3154 1646.15 16.5379C1694.22 10.1922 1739.25 5.80008 1783.79 3.11248C1833.81 0.0940547 1881.97 -0.718843 1930.99 0.629682C2013.69 2.90138 2099.98 10.0252 2194.78 22.4109C2279.27 33.4448 2362.57 47.5445 2443.12 61.1778C2563.37 81.5317 2687.73 102.579 2818.48 113.849C2970.65 126.966 3089.44 121.991 3228.47 96.6774C3283.73 86.6202 3336.02 80.0918 3388.35 76.7268C3437.86 73.5414 3486.61 73.2452 3537.39 75.8257C3644.62 81.2733 3750.16 99.6927 3839.28 116.987C3839.96 117.12 3840.19 117.409 3839.79 117.633C3839.39 117.857 3838.5 117.932 3837.82 117.8C3612 73.9699 3448.23 57.7529 3229.88 97.5029C3159.11 110.383 3095.58 117.69 3029.93 120.491C2964.36 123.289 2894.96 121.414 2817.75 114.76C2686.7 103.464 2562.2 82.3919 2441.81 62.0159C2280.89 34.7807 2114.5 6.61927 1930.75 1.5686C1727.74 -4.01139 1555.15 29.7553 1388.26 62.4098C1265.62 86.4059 1138.8 111.218 1000.33 120.459C980.655 121.776 962.477 122.347 945.133 122.347Z" fill="#F4F4E3"/>
</svg>
