<svg width="1200" height="1200" viewBox="0 0 1200 1200" fill="none" xmlns="http://www.w3.org/2000/svg">
<path d="M983.602 952.709C969.147 966 953.593 981.429 935.057 994.733C916.659 1008.08 895.28 1019.31 872.341 1025.25C849.447 1031.28 824.989 1032.04 801.478 1026.51C777.92 1021.11 755.307 1009.43 735.049 993.621C714.802 977.767 696.908 957.794 681.248 937.425C665.499 917.066 651.985 896.308 638.441 879.124C624.855 861.787 611.24 848.016 594.337 838.046C577.438 827.755 557.252 821.265 530.674 811.087C505.263 800.908 474.692 791.733 442.51 776.258C410.336 761.102 376.553 739.646 344.897 712.252C313.201 685.015 283.633 651.835 258.956 616.8C234.193 581.76 214.323 544.864 200.005 510.05C185.698 475.284 176.943 442.591 172.889 414.42C168.793 386.121 169.397 362.342 172.767 342.444C176.18 322.456 182.355 306.348 190.429 291.369C198.639 276.343 208.748 262.447 223.143 245.791C237.531 231.362 253.213 214.893 271.961 200.784C290.571 186.621 312.25 174.816 335.465 168.501C358.635 162.096 383.345 161.181 407.007 166.672C430.719 172.034 453.385 183.801 473.595 199.725C493.793 215.695 511.537 235.819 527 256.324C542.554 276.823 555.831 297.7 569.197 315.012C582.605 332.479 596.103 346.382 613.037 356.57C629.962 367.08 650.321 373.876 677.221 384.568C702.951 395.263 733.99 405.093 766.661 421.372C799.328 437.328 833.626 459.732 865.7 488.104C897.817 516.319 927.709 550.509 952.532 586.418C977.446 622.334 997.292 659.971 1011.41 695.268C1025.52 730.516 1033.91 763.428 1037.5 791.496C1041.13 819.698 1039.96 843.057 1036.06 862.262C1032.11 881.56 1025.43 896.705 1016.98 910.589C1008.4 924.523 998.055 937.192 983.597 952.713L983.602 952.709Z" stroke="url(#paint0_linear_192_11)" stroke-miterlimit="10"/>
<path d="M230.698 260.167C245.319 245.191 261.154 228.132 280.071 213.24C298.846 198.298 320.703 185.522 344.129 178.001C367.51 170.393 392.467 168.038 416.395 171.926C440.371 175.687 463.318 185.693 483.783 199.882C504.235 214.116 522.207 232.538 537.823 251.611C553.531 270.672 566.887 290.383 580.217 306.982C593.587 323.726 606.934 337.366 623.575 347.7C640.207 358.342 660.137 365.681 686.472 376.867C711.627 388.056 741.987 398.52 773.885 415.106C805.779 431.386 839.211 453.787 870.36 481.79C901.553 509.645 930.463 543.108 954.298 578.112C978.221 613.126 997.068 649.68 1010.24 683.947C1023.4 718.169 1030.88 750.103 1033.66 777.429C1036.48 804.885 1034.6 827.733 1030.1 846.713C1025.55 865.781 1018.39 880.98 1009.58 895.137C1000.62 909.341 990.012 922.502 975.322 938.568C960.634 952.514 944.911 968.633 926.194 982.788C907.618 996.986 886.047 1009.23 862.887 1016.4C839.775 1023.66 815.069 1025.86 791.302 1021.93C767.491 1018.13 744.619 1008.19 724.135 994.104C703.666 979.973 685.582 961.69 669.811 942.746C653.952 923.815 640.404 904.224 626.933 887.748C613.421 871.128 599.988 857.618 583.387 847.485C566.794 837.048 547.035 829.987 520.997 819.262C496.14 808.534 466.207 798.655 434.753 782.786C403.306 767.218 370.337 745.661 339.557 718.531C308.736 691.548 280.104 658.987 256.387 624.766C232.582 590.537 213.689 554.652 200.314 520.822C186.951 487.039 179.103 455.311 175.875 427.903C172.601 400.373 173.943 377.16 177.927 357.569C181.956 337.894 188.628 321.838 197.088 306.701C205.685 291.521 216.067 277.26 230.693 260.17L230.698 260.167Z" stroke="url(#paint1_linear_192_11)" stroke-miterlimit="10"/>
<path d="M238.255 274.846C253.061 259.33 269.007 241.654 288.058 225.936C306.965 210.176 328.978 196.376 352.618 187.601C376.207 178.743 401.427 174.908 425.65 177.166C449.919 179.302 473.191 187.532 493.963 199.992C514.723 212.496 532.987 229.236 548.82 246.893C564.747 264.54 578.239 283.104 591.586 299.002C604.973 315.039 618.209 328.412 634.587 338.878C650.957 349.635 670.471 357.49 696.247 369.154C720.826 380.82 750.487 391.889 781.582 408.771C812.671 425.362 845.191 447.764 875.362 475.414C905.575 502.923 933.442 535.685 956.223 569.804C979.095 603.936 996.879 639.428 1009.05 672.668C1021.2 705.864 1027.74 736.81 1029.67 763.366C1031.66 790.044 1029.04 812.336 1023.95 831.039C1018.81 849.824 1011.2 865.023 1002.05 879.411C992.753 893.842 981.927 907.464 967.049 924.077C952.176 938.679 936.331 955.51 917.467 970.563C898.745 985.654 877.001 998.964 853.62 1007.42C830.287 1015.96 805.315 1019.65 781.26 1017.35C757.162 1015.16 733.98 1006.99 713.215 994.625C692.463 982.212 674.122 965.602 658.174 948.063C642.135 930.538 628.486 912.087 615.031 896.307C601.534 880.39 588.235 867.14 571.908 856.856C555.583 846.284 536.232 838.678 510.732 827.424C486.427 816.168 457.152 805.611 426.459 789.36C395.77 773.393 363.663 751.733 333.816 724.853C303.929 698.11 276.3 666.144 253.608 632.717C230.827 599.28 212.981 564.382 200.607 531.536C188.247 498.732 181.359 467.979 178.987 441.358C176.573 414.62 178.673 392.019 183.274 372.783C187.923 353.468 195.077 337.52 203.887 322.265C212.839 306.972 223.45 292.376 238.258 274.848L238.255 274.846Z" stroke="url(#paint2_linear_192_11)" stroke-miterlimit="10"/>
<path d="M245.821 289.748C260.766 273.696 276.774 255.377 295.926 238.805C314.931 222.192 337.081 207.327 360.927 197.259C384.723 187.114 410.221 181.764 434.768 182.376C459.361 182.871 483.003 189.322 504.14 200.064C525.263 210.848 543.879 225.924 559.988 242.189C576.191 258.442 589.887 275.885 603.299 291.092C616.753 306.43 629.922 319.534 646.067 330.12C662.207 340.98 681.32 349.318 706.532 361.438C730.532 373.558 759.481 385.205 789.738 402.37C819.992 419.259 851.557 441.665 880.695 468.972C909.879 496.15 936.639 528.236 958.304 561.497C980.06 594.773 996.723 629.223 1007.83 661.445C1018.93 693.624 1024.47 723.576 1025.54 749.343C1026.65 775.227 1023.29 796.923 1017.61 815.307C1011.88 833.77 1003.83 848.916 994.383 863.501C984.786 878.122 973.789 892.179 958.775 909.346C943.763 924.596 927.846 942.168 908.864 958.152C890.029 974.172 868.129 988.601 844.525 998.384C820.971 1008.24 795.714 1013.45 771.335 1012.8C746.912 1012.26 723.373 1005.86 702.263 995.196C681.167 984.495 662.504 969.536 646.309 953.379C630.023 937.239 616.208 919.904 602.713 904.803C589.175 889.577 575.963 876.584 559.873 866.163C543.786 855.468 524.823 847.347 499.861 835.587C476.108 823.822 447.507 812.619 417.606 795.999C387.707 779.65 356.504 757.887 327.647 731.242C298.746 704.729 272.187 673.332 250.587 640.676C228.896 608.007 212.163 574.076 200.852 542.201C189.555 510.368 183.68 480.588 182.202 454.776C180.683 428.849 183.56 406.887 188.78 388.047C194.053 369.13 201.668 353.331 210.8 337.995C220.076 322.623 230.867 307.714 245.816 289.745L245.821 289.748Z" stroke="url(#paint3_linear_192_11)" stroke-miterlimit="10"/>
<path d="M253.393 304.786C268.432 288.204 284.456 269.225 303.676 251.77C322.746 234.278 345.011 218.311 369.066 206.926C393.066 195.463 418.859 188.582 443.761 187.538C468.709 186.379 492.769 191.059 514.324 200.1C535.861 209.177 554.891 222.614 571.338 237.511C587.876 252.394 601.832 268.738 615.361 283.265C628.933 297.914 642.078 310.75 658.014 321.434C673.948 332.378 692.677 341.17 717.328 353.717C740.747 366.266 768.966 378.461 798.359 395.892C827.749 413.064 858.316 435.47 886.372 462.454C914.473 489.312 940.069 520.747 960.558 553.176C981.14 585.619 996.618 619.054 1006.61 650.27C1016.6 681.449 1021.1 710.41 1021.27 735.372C1021.48 760.447 1017.36 781.526 1011.1 799.558C1004.78 817.663 996.323 832.723 986.608 847.471C976.744 862.253 965.627 876.722 950.521 894.446C935.418 910.339 919.475 928.673 900.409 945.617C881.492 962.594 859.456 978.18 835.626 989.318C811.852 1000.53 786.284 1007.29 761.545 1008.3C736.763 1009.41 712.811 1004.78 691.3 995.81C669.803 986.806 650.749 973.474 634.244 958.675C617.648 943.894 603.601 927.648 590.015 913.219C576.383 898.67 563.209 885.936 547.328 875.395C531.448 864.595 512.86 855.991 488.428 843.746C465.229 831.499 437.315 819.681 408.232 802.711C379.151 785.997 348.899 764.134 321.083 737.717C293.221 711.422 267.796 680.575 247.35 648.662C226.813 616.735 211.261 583.747 201.071 552.83C190.895 521.952 186.085 493.142 185.538 468.144C184.95 443.035 188.629 421.738 194.473 403.318C200.37 384.826 208.436 369.214 217.856 353.822C227.428 338.4 238.352 323.201 253.396 304.786H253.393Z" stroke="url(#paint4_linear_192_11)" stroke-miterlimit="10"/>
<path d="M260.977 319.893C276.066 302.784 292.054 283.13 311.307 264.773C330.406 246.384 352.77 229.289 377.029 216.561C401.233 203.765 427.335 195.333 452.626 192.633C477.961 189.823 502.484 192.739 524.506 200.095C546.512 207.482 566.017 219.309 582.858 232.862C599.792 246.398 614.062 261.665 627.754 275.522C641.492 289.493 654.649 302.052 670.405 312.816C686.161 323.825 704.516 333.036 728.607 345.986C751.443 358.939 778.918 371.647 807.421 389.33C835.921 406.766 865.448 429.175 892.374 455.841C919.345 482.393 943.717 513.204 962.974 544.824C982.323 576.463 996.555 608.911 1005.39 639.141C1014.2 669.338 1017.62 697.317 1016.86 721.473C1016.14 745.74 1011.24 766.183 1004.4 783.84C997.501 801.569 988.652 816.511 978.711 831.398C968.614 846.317 957.428 861.18 942.277 879.465C927.13 895.997 911.209 915.108 892.093 933.036C873.13 950.993 850.971 967.764 826.914 980.277C802.916 992.861 777.018 1001.19 751.88 1003.85C726.702 1006.63 702.286 1003.75 680.314 996.461C658.359 989.136 638.85 977.4 621.97 963.933C605 950.486 590.662 935.306 576.93 921.537C563.151 907.656 549.978 895.183 534.274 884.541C518.571 873.655 500.338 864.6 476.439 851.899C453.793 839.198 426.582 826.797 398.343 809.498C370.107 792.441 340.844 770.481 314.12 744.283C287.35 718.2 263.113 687.876 243.886 656.683C224.569 625.476 210.26 593.4 201.248 563.421C192.253 533.477 188.559 505.627 188.982 481.445C189.363 457.154 193.866 436.533 200.336 418.555C206.862 400.509 215.36 385.109 225.042 369.684C234.874 354.233 245.89 338.757 260.982 319.896L260.977 319.893Z" stroke="url(#paint5_linear_192_11)" stroke-miterlimit="10"/>
<path d="M268.568 334.999C283.66 317.366 299.567 297.024 318.822 277.747C337.916 258.442 360.356 240.202 384.82 226.123C409.223 211.978 435.654 201.996 461.365 197.645C487.117 193.186 512.149 194.359 534.692 200.052C557.216 205.776 577.254 216.019 594.544 228.257C611.929 240.475 626.569 254.686 640.468 267.878C654.414 281.177 667.619 293.455 683.219 304.277C698.819 315.331 716.814 324.926 740.346 338.249C762.599 351.574 789.316 364.764 816.899 382.678C844.484 400.358 872.936 422.765 898.684 449.126C924.479 475.38 947.574 505.594 965.54 536.436C983.598 567.298 996.527 598.79 1004.14 628.061C1011.74 657.298 1014.02 684.317 1012.3 707.671C1010.62 731.134 1004.93 750.934 997.511 768.202C990.03 785.537 980.812 800.338 970.676 815.347C960.383 830.383 949.175 845.626 934.028 864.473C918.887 881.638 903.035 901.541 883.897 920.467C864.918 939.42 842.656 957.398 818.368 971.302C794.142 985.272 767.893 995.17 742.321 999.494C716.711 1003.92 691.78 1002.78 669.289 997.142C646.818 991.471 626.788 981.305 609.474 969.142C592.069 957 577.381 942.862 563.454 929.743C549.479 916.519 536.264 904.313 520.715 893.592C505.163 882.638 487.273 873.168 463.902 860.045C441.81 846.919 415.309 833.976 387.942 816.365C360.575 798.984 332.341 776.938 306.755 750.95C281.123 725.069 258.133 695.246 240.186 664.75C222.145 634.234 209.144 603.041 201.371 573.974C193.614 544.942 191.087 518.03 192.517 494.657C193.909 471.178 199.256 451.236 206.356 433.714C213.515 416.124 222.431 400.954 232.34 385.514C242.406 370.049 253.465 354.312 268.561 334.997L268.568 334.999Z" stroke="url(#paint6_linear_192_11)" stroke-miterlimit="10"/>
<path d="M276.173 350.038C291.221 331.882 307.001 310.844 326.222 290.636C345.278 270.404 367.776 251.007 392.443 235.572C417.045 220.076 443.822 208.544 469.985 202.556C496.185 196.464 521.772 195.915 544.884 199.973C567.979 204.06 588.602 212.756 606.398 223.702C624.288 234.627 639.348 247.808 653.496 260.343C667.694 272.976 680.981 284.967 696.446 295.822C711.912 306.898 729.557 316.839 752.529 330.504C774.194 344.172 800.145 357.804 826.788 375.932C853.435 393.836 880.776 416.235 905.306 442.304C929.885 468.272 951.65 497.912 968.27 528.005C984.984 558.12 996.552 588.692 1002.9 617.031C1009.23 645.339 1010.33 671.415 1007.62 693.982C1004.94 716.652 998.45 735.809 990.453 752.681C982.392 769.616 972.825 784.265 962.534 799.383C952.077 814.524 940.901 830.136 925.805 849.545C910.713 867.341 894.979 888.041 875.853 907.978C856.893 927.936 834.54 947.132 810.019 962.432C785.563 977.794 758.937 989.261 732.895 995.23C706.814 1001.3 681.317 1001.88 658.255 997.86C635.21 993.816 614.599 985.184 596.793 974.297C578.894 963.432 563.805 950.314 549.638 937.836C535.423 925.263 522.132 913.33 506.709 902.552C491.282 891.552 473.724 881.705 450.878 868.193C429.341 854.676 403.562 841.229 377.09 823.332C350.613 805.654 323.443 783.528 299.037 757.743C274.586 732.058 252.9 702.715 236.287 672.883C219.583 643.03 207.95 612.692 201.47 584.508C195.009 556.359 193.701 530.364 196.176 507.788C198.612 485.108 204.83 465.843 212.568 448.776C220.368 431.648 229.687 416.72 239.793 401.271C250.063 385.8 261.12 369.809 276.173 350.04V350.038Z" stroke="url(#paint7_linear_192_11)" stroke-miterlimit="10"/>
<path d="M283.788 364.949C298.749 346.274 314.352 324.53 333.509 303.389C352.493 282.226 375.029 261.665 399.9 244.879C424.701 228.031 451.841 214.961 478.483 207.355C505.164 199.649 531.345 197.407 555.081 199.862C578.796 202.346 600.062 209.525 618.41 219.211C636.854 228.874 652.38 241.044 666.818 252.926C681.307 264.902 694.706 276.595 710.052 287.46C725.405 298.536 742.706 308.784 765.122 322.757C786.199 336.732 811.37 350.772 837.053 369.089C862.742 387.194 888.943 409.579 912.213 435.365C935.534 461.054 955.925 490.147 971.148 519.526C986.467 548.928 996.619 578.614 1001.65 606.053C1006.66 633.463 1006.55 658.63 1002.81 680.424C999.108 702.319 991.788 720.845 983.215 737.321C974.575 753.857 964.68 768.343 954.266 783.562C943.682 798.799 932.582 814.771 917.585 834.746C902.589 853.166 887.021 874.67 867.936 895.622C849.024 916.594 826.593 937.013 801.835 953.702C777.144 970.454 750.12 983.482 723.569 991.073C696.981 998.767 670.869 1001.03 647.177 998.604C623.505 996.154 602.251 989.021 583.901 979.378C565.454 969.761 549.909 957.636 535.461 945.794C520.963 933.862 507.566 922.21 492.249 911.4C476.928 900.379 459.689 890.196 437.366 876.329C416.383 862.457 391.337 848.546 365.777 830.388C340.212 812.438 314.131 790.243 290.952 764.654C267.722 739.162 247.387 710.275 232.166 681.084C216.852 651.866 206.647 622.344 201.516 595.015C196.406 567.715 196.368 542.609 199.925 520.807C203.445 498.905 210.559 480.305 218.937 463.694C227.383 447.024 237.093 432.341 247.365 416.89C257.81 401.419 268.819 385.181 283.783 364.954L283.788 364.949Z" stroke="url(#paint8_linear_192_11)" stroke-miterlimit="10"/>
<path d="M291.421 379.678C306.253 360.487 321.632 338.035 340.688 315.955C359.566 293.859 382.124 272.134 407.197 254.004C432.197 235.815 459.718 221.22 486.874 212.023C514.064 202.726 540.889 198.826 565.292 199.714C589.673 200.628 611.633 206.328 630.584 214.783C649.63 223.212 665.667 234.394 680.427 245.631C695.24 256.956 708.776 268.339 724.023 279.187C739.28 290.237 756.245 300.751 778.107 314.998C798.593 329.247 822.977 343.654 847.683 362.139C872.396 380.422 897.433 402.785 919.407 428.295C941.434 453.715 960.404 482.285 974.182 510.977C988.059 539.695 996.745 568.536 1000.41 595.114C1004.05 621.665 1002.67 645.953 997.887 667.001C993.133 688.15 984.968 706.059 975.821 722.146C966.603 738.291 956.396 752.614 945.896 767.931C935.218 783.264 924.245 799.589 909.387 820.131C894.533 839.17 879.176 861.483 860.163 883.45C841.328 905.434 818.84 927.072 793.837 945.147C768.905 963.279 741.459 977.847 714.363 987.039C687.233 996.329 660.454 1000.24 636.082 999.375C611.729 998.482 589.781 992.808 570.833 984.382C551.789 975.982 535.743 964.829 520.978 953.616C506.161 942.317 492.625 930.96 477.399 920.143C462.164 909.125 445.234 898.649 423.43 884.463C403.001 870.274 378.694 855.941 354.063 837.547C329.425 819.355 304.465 797.1 282.543 771.706C260.569 746.4 241.633 717.951 227.854 689.367C213.98 660.756 205.261 632.011 201.531 605.499C197.823 579.015 199.107 554.763 203.782 533.71C208.424 512.559 216.459 494.607 225.483 478.44C234.579 462.216 244.669 447.775 255.082 432.324C265.673 416.856 276.589 400.373 291.423 379.68L291.421 379.678Z" stroke="url(#paint9_linear_192_11)" stroke-miterlimit="10"/>
<path d="M299.064 394.171C313.726 374.467 328.834 351.302 347.76 328.288C366.502 305.26 389.064 282.381 414.341 262.922C439.541 243.408 467.462 227.313 495.161 216.554C522.89 205.696 550.399 200.176 575.515 199.536C600.607 198.919 623.311 203.181 642.905 210.434C662.597 217.658 679.183 227.875 694.296 238.471C709.464 249.148 723.161 260.212 738.322 271.017C753.494 282.014 770.131 292.754 791.438 307.238C811.33 321.724 834.922 336.456 858.634 355.087C882.358 373.524 906.202 395.856 926.851 421.099C947.554 446.26 965.064 474.331 977.354 502.372C989.743 530.443 996.912 558.48 999.168 584.234C1001.4 609.964 998.714 633.412 992.844 653.748C987.005 674.179 977.978 691.492 968.256 707.205C958.457 722.973 947.962 737.14 937.406 752.553C926.666 767.98 915.866 784.658 901.198 805.766C886.529 825.422 871.428 848.539 852.516 871.516C833.789 894.508 811.253 917.359 786 936.801C760.824 956.299 732.929 972.384 705.252 983.14C677.544 993.996 650.052 999.52 624.946 1000.17C599.863 1000.79 577.166 996.542 557.573 989.299C537.881 982.084 521.292 971.88 506.177 961.291C491.006 950.62 477.312 939.566 462.158 928.773C446.993 917.786 430.368 907.06 409.08 892.596C389.208 878.128 365.642 863.421 341.954 844.821C318.257 826.413 294.437 804.115 273.804 778.91C253.118 753.787 235.62 725.752 223.33 697.749C210.941 669.715 203.76 641.709 201.482 615.976C199.229 590.268 201.881 566.829 207.71 546.496C213.511 526.065 222.492 508.735 232.171 492.998C241.927 477.204 252.384 463 262.908 447.542C273.617 432.069 284.395 415.341 299.059 394.183L299.064 394.171Z" stroke="url(#paint10_linear_192_11)" stroke-miterlimit="10"/>
<path d="M306.722 408.384C321.17 388.164 335.962 364.291 354.73 340.349C373.303 316.394 395.851 292.37 421.337 271.603C446.738 250.783 475.077 233.215 503.347 220.932C531.648 208.55 559.879 201.451 585.751 199.322C611.599 197.215 635.088 200.081 655.368 206.165C675.746 212.217 692.916 221.486 708.41 231.449C723.96 241.485 737.832 252.216 752.918 262.946C768.019 273.864 784.332 284.784 805.085 299.467C824.381 314.15 847.176 329.169 869.882 347.916C892.606 366.48 915.242 388.771 934.538 413.755C953.892 438.662 969.905 466.26 980.666 493.685C991.526 521.138 997.135 548.417 997.937 573.393C998.712 598.346 994.68 621.002 987.696 640.656C980.741 660.405 970.836 677.155 960.538 692.513C950.16 707.925 939.389 721.944 928.812 737.462C918.041 752.99 907.464 770.018 893.021 791.693C878.58 811.961 863.782 835.879 844.999 859.86C826.409 883.85 803.837 907.901 778.325 928.687C752.897 949.526 724.531 967.099 696.238 979.385C667.915 991.769 639.665 998.863 613.781 1000.98C587.921 1003.08 564.427 1000.21 544.145 994.113C523.764 988.051 506.597 978.773 491.105 968.803C475.555 958.757 461.683 948.019 446.59 937.277C431.484 926.349 415.157 915.417 394.382 900.717C375.067 886.015 352.245 870.974 329.513 852.199C306.763 833.609 284.102 811.281 264.787 786.261C245.417 761.318 229.392 733.682 218.63 706.224C207.77 678.737 202.173 651.427 201.396 626.431C200.642 601.457 204.71 578.791 211.735 559.137C218.731 539.388 228.684 522.653 239.025 507.321C249.449 491.935 260.261 477.953 270.871 462.48C281.673 446.995 292.272 430.02 306.722 408.391V408.384Z" stroke="url(#paint11_linear_192_11)" stroke-miterlimit="10"/>
<path d="M314.395 422.27C328.591 401.539 343.022 376.958 361.6 352.094C379.975 327.223 402.496 302.074 428.188 280.022C453.792 257.921 482.57 238.918 511.442 225.146C540.343 211.279 569.337 202.646 596.006 199.075C622.648 195.523 646.965 197.033 667.965 201.979C689.066 206.89 706.847 215.237 722.74 224.566C738.693 233.964 752.755 244.346 767.772 254.978C782.805 265.788 798.794 276.847 818.999 291.686C837.695 306.528 859.691 321.787 881.39 340.627C903.105 359.29 924.52 381.53 942.441 406.262C960.422 430.922 974.908 458.074 984.108 484.913C993.405 511.786 997.408 538.349 996.717 562.594C995.997 586.817 990.578 608.724 982.452 627.739C974.352 646.848 963.547 663.067 952.675 678.096C941.714 693.175 930.686 707.064 920.116 722.695C909.345 738.334 899.035 755.712 884.863 777.955C870.691 798.83 856.236 823.546 837.609 848.515C819.184 873.492 796.583 898.723 770.81 920.825C745.123 942.977 716.26 962.002 687.314 975.775C658.341 989.645 629.287 998.261 602.58 1001.81C575.899 1005.34 551.563 1003.79 530.555 998.818C509.45 993.876 491.673 985.5 475.783 976.145C459.832 966.72 445.768 956.311 430.73 945.65C415.675 934.812 399.645 923.719 379.38 908.827C360.624 893.933 338.548 878.606 316.771 859.687C294.979 840.943 273.484 818.604 255.506 793.769C237.47 769.006 222.948 741.744 213.753 714.804C204.458 687.83 200.493 661.178 201.261 636.874C202.056 612.588 207.583 590.65 215.836 571.637C224.064 552.53 235.015 536.35 246.026 521.398C257.126 506.393 268.286 492.612 278.954 477.113C289.824 461.604 300.201 444.377 314.397 422.275L314.395 422.27Z" stroke="url(#paint12_linear_192_11)" stroke-miterlimit="10"/>
<path d="M322.087 435.795C335.993 414.55 350.021 389.266 368.381 363.497C386.527 337.723 409.008 311.467 434.911 288.163C460.718 264.811 489.953 244.409 519.456 229.198C548.983 213.891 578.779 203.775 606.283 198.804C633.758 193.855 658.942 194.052 680.693 197.892C702.545 201.696 720.965 209.139 737.273 217.836C753.643 226.601 767.904 236.621 782.856 247.123C797.83 257.796 813.492 268.949 833.15 283.903C851.246 298.863 872.443 314.321 893.124 333.223C913.826 351.958 934.013 374.134 950.544 398.621C967.135 423.039 980.074 449.765 987.674 476.057C995.376 502.385 997.74 528.279 995.513 551.842C993.259 575.383 986.414 596.592 977.117 615.015C967.843 633.531 956.119 649.255 944.669 663.984C933.125 678.763 921.852 692.542 911.321 708.295C900.578 724.054 890.58 741.787 876.715 764.599C862.85 786.077 848.784 811.582 830.335 837.523C812.1 863.472 789.482 889.858 763.435 913.241C737.482 936.677 708.096 957.111 678.466 972.324C648.809 987.631 618.91 997.721 591.338 1002.65C563.794 1007.55 538.577 1007.3 516.816 1003.41C494.952 999.55 476.544 992.057 460.238 983.314C443.873 974.503 429.61 964.445 414.622 953.897C399.614 943.179 383.882 931.975 364.123 916.935C345.926 901.891 324.593 886.33 303.778 867.298C282.941 848.436 262.62 826.099 245.993 801.447C229.306 776.861 216.31 749.955 208.714 723.499C201.017 697.008 198.72 670.971 201.072 647.309C203.453 623.667 210.485 602.403 220.003 583.985C229.495 565.474 241.474 549.811 253.164 535.205C264.948 520.548 276.451 506.947 287.15 491.405C298.063 475.858 308.179 458.369 322.085 435.792L322.087 435.795Z" stroke="url(#paint13_linear_192_11)" stroke-miterlimit="10"/>
<path d="M329.792 448.92C343.371 427.164 356.953 401.181 375.068 374.525C392.96 347.863 415.386 320.527 441.502 296.004C467.518 271.435 497.228 249.679 527.389 233.073C557.571 216.374 588.205 204.823 616.578 198.506C644.919 192.206 671.002 191.138 693.529 193.905C716.158 196.634 735.234 203.196 751.966 211.265C768.766 219.396 783.226 229.039 798.111 239.381C813.022 249.885 828.358 261.089 847.472 276.117C864.963 291.151 885.366 306.765 905.031 325.704C924.721 344.479 943.676 366.581 958.806 390.825C974 415.005 985.369 441.333 991.347 467.114C997.429 492.933 998.118 518.208 994.323 541.137C990.5 564.048 982.194 584.616 971.699 602.493C961.225 620.462 948.562 635.743 936.529 650.205C924.397 664.716 912.894 678.41 902.43 694.305C891.745 710.201 882.099 728.297 868.578 751.673C855.059 773.748 841.419 800.033 823.174 826.927C805.153 853.826 782.528 881.34 756.198 905.971C729.968 930.65 700.035 952.449 669.687 969.053C639.315 985.749 608.53 997.253 580.057 1003.51C551.612 1009.74 525.479 1010.73 502.935 1007.89C480.287 1005.08 461.23 998.448 444.502 990.317C427.71 982.121 413.25 972.425 398.314 962.023C383.358 951.458 367.926 940.188 348.668 925.046C331.033 909.902 310.438 894.153 290.578 875.042C270.694 856.094 251.547 833.784 236.278 809.311C220.945 784.903 209.492 758.335 203.521 732.333C197.444 706.296 196.854 680.825 200.83 657.758C204.838 634.711 213.414 614.066 224.228 596.196C235.021 578.232 248.05 563.04 260.432 548.743C272.912 534.398 284.749 520.946 295.46 505.346C306.394 489.739 316.208 471.981 329.787 448.925L329.792 448.92Z" stroke="url(#paint14_linear_192_11)" stroke-miterlimit="10"/>
<path d="M337.512 461.614C350.728 439.347 363.825 412.676 381.669 385.145C399.28 357.615 421.639 329.225 447.974 303.524C474.201 277.774 504.408 254.712 535.255 236.763C566.119 218.722 597.624 205.795 626.896 198.178C656.136 190.579 683.148 188.292 706.468 190.018C729.897 191.705 749.635 197.403 766.8 204.848C784.032 212.35 798.688 221.599 813.504 231.749C828.348 242.055 843.35 253.26 861.921 268.323C878.805 283.388 898.418 299.112 917.073 318.058C935.757 336.848 953.484 358.858 967.209 382.868C981 406.817 990.792 432.766 995.126 458.071C999.566 483.418 998.551 508.121 993.158 530.472C987.734 552.807 977.932 572.787 966.211 590.172C954.508 607.649 940.888 622.529 928.269 636.766C915.544 651.048 903.823 664.687 893.452 680.739C882.849 696.79 873.6 715.253 860.46 739.196C847.32 761.866 834.146 788.916 816.127 816.742C798.343 844.572 775.716 873.178 749.095 899.012C722.582 924.893 692.073 948.005 660.976 965.945C629.858 983.979 598.149 996.84 568.74 1004.37C539.364 1011.88 512.284 1014.06 488.942 1012.23C465.492 1010.45 445.776 1004.65 428.625 997.128C411.408 989.544 396.756 980.228 381.88 970.006C366.979 959.626 351.854 948.341 333.096 933.144C316.024 917.945 296.157 902.06 277.248 882.903C258.309 863.904 240.326 841.635 226.416 817.344C212.438 793.116 202.533 766.865 198.206 741.286C193.771 715.666 194.913 690.718 200.546 668.196C206.212 645.691 216.372 625.613 228.516 608.235C240.64 590.765 254.748 575.993 267.83 561.968C281.018 547.892 293.181 534.562 303.883 518.878C314.82 503.191 324.292 485.153 337.512 461.611V461.614Z" stroke="url(#paint15_linear_192_11)" stroke-miterlimit="10"/>
<path d="M345.249 473.851C358.074 451.071 370.645 423.72 388.194 395.34C405.498 366.963 427.78 337.553 454.341 310.711C480.784 283.824 511.509 259.505 543.064 240.267C574.638 220.937 607.043 206.691 637.242 197.83C667.408 188.983 695.37 185.523 719.5 186.243C743.74 186.919 764.149 191.777 781.739 198.598C799.401 205.474 814.242 214.313 828.978 224.237C843.745 234.315 858.407 245.477 876.441 260.527C892.715 275.58 911.545 291.37 929.202 310.294C946.888 329.064 963.397 350.971 975.721 374.748C988.115 398.47 996.321 424.063 998.999 448.932C1001.79 473.839 999.04 498.022 992.022 519.85C984.969 541.661 973.641 561.115 960.669 578.067C947.713 595.107 933.112 609.639 919.905 623.691C906.582 637.788 894.652 651.403 884.399 667.632C873.904 683.859 865.089 702.699 852.359 727.207C839.632 750.468 826.96 778.27 809.188 807.005C791.663 835.74 769.036 865.404 742.113 892.397C715.305 919.438 684.196 943.807 652.319 963.024C620.423 982.335 587.757 996.495 557.385 1005.25C527.046 1013.98 499 1017.3 474.846 1016.46C450.58 1015.65 430.209 1010.68 412.641 1003.76C395.003 996.787 380.173 987.869 365.37 977.863C350.536 967.702 335.73 956.451 317.464 941.249C300.959 926.043 281.809 910.071 263.833 890.902C245.826 871.889 228.993 849.682 216.433 825.574C203.805 801.523 195.45 775.575 192.777 750.384C189.993 725.153 192.892 700.678 200.212 678.648C207.568 656.635 219.345 637.063 232.849 620.124C246.337 603.091 261.551 588.691 275.346 574.889C289.254 561.041 301.744 547.793 312.412 532.006C323.329 516.216 332.428 497.883 345.253 473.854L345.249 473.851Z" stroke="url(#paint16_linear_192_11)" stroke-miterlimit="10"/>
<path d="M353.004 485.604C365.408 462.312 377.417 434.29 394.649 405.082C411.622 375.876 433.822 345.483 460.611 317.547C487.277 289.567 518.54 264.043 550.829 243.574C583.136 223.013 616.472 207.507 647.624 197.453C678.737 187.414 707.669 182.827 732.615 182.573C757.673 182.275 778.75 186.31 796.755 192.509C814.834 198.759 829.846 207.171 844.486 216.84C859.162 226.659 873.471 237.73 890.969 252.725C906.629 267.723 924.694 283.531 941.362 302.403C958.066 321.125 973.373 342.912 984.305 366.463C995.309 389.959 1001.94 415.222 1002.95 439.687C1004.07 464.194 999.581 487.906 990.912 509.263C982.205 530.607 969.32 549.598 955.071 566.17C940.834 582.831 925.234 597.072 911.429 610.985C897.504 624.941 885.37 638.571 875.261 654.999C864.893 671.424 856.551 690.653 844.265 715.726C831.982 739.572 819.848 768.113 802.34 797.724C785.093 827.335 762.471 858.017 735.233 886.121C708.118 914.271 676.383 939.843 643.697 960.279C610.995 980.808 577.34 996.204 545.979 1006.12C514.656 1016.02 485.624 1020.44 460.656 1020.54C435.572 1020.68 414.55 1016.51 396.584 1010.2C378.543 1003.83 363.557 995.333 348.843 985.575C334.095 975.665 319.62 964.498 301.841 949.337C285.905 934.171 267.459 918.163 250.397 899.021C233.302 880.03 217.594 857.904 206.372 833.981C195.075 810.113 188.259 784.447 187.246 759.612C186.118 734.736 190.788 710.691 199.82 689.1C208.887 667.524 222.315 648.401 237.212 631.841C252.092 615.19 268.44 601.099 282.96 587.477C297.6 573.809 310.412 560.607 321.032 544.685C331.913 528.766 340.601 510.125 353.007 485.604H353.004Z" stroke="url(#paint17_linear_192_11)" stroke-miterlimit="10"/>
<path d="M360.772 496.856C372.726 473.05 384.138 444.372 401.034 414.36C417.656 384.356 439.763 353.014 466.789 324.032C493.686 295.006 525.505 268.335 558.553 246.694C591.616 224.96 625.909 208.253 658.031 197.062C690.112 185.883 720.025 180.219 745.787 179.026C771.666 177.788 793.396 181.018 811.799 186.593C830.281 192.216 845.435 200.184 859.962 209.566C874.528 219.092 888.467 230.031 905.435 244.923C920.478 259.822 937.789 275.602 953.492 294.392C969.234 313.037 983.368 334.688 992.924 358.013C1002.56 381.288 1007.62 406.239 1006.96 430.34C1006.43 454.481 1000.18 477.771 989.838 498.718C979.458 519.651 964.988 538.241 949.439 554.494C933.899 570.838 917.276 584.842 902.869 598.666C888.332 612.531 876.006 626.211 866.06 642.864C855.844 659.516 848.008 679.14 836.192 704.777C824.38 729.207 812.814 758.468 795.587 788.928C778.633 819.387 756.018 851.045 728.454 880.208C701.02 909.416 668.632 936.128 635.111 957.723C601.573 979.409 566.9 995.976 534.534 1007C502.206 1018.01 472.184 1023.48 446.404 1024.49C420.505 1025.55 398.85 1022.16 380.507 1016.46C362.084 1010.7 346.976 1002.64 332.375 993.161C317.737 983.54 303.611 972.504 286.316 957.435C270.954 942.36 253.187 926.364 237.016 907.282C220.808 888.346 206.192 866.326 196.28 842.59C186.289 818.907 180.997 793.505 181.638 768.996C182.159 744.444 188.612 720.78 199.374 699.574C210.174 678.382 225.28 659.643 241.597 643.402C257.898 627.07 275.408 613.236 290.665 599.741C306.052 586.203 319.187 573.005 329.74 556.923C340.568 540.843 348.815 521.878 360.772 496.865V496.856Z" stroke="url(#paint18_linear_192_11)" stroke-miterlimit="10"/>
<path d="M368.559 507.586C380.038 483.264 390.821 453.941 407.359 423.154C423.61 392.374 445.62 360.128 472.894 330.147C500.026 300.125 532.426 272.367 566.256 249.61C600.099 226.764 635.371 208.92 668.479 196.644C701.544 184.383 732.442 177.687 759.015 175.587C785.707 173.439 808.071 175.887 826.846 180.838C845.703 185.837 860.969 193.342 875.357 202.402C889.788 211.604 903.341 222.363 919.783 237.111C934.205 251.866 950.784 267.576 965.549 286.251C980.355 304.786 993.346 326.285 1001.56 349.39C1009.85 372.447 1013.35 397.107 1011.04 420.876C1008.85 444.689 1000.84 467.607 988.812 488.201C976.745 508.781 960.667 527.033 943.791 543.031C926.923 559.119 909.257 572.95 894.238 586.733C879.079 600.557 866.563 614.328 856.8 631.236C846.751 648.137 839.455 668.175 828.135 694.373C816.816 719.381 805.853 749.345 788.921 780.624C772.279 811.899 749.669 844.488 721.762 874.656C693.994 904.867 660.929 932.66 626.544 955.347C592.147 978.125 556.433 995.801 523.047 1007.88C489.703 1019.94 458.686 1026.4 432.108 1028.3C405.408 1030.24 383.151 1027.61 364.467 1022.51C345.699 1017.37 330.507 1009.76 316.051 1000.6C301.555 991.299 287.799 980.448 270.987 965.518C256.198 950.583 239.093 934.652 223.781 915.665C208.426 896.823 194.866 874.927 186.228 851.379C177.509 827.883 173.71 802.731 175.992 778.515C178.15 754.253 186.389 730.925 198.891 710.048C211.435 689.182 228.247 670.767 246.01 654.785C263.758 638.71 282.456 625.071 298.467 611.652C314.614 598.191 328.073 584.952 338.547 568.678C349.311 552.408 357.087 533.103 368.566 507.591L368.559 507.586Z" stroke="url(#paint19_linear_192_11)" stroke-miterlimit="10"/>
<path d="M376.36 517.78C387.342 492.943 397.463 462.991 413.632 431.455C429.494 399.928 451.403 366.818 478.931 335.892C506.31 304.924 539.308 276.139 573.942 252.331C608.584 228.434 644.86 209.515 678.962 196.209C713.018 182.918 744.902 175.24 772.269 172.264C799.758 169.243 822.729 170.923 841.84 175.25C861.038 179.623 876.374 186.648 890.591 195.357C904.857 204.204 917.999 214.737 933.921 229.298C947.721 243.864 963.587 259.459 977.445 277.992C991.348 296.388 1003.24 317.719 1010.14 340.603C1017.12 363.441 1019.11 387.832 1015.15 411.304C1011.32 434.822 1001.54 457.42 987.818 477.717C974.051 498 956.344 515.983 938.118 531.789C919.902 547.684 901.17 561.405 885.527 575.2C869.738 589.034 857.034 602.942 847.473 620.131C837.609 637.312 830.884 657.775 820.082 684.532C809.282 710.114 798.947 740.762 782.322 772.826C766.005 804.883 743.397 838.356 715.134 869.472C687.021 900.631 653.248 929.436 617.98 953.152C582.7 976.958 545.922 995.676 511.509 1008.75C477.141 1021.81 445.137 1029.22 417.786 1031.96C390.309 1034.74 367.485 1032.86 348.503 1028.37C329.435 1023.84 314.207 1016.71 299.934 1007.9C285.618 998.956 272.255 988.336 255.918 973.593C241.71 958.845 225.237 943.027 210.743 924.172C196.204 905.46 183.645 883.711 176.236 860.354C168.743 837.048 166.398 812.133 170.301 788.179C174.074 764.179 184.089 741.139 198.342 720.535C212.642 699.943 231.179 681.787 250.41 665.997C269.632 650.116 289.545 636.607 306.323 623.21C323.246 609.77 337.036 596.445 347.414 579.948C358.101 563.455 365.375 543.792 376.36 517.778V517.78Z" stroke="url(#paint20_linear_192_11)" stroke-miterlimit="10"/>
<path d="M947.777 221.486C960.948 235.819 976.135 251.256 989.124 269.613C1002.16 287.839 1013 308.985 1018.63 331.651C1024.35 354.273 1024.86 378.415 1019.29 401.625C1013.83 424.884 1002.3 447.211 986.875 467.268C971.405 487.313 952.047 505.089 932.455 520.769C912.869 536.537 893.047 550.209 876.771 564.069C860.338 577.97 847.45 592.058 838.102 609.559C828.435 627.05 822.31 647.954 812.043 675.269C801.778 701.421 792.099 732.734 775.793 765.545C759.811 798.35 737.201 832.656 708.564 864.665C680.088 896.714 645.583 926.467 609.408 951.146C573.221 975.914 535.363 995.609 499.923 1009.62C464.53 1023.61 431.551 1031.92 403.462 1035.48C375.238 1039.08 351.9 1037.92 332.676 1034.04C313.361 1030.13 298.162 1023.49 284.119 1015.07C270.029 1006.52 257.093 996.177 241.227 981.672C227.602 967.161 211.728 951.506 198.007 932.817C184.236 914.268 172.618 892.689 166.385 869.529C160.061 846.417 159.123 821.721 164.609 798C169.961 774.23 181.74 751.433 197.746 731.047C213.799 710.673 234.082 692.712 254.808 677.052C275.523 661.303 296.681 647.856 314.242 634.425C331.959 620.952 346.08 607.493 356.355 590.738C366.953 573.991 373.704 553.946 384.175 527.429C394.644 502.075 404.074 471.504 419.854 439.25C435.312 407.006 457.121 373.077 484.913 341.258C512.547 309.398 546.168 279.648 581.626 254.851C617.088 229.965 654.382 210.036 689.484 195.758C724.539 181.493 757.399 172.879 785.535 169.063C813.799 165.197 837.339 166.128 856.74 169.833C876.235 173.582 891.593 180.108 905.599 188.433C919.659 196.893 932.369 207.156 947.775 221.484L947.777 221.486Z" stroke="url(#paint21_linear_192_11)" stroke-miterlimit="10"/>
<defs>
<linearGradient id="paint0_linear_192_11" x1="604.857" y1="163.066" x2="604.857" y2="1030.25" gradientUnits="userSpaceOnUse">
<stop stop-color="#8AC2FD"/>
<stop offset="1" stop-color="#41FFF2"/>
</linearGradient>
<linearGradient id="paint1_linear_192_11" x1="604.513" y1="170.079" x2="604.513" y2="1023.86" gradientUnits="userSpaceOnUse">
<stop stop-color="#8AC2FD"/>
<stop offset="1" stop-color="#41FFF2"/>
</linearGradient>
<linearGradient id="paint2_linear_192_11" x1="604.158" y1="176.531" x2="604.158" y2="1018.02" gradientUnits="userSpaceOnUse">
<stop stop-color="#8AC2FD"/>
<stop offset="1" stop-color="#41FFF2"/>
</linearGradient>
<linearGradient id="paint3_linear_192_11" x1="603.772" y1="182.329" x2="603.772" y2="1012.85" gradientUnits="userSpaceOnUse">
<stop stop-color="#8AC2FD"/>
<stop offset="1" stop-color="#41FFF2"/>
</linearGradient>
<linearGradient id="paint4_linear_192_11" x1="603.375" y1="187.364" x2="603.375" y2="1008.46" gradientUnits="userSpaceOnUse">
<stop stop-color="#8AC2FD"/>
<stop offset="1" stop-color="#41FFF2"/>
</linearGradient>
<linearGradient id="paint5_linear_192_11" x1="602.955" y1="191.579" x2="602.955" y2="1004.9" gradientUnits="userSpaceOnUse">
<stop stop-color="#8AC2FD"/>
<stop offset="1" stop-color="#41FFF2"/>
</linearGradient>
<linearGradient id="paint6_linear_192_11" x1="602.49" y1="194.924" x2="602.49" y2="1002.21" gradientUnits="userSpaceOnUse">
<stop stop-color="#8AC2FD"/>
<stop offset="1" stop-color="#41FFF2"/>
</linearGradient>
<linearGradient id="paint7_linear_192_11" x1="602.008" y1="197.367" x2="602.008" y2="1000.42" gradientUnits="userSpaceOnUse">
<stop stop-color="#8AC2FD"/>
<stop offset="1" stop-color="#41FFF2"/>
</linearGradient>
<linearGradient id="paint8_linear_192_11" x1="601.481" y1="198.913" x2="601.481" y2="999.531" gradientUnits="userSpaceOnUse">
<stop stop-color="#8AC2FD"/>
<stop offset="1" stop-color="#41FFF2"/>
</linearGradient>
<linearGradient id="paint9_linear_192_11" x1="600.926" y1="199.591" x2="600.926" y2="999.492" gradientUnits="userSpaceOnUse">
<stop stop-color="#8AC2FD"/>
<stop offset="1" stop-color="#41FFF2"/>
</linearGradient>
<linearGradient id="paint10_linear_192_11" x1="600.316" y1="199.477" x2="600.316" y2="1000.23" gradientUnits="userSpaceOnUse">
<stop stop-color="#8AC2FD"/>
<stop offset="1" stop-color="#41FFF2"/>
</linearGradient>
<linearGradient id="paint11_linear_192_11" x1="599.669" y1="198.635" x2="599.669" y2="1001.67" gradientUnits="userSpaceOnUse">
<stop stop-color="#8AC2FD"/>
<stop offset="1" stop-color="#41FFF2"/>
</linearGradient>
<linearGradient id="paint12_linear_192_11" x1="598.981" y1="197.129" x2="598.981" y2="1003.72" gradientUnits="userSpaceOnUse">
<stop stop-color="#8AC2FD"/>
<stop offset="1" stop-color="#41FFF2"/>
</linearGradient>
<linearGradient id="paint13_linear_192_11" x1="598.252" y1="195.047" x2="598.252" y2="1006.33" gradientUnits="userSpaceOnUse">
<stop stop-color="#8AC2FD"/>
<stop offset="1" stop-color="#41FFF2"/>
</linearGradient>
<linearGradient id="paint14_linear_192_11" x1="597.486" y1="192.468" x2="597.486" y2="1009.4" gradientUnits="userSpaceOnUse">
<stop stop-color="#8AC2FD"/>
<stop offset="1" stop-color="#41FFF2"/>
</linearGradient>
<linearGradient id="paint15_linear_192_11" x1="596.701" y1="189.474" x2="596.701" y2="1012.84" gradientUnits="userSpaceOnUse">
<stop stop-color="#8AC2FD"/>
<stop offset="1" stop-color="#41FFF2"/>
</linearGradient>
<linearGradient id="paint16_linear_192_11" x1="595.903" y1="186.15" x2="595.903" y2="1016.59" gradientUnits="userSpaceOnUse">
<stop stop-color="#8AC2FD"/>
<stop offset="1" stop-color="#41FFF2"/>
</linearGradient>
<linearGradient id="paint17_linear_192_11" x1="595.099" y1="182.558" x2="595.099" y2="1020.54" gradientUnits="userSpaceOnUse">
<stop stop-color="#8AC2FD"/>
<stop offset="1" stop-color="#41FFF2"/>
</linearGradient>
<linearGradient id="paint18_linear_192_11" x1="594.303" y1="178.763" x2="594.303" y2="1024.69" gradientUnits="userSpaceOnUse">
<stop stop-color="#8AC2FD"/>
<stop offset="1" stop-color="#41FFF2"/>
</linearGradient>
<linearGradient id="paint19_linear_192_11" x1="593.541" y1="174.805" x2="593.541" y2="1028.94" gradientUnits="userSpaceOnUse">
<stop stop-color="#8AC2FD"/>
<stop offset="1" stop-color="#41FFF2"/>
</linearGradient>
<linearGradient id="paint20_linear_192_11" x1="592.799" y1="170.731" x2="592.799" y2="1033.26" gradientUnits="userSpaceOnUse">
<stop stop-color="#8AC2FD"/>
<stop offset="1" stop-color="#41FFF2"/>
</linearGradient>
<linearGradient id="paint21_linear_192_11" x1="592.108" y1="166.573" x2="592.108" y2="1037.65" gradientUnits="userSpaceOnUse">
<stop stop-color="#8AC2FD"/>
<stop offset="1" stop-color="#41FFF2"/>
</linearGradient>
</defs>
</svg>
