<svg width="1326" height="1323" viewBox="0 0 1326 1323" fill="none" xmlns="http://www.w3.org/2000/svg">
<g clip-path="url(#clip0_195_13)">
<path d="M333.914 656.928C333.914 497.879 367.449 348.162 428.346 235.355C458.297 179.87 493.32 136.195 532.443 105.539C573.767 73.1584 617.862 56.7412 663.499 56.7412C709.136 56.7412 753.23 73.1584 794.554 105.539C833.677 136.195 868.7 179.87 898.652 235.355C959.548 348.162 993.083 497.879 993.083 656.928C993.083 815.977 959.548 965.694 898.652 1078.5C868.7 1133.99 833.677 1177.66 794.554 1208.32C753.23 1240.7 709.136 1257.11 663.499 1257.11C617.862 1257.11 573.767 1240.7 532.443 1208.32C493.32 1177.66 458.297 1133.99 428.346 1078.5C367.449 965.694 333.914 815.977 333.914 656.928Z" stroke="url(#paint0_linear_195_13)" stroke-width="1.0308" stroke-miterlimit="10"/>
<path d="M957.16 507.297C1029.37 649.008 1067.46 797.632 1064.41 925.792C1062.91 988.825 1051.54 1043.64 1030.59 1088.72C1008.47 1136.33 976.639 1170.97 935.977 1191.69C895.315 1212.41 848.572 1217.8 797.053 1207.71C748.275 1198.16 697.24 1175.15 645.367 1139.3C539.896 1066.44 442.045 948.263 369.838 806.552C297.63 664.841 259.542 516.217 262.586 388.058C264.084 325.024 275.461 270.21 296.403 225.133C318.524 177.52 350.359 142.875 391.021 122.156C431.682 101.437 478.426 96.0492 529.945 106.137C578.722 115.689 629.757 138.704 681.631 174.545C787.102 247.412 884.952 365.586 957.16 507.297Z" stroke="url(#paint1_linear_195_13)" stroke-width="1.0308" stroke-miterlimit="10"/>
<path d="M469.773 923.565C341.102 830.078 239.688 714.948 184.217 599.375C156.935 542.533 142.188 488.526 140.384 438.855C138.481 386.391 151.115 341.067 177.94 304.147C204.765 267.227 243.966 241.203 294.451 226.803C342.249 213.169 398.167 210.506 460.661 218.89C587.717 235.932 728.552 296.801 857.223 390.288C985.895 483.774 1087.31 598.904 1142.78 714.478C1170.06 771.319 1184.81 825.326 1186.61 874.997C1188.52 927.461 1175.88 972.786 1149.06 1009.71C1122.23 1046.63 1083.03 1072.65 1032.55 1087.05C984.747 1100.68 928.83 1103.35 866.336 1094.96C739.279 1077.92 598.444 1017.05 469.773 923.565Z" stroke="url(#paint2_linear_195_13)" stroke-width="1.0308" stroke-miterlimit="10"/>
<path d="M715.056 331.401C872.146 356.281 1014.77 412.824 1116.67 490.618C1166.78 528.878 1204.44 570.306 1228.6 613.741C1254.11 659.622 1263.43 705.743 1256.29 750.816C1249.15 795.89 1226.04 836.874 1187.59 872.626C1151.19 906.471 1102.58 934.234 1043.09 955.135C922.147 997.631 769.025 1007.33 611.938 982.454C454.848 957.574 312.223 901.031 210.328 823.237C160.214 784.977 122.555 743.549 98.3969 700.115C72.8812 654.234 63.5627 608.112 70.7027 563.039C77.8427 517.966 100.957 476.981 139.402 441.229C175.8 407.385 224.416 379.622 283.903 358.721C404.847 316.224 557.969 306.521 715.056 331.401Z" stroke="url(#paint3_linear_195_13)" stroke-width="1.0308" stroke-miterlimit="10"/>
<path d="M765.345 970.38C614.082 1019.53 461.328 1033.9 335.227 1010.84C273.204 999.504 220.842 979.688 179.6 951.953C136.035 922.658 106.795 885.793 92.6932 842.389C78.5919 798.986 80.5813 751.978 98.6032 702.668C115.67 655.986 146.384 609.181 189.894 563.551C278.364 470.776 410.389 392.617 561.652 343.468C712.915 294.32 865.67 279.95 991.771 303.006C1053.79 314.345 1106.16 334.16 1147.4 361.896C1190.96 391.191 1220.2 428.056 1234.3 471.459C1248.41 514.863 1246.42 561.871 1228.39 611.181C1211.33 657.862 1180.61 704.668 1137.1 750.298C1048.63 843.073 916.608 921.232 765.345 970.38Z" stroke="url(#paint4_linear_195_13)" stroke-width="1.0308" stroke-miterlimit="10"/>
<path d="M430.445 423.874C542.908 311.411 672.487 229.259 795.314 192.549C855.725 174.496 911.375 168.377 960.712 174.366C1012.83 180.692 1055.62 200.26 1087.89 232.531C1120.16 264.801 1139.73 307.59 1146.05 359.707C1152.04 409.048 1145.92 464.698 1127.87 525.106C1091.16 647.933 1009.01 777.511 896.545 889.975C784.081 1002.44 654.503 1084.59 531.676 1121.3C471.264 1139.35 415.615 1145.47 366.277 1139.48C314.16 1133.16 271.372 1113.59 239.101 1081.32C206.83 1049.05 187.262 1006.26 180.936 954.142C174.947 904.801 181.067 849.152 199.119 788.743C235.826 665.917 317.981 536.338 430.445 423.874Z" stroke="url(#paint5_linear_195_13)" stroke-width="1.0308" stroke-miterlimit="10"/>
<path d="M976.951 758.775C927.803 910.038 849.644 1042.06 756.869 1130.53C711.239 1174.05 664.433 1204.76 617.752 1221.82C568.442 1239.85 521.434 1241.84 478.03 1227.73C434.627 1213.63 397.765 1184.39 368.467 1140.83C340.731 1099.58 320.919 1047.22 309.577 985.2C286.522 859.095 300.894 706.345 350.039 555.082C399.188 403.819 477.347 271.794 570.122 183.324C615.752 139.81 662.557 109.096 709.239 92.0325C758.549 74.0072 805.557 72.0178 848.96 86.1225C892.364 100.224 929.225 129.464 958.524 173.029C986.26 214.275 1006.07 266.633 1017.41 328.656C1040.47 454.761 1026.1 607.512 976.951 758.775Z" stroke="url(#paint6_linear_195_13)" stroke-width="1.0308" stroke-miterlimit="10"/>
<path d="M337.972 708.485C313.092 551.395 322.795 398.276 365.292 277.332C386.193 217.848 413.956 169.229 447.8 132.831C483.552 94.3859 524.533 71.2719 569.61 64.1319C614.683 56.9919 660.805 66.3104 706.686 91.8261C750.124 115.985 791.548 153.643 829.808 203.757C907.599 305.648 964.145 448.277 989.025 605.367C1013.91 762.458 1004.2 915.576 961.706 1036.52C940.804 1096 913.041 1144.62 879.197 1181.02C843.445 1219.47 802.464 1242.58 757.387 1249.72C712.314 1256.86 666.192 1247.54 620.311 1222.03C576.874 1197.87 535.449 1160.21 497.189 1110.1C419.398 1008.2 362.852 865.576 337.972 708.485Z" stroke="url(#paint7_linear_195_13)" stroke-width="1.0308" stroke-miterlimit="10"/>
<path d="M930.136 463.203C1023.62 591.874 1084.49 732.709 1101.53 859.765C1109.91 922.256 1107.25 978.177 1093.62 1025.97C1079.22 1076.46 1053.2 1115.66 1016.28 1142.49C979.357 1169.31 934.032 1181.95 881.568 1180.04C831.897 1178.24 777.89 1163.49 721.048 1136.21C605.479 1080.74 490.345 979.328 396.858 850.653C303.372 721.982 242.503 581.147 225.46 454.09C217.08 391.6 219.743 335.679 233.373 287.881C247.774 237.396 273.795 198.194 310.718 171.369C347.638 144.545 392.962 131.91 445.426 133.814C495.097 135.618 549.104 150.365 605.946 177.647C721.516 233.118 836.649 334.528 930.136 463.203Z" stroke="url(#paint8_linear_195_13)" stroke-width="1.0308" stroke-miterlimit="10"/>
<path d="M513.871 950.589C372.16 878.382 253.986 780.531 181.119 675.06C145.281 623.183 122.267 572.152 112.711 523.374C102.623 471.851 108.011 425.111 128.73 384.45C149.449 343.788 184.094 311.954 231.707 289.833C276.784 268.89 331.598 257.514 394.632 256.016C522.791 252.971 671.415 291.059 813.126 363.267C954.837 435.474 1073.01 533.325 1145.88 638.796C1181.72 690.673 1204.73 741.704 1214.29 790.482C1224.37 842.005 1218.99 888.745 1198.27 929.406C1177.55 970.068 1142.9 1001.9 1095.29 1024.02C1050.21 1044.97 995.399 1056.34 932.366 1057.84C804.206 1060.88 655.582 1022.8 513.871 950.589Z" stroke="url(#paint9_linear_195_13)" stroke-width="1.0308" stroke-miterlimit="10"/>
<path d="M663.498 327.343C822.547 327.343 972.264 360.879 1085.07 421.775C1140.56 451.726 1184.23 486.75 1214.89 525.872C1247.27 567.197 1263.69 611.291 1263.69 656.928C1263.69 702.565 1247.27 746.659 1214.89 787.984C1184.23 827.106 1140.56 862.129 1085.07 892.081C972.264 952.977 822.547 986.512 663.498 986.512C504.449 986.512 354.732 952.977 241.925 892.081C186.441 862.129 142.766 827.106 112.11 787.984C79.7287 746.659 63.3115 702.565 63.3115 656.928C63.3115 611.291 79.7287 567.197 112.11 525.872C142.766 486.75 186.441 451.726 241.925 421.775C354.732 360.879 504.449 327.343 663.498 327.343Z" stroke="url(#paint10_linear_195_13)" stroke-width="1.0308" stroke-miterlimit="10"/>
<path d="M813.126 950.589C671.415 1022.8 522.791 1060.88 394.632 1057.84C331.598 1056.34 276.784 1044.97 231.707 1024.02C184.094 1001.9 149.449 970.068 128.73 929.406C108.011 888.745 102.623 842.001 112.711 790.482C122.264 741.704 145.278 690.67 181.119 638.796C253.986 533.325 372.16 435.474 513.871 363.267C655.582 291.059 804.206 252.971 932.366 256.016C995.399 257.514 1050.21 268.89 1095.29 289.833C1142.9 311.954 1177.55 343.788 1198.27 384.45C1218.99 425.111 1224.37 471.855 1214.29 523.374C1204.73 572.152 1181.72 623.187 1145.88 675.06C1073.01 780.531 954.837 878.382 813.126 950.589Z" stroke="url(#paint11_linear_195_13)" stroke-width="1.0308" stroke-miterlimit="10"/>
<path d="M396.858 463.203C490.345 334.531 605.475 233.118 721.048 177.647C777.89 150.365 831.897 135.618 881.567 133.814C934.032 131.91 979.356 144.545 1016.28 171.369C1053.2 198.194 1079.22 237.396 1093.62 287.881C1107.25 335.679 1109.92 391.596 1101.53 454.09C1084.49 581.147 1023.62 721.982 930.135 850.653C836.649 979.324 721.519 1080.74 605.945 1136.21C549.104 1163.49 495.097 1178.24 445.426 1180.04C392.961 1181.95 347.637 1169.31 310.717 1142.49C273.798 1115.66 247.773 1076.46 233.373 1025.97C219.739 978.177 217.076 922.259 225.46 859.765C242.502 732.709 303.371 591.874 396.858 463.203Z" stroke="url(#paint12_linear_195_13)" stroke-width="1.0308" stroke-miterlimit="10"/>
<path d="M989.025 708.485C964.145 865.576 907.602 1008.2 829.808 1110.1C791.548 1160.21 750.12 1197.87 706.686 1222.03C660.805 1247.54 614.683 1256.86 569.61 1249.72C524.536 1242.58 483.552 1219.47 447.8 1181.02C413.956 1144.62 386.193 1096.01 365.292 1036.52C322.795 915.576 313.092 762.454 337.972 605.367C362.852 448.277 419.395 305.652 497.189 203.757C535.449 153.643 576.877 115.985 620.311 91.8261C666.192 66.3104 712.314 56.9919 757.387 64.1319C802.461 71.2719 843.445 94.3859 879.197 132.831C913.041 169.229 940.804 217.845 961.706 277.332C1004.2 398.276 1013.91 551.398 989.025 708.485Z" stroke="url(#paint13_linear_195_13)" stroke-width="1.0308" stroke-miterlimit="10"/>
<path d="M350.046 758.774C300.897 607.511 286.528 454.757 309.584 328.656C320.922 266.633 340.738 214.271 368.473 173.029C397.769 129.464 434.633 100.224 478.037 86.1224C521.441 72.0211 568.449 74.0105 617.759 92.0324C664.44 109.099 711.245 139.813 756.875 183.323C849.651 271.794 927.809 403.818 976.958 555.081C1026.11 706.344 1040.48 859.099 1017.42 985.2C1006.08 1047.22 986.266 1099.58 958.531 1140.83C929.235 1184.39 892.371 1213.63 848.967 1227.73C805.563 1241.83 758.556 1239.85 709.245 1221.82C662.564 1204.76 615.759 1174.04 570.129 1130.53C477.353 1042.06 399.195 910.037 350.046 758.774Z" stroke="url(#paint14_linear_195_13)" stroke-width="1.0308" stroke-miterlimit="10"/>
<path d="M896.549 423.874C1009.01 536.338 1091.16 665.917 1127.87 788.743C1145.93 849.155 1152.05 904.805 1146.06 954.142C1139.73 1006.26 1120.16 1049.05 1087.89 1081.32C1055.62 1113.59 1012.83 1133.16 960.716 1139.48C911.375 1145.47 855.726 1139.35 795.318 1121.3C672.491 1084.59 542.912 1002.44 430.449 889.975C317.985 777.511 235.834 647.933 199.123 525.106C181.071 464.694 174.951 409.045 180.94 359.707C187.266 307.59 206.834 264.801 239.105 232.531C271.376 200.26 314.164 180.692 366.281 174.366C415.622 168.377 471.272 174.496 531.68 192.549C654.507 229.256 784.085 311.411 896.549 423.874Z" stroke="url(#paint15_linear_195_13)" stroke-width="1.0308" stroke-miterlimit="10"/>
<path d="M561.652 970.381C410.389 921.232 278.364 843.073 189.894 750.298C146.38 704.668 115.666 657.863 98.6028 611.181C80.5775 561.871 78.5881 514.863 92.6929 471.46C106.794 428.056 136.035 391.195 179.6 361.896C220.845 334.161 273.203 314.349 335.226 303.006C461.331 279.951 614.082 294.324 765.345 343.469C916.608 392.617 1048.63 470.776 1137.1 563.551C1180.62 609.181 1211.33 655.987 1228.39 702.668C1246.42 751.978 1248.41 798.986 1234.3 842.39C1220.2 885.793 1190.96 922.655 1147.4 951.953C1106.15 979.689 1053.79 999.501 991.77 1010.84C865.666 1033.9 712.915 1019.53 561.652 970.381Z" stroke="url(#paint16_linear_195_13)" stroke-width="1.0308" stroke-miterlimit="10"/>
<path d="M611.938 331.401C769.029 306.521 922.147 316.224 1043.09 358.721C1102.57 379.622 1151.19 407.385 1187.59 441.229C1226.04 476.981 1249.15 517.962 1256.29 563.039C1263.43 608.112 1254.11 654.234 1228.6 700.115C1204.44 743.553 1166.78 784.977 1116.67 823.237C1014.77 901.028 872.146 957.574 715.056 982.454C557.965 1007.33 404.847 997.631 283.903 955.135C224.419 934.234 175.8 906.471 139.402 872.626C100.957 836.874 77.8427 795.893 70.7027 750.816C63.5627 705.743 72.8812 659.622 98.3969 613.741C122.555 570.303 160.214 528.878 210.328 490.618C312.219 412.827 454.848 356.281 611.938 331.401Z" stroke="url(#paint17_linear_195_13)" stroke-width="1.0308" stroke-miterlimit="10"/>
<path d="M857.223 923.565C728.552 1017.05 587.717 1077.92 460.661 1094.96C398.17 1103.34 342.249 1100.68 294.451 1087.05C243.966 1072.65 204.765 1046.63 177.94 1009.71C151.115 972.786 138.481 927.461 140.384 874.997C142.188 825.326 156.935 771.319 184.217 714.478C239.688 598.908 341.098 483.774 469.773 390.288C598.444 296.801 739.279 235.932 866.336 218.89C928.826 210.509 984.747 213.172 1032.55 226.803C1083.03 241.203 1122.23 267.224 1149.06 304.147C1175.88 341.067 1188.52 386.391 1186.61 438.855C1184.81 488.526 1170.06 542.533 1142.78 599.375C1087.31 714.945 985.898 830.078 857.223 923.565Z" stroke="url(#paint18_linear_195_13)" stroke-width="1.0308" stroke-miterlimit="10"/>
<path d="M369.838 507.297C442.045 365.586 539.896 247.412 645.367 174.545C697.244 138.707 748.275 115.693 797.053 106.137C848.575 96.0492 895.315 101.437 935.977 122.156C976.639 142.875 1008.47 177.52 1030.59 225.133C1051.54 270.21 1062.91 325.024 1064.41 388.058C1067.46 516.217 1029.37 664.841 957.16 806.552C884.952 948.263 787.102 1066.44 681.631 1139.3C629.754 1175.14 578.722 1198.16 529.945 1207.71C478.422 1217.8 431.682 1212.41 391.021 1191.69C350.359 1170.97 318.524 1136.33 296.403 1088.72C275.461 1043.64 264.084 988.825 262.586 925.792C259.542 797.632 297.63 649.008 369.838 507.297Z" stroke="url(#paint19_linear_195_13)" stroke-width="1.0308" stroke-miterlimit="10"/>
<path d="M993.083 656.928C993.083 815.977 959.548 965.694 898.652 1078.5C868.7 1133.99 833.677 1177.66 794.554 1208.32C753.23 1240.7 709.136 1257.11 663.499 1257.11C617.862 1257.11 573.767 1240.7 532.443 1208.32C493.32 1177.66 458.297 1133.99 428.346 1078.5C367.449 965.694 333.914 815.977 333.914 656.928C333.914 497.879 367.449 348.162 428.346 235.355C458.297 179.87 493.32 136.195 532.443 105.539C573.767 73.1584 617.862 56.7412 663.499 56.7412C709.136 56.7412 753.23 73.1584 794.554 105.539C833.677 136.195 868.7 179.87 898.652 235.355C959.548 348.162 993.083 497.879 993.083 656.928Z" stroke="url(#paint20_linear_195_13)" stroke-width="1.0308" stroke-miterlimit="10"/>
<path d="M369.838 806.555C297.63 664.845 259.542 516.22 262.586 388.061C264.084 325.028 275.461 270.213 296.403 225.136C318.524 177.524 350.359 142.878 391.021 122.159C431.682 101.44 478.426 96.0526 529.945 106.141C578.722 115.693 629.757 138.707 681.631 174.548C787.102 247.415 884.952 365.59 957.16 507.301C1029.37 649.011 1067.46 797.636 1064.41 925.795C1062.91 988.828 1051.54 1043.64 1030.59 1088.72C1008.47 1136.33 976.639 1170.98 935.977 1191.7C895.315 1212.42 848.572 1217.8 797.053 1207.72C748.275 1198.16 697.24 1175.15 645.367 1139.31C539.896 1066.44 442.045 948.266 369.838 806.555Z" stroke="url(#paint21_linear_195_13)" stroke-width="1.0308" stroke-miterlimit="10"/>
<path d="M857.223 390.288C985.895 483.774 1087.31 598.904 1142.78 714.478C1170.06 771.319 1184.81 825.326 1186.61 874.997C1188.52 927.461 1175.88 972.786 1149.06 1009.71C1122.23 1046.63 1083.03 1072.65 1032.55 1087.05C984.747 1100.68 928.83 1103.35 866.336 1094.96C739.279 1077.92 598.444 1017.05 469.773 923.565C341.102 830.078 239.688 714.948 184.217 599.375C156.935 542.533 142.188 488.526 140.384 438.855C138.481 386.391 151.115 341.067 177.94 304.147C204.765 267.227 243.966 241.203 294.451 226.803C342.249 213.169 398.167 210.506 460.661 218.89C587.717 235.932 728.552 296.801 857.223 390.288Z" stroke="url(#paint22_linear_195_13)" stroke-width="1.0308" stroke-miterlimit="10"/>
<path d="M611.938 982.454C454.848 957.574 312.223 901.031 210.328 823.237C160.214 784.977 122.555 743.549 98.3969 700.115C72.8812 654.234 63.5627 608.112 70.7027 563.039C77.8427 517.966 100.957 476.981 139.402 441.229C175.8 407.385 224.416 379.622 283.903 358.721C404.847 316.224 557.969 306.521 715.056 331.401C872.146 356.281 1014.77 412.824 1116.67 490.618C1166.78 528.878 1204.44 570.306 1228.6 613.741C1254.11 659.622 1263.43 705.743 1256.29 750.816C1249.15 795.89 1226.04 836.874 1187.59 872.626C1151.19 906.471 1102.58 934.234 1043.09 955.135C922.147 997.631 769.025 1007.33 611.938 982.454Z" stroke="url(#paint23_linear_195_13)" stroke-width="1.0308" stroke-miterlimit="10"/>
<path d="M561.652 343.472C712.915 294.323 865.67 279.954 991.771 303.009C1053.79 314.348 1106.16 334.164 1147.4 361.899C1190.96 391.194 1220.2 428.059 1234.3 471.463C1248.41 514.866 1246.42 561.874 1228.39 611.184C1211.33 657.866 1180.61 704.671 1137.1 750.301C1048.63 843.077 916.608 921.235 765.345 970.384C614.082 1019.53 461.328 1033.9 335.227 1010.85C273.204 999.507 220.842 979.692 179.6 951.956C136.035 922.661 106.795 885.796 92.6932 842.393C78.5919 798.989 80.5813 751.981 98.6032 702.671C115.67 655.99 146.384 609.185 189.894 563.554C278.364 470.779 410.389 392.62 561.652 343.472Z" stroke="url(#paint24_linear_195_13)" stroke-width="1.0308" stroke-miterlimit="10"/>
<path d="M896.549 889.978C784.085 1002.44 654.507 1084.59 531.68 1121.3C471.268 1139.36 415.619 1145.48 366.281 1139.49C314.164 1133.16 271.376 1113.59 239.105 1081.32C206.834 1049.05 187.266 1006.26 180.94 954.145C174.951 904.805 181.071 849.155 199.123 788.747C235.83 665.92 317.985 536.342 430.449 423.878C542.912 311.414 672.491 229.263 795.318 192.553C855.729 174.5 911.379 168.38 960.716 174.369C1012.83 180.695 1055.62 200.263 1087.89 232.534C1120.16 264.805 1139.73 307.593 1146.06 359.711C1152.05 409.052 1145.93 464.701 1127.87 525.109C1091.17 647.936 1009.01 777.514 896.549 889.978Z" stroke="url(#paint25_linear_195_13)" stroke-width="1.0308" stroke-miterlimit="10"/>
<path d="M350.046 555.078C399.195 403.815 477.354 271.79 570.129 183.32C615.759 139.807 662.564 109.092 709.246 92.029C758.556 74.0038 805.564 72.0144 848.967 86.1191C892.371 100.22 929.232 129.461 958.531 173.026C986.266 214.272 1006.08 266.629 1017.42 328.653C1040.48 454.757 1026.1 607.508 976.958 758.771C927.81 910.034 849.651 1042.06 756.876 1130.53C711.245 1174.04 664.44 1204.76 617.759 1221.82C568.449 1239.85 521.441 1241.83 478.037 1227.73C434.634 1213.63 397.772 1184.39 368.474 1140.82C340.738 1099.58 320.926 1047.22 309.584 985.197C286.528 859.092 300.901 706.341 350.046 555.078Z" stroke="url(#paint26_linear_195_13)" stroke-width="1.0308" stroke-miterlimit="10"/>
<path d="M989.025 605.367C1013.91 762.458 1004.2 915.576 961.706 1036.52C940.804 1096 913.041 1144.62 879.197 1181.02C843.445 1219.47 802.464 1242.58 757.387 1249.72C712.314 1256.86 666.192 1247.54 620.311 1222.03C576.874 1197.87 535.449 1160.21 497.189 1110.1C419.398 1008.2 362.852 865.576 337.972 708.485C313.092 551.395 322.795 398.276 365.292 277.332C386.193 217.848 413.956 169.229 447.8 132.831C483.552 94.3859 524.533 71.2719 569.61 64.1319C614.683 56.9919 660.805 66.3104 706.686 91.8261C750.124 115.985 791.548 153.643 829.808 203.757C907.599 305.648 964.145 448.277 989.025 605.367Z" stroke="url(#paint27_linear_195_13)" stroke-width="1.0308" stroke-miterlimit="10"/>
<path d="M396.858 850.653C303.372 721.982 242.503 581.147 225.46 454.09C217.08 391.6 219.743 335.679 233.373 287.881C247.774 237.396 273.795 198.194 310.718 171.369C347.638 144.545 392.962 131.91 445.426 133.814C495.097 135.618 549.104 150.365 605.946 177.647C721.516 233.118 836.649 334.528 930.136 463.203C1023.62 591.874 1084.49 732.709 1101.53 859.765C1109.91 922.256 1107.25 978.177 1093.62 1025.97C1079.22 1076.46 1053.2 1115.66 1016.28 1142.49C979.357 1169.31 934.032 1181.95 881.568 1180.04C831.897 1178.24 777.89 1163.49 721.048 1136.21C605.479 1080.74 490.345 979.328 396.858 850.653Z" stroke="url(#paint28_linear_195_13)" stroke-width="1.0308" stroke-miterlimit="10"/>
<path d="M813.126 363.263C954.837 435.471 1073.01 533.321 1145.88 638.793C1181.72 690.67 1204.73 741.701 1214.29 790.478C1224.37 842.001 1218.99 888.741 1198.27 929.403C1177.55 970.064 1142.9 1001.9 1095.29 1024.02C1050.21 1044.96 995.399 1056.34 932.366 1057.84C804.206 1060.88 655.582 1022.79 513.871 950.586C372.16 878.378 253.986 780.528 181.119 675.056C145.281 623.18 122.267 572.148 112.711 523.371C102.623 471.848 108.011 425.108 128.73 384.446C149.449 343.785 184.094 311.95 231.707 289.829C276.784 268.887 331.598 257.51 394.632 256.012C522.791 252.968 671.415 291.056 813.126 363.263Z" stroke="url(#paint29_linear_195_13)" stroke-width="1.0308" stroke-miterlimit="10"/>
<path d="M663.498 986.512C504.449 986.512 354.732 952.977 241.925 892.081C186.441 862.129 142.766 827.106 112.11 787.984C79.7287 746.659 63.3115 702.565 63.3115 656.928C63.3115 611.291 79.7287 567.197 112.11 525.872C142.766 486.75 186.441 451.726 241.925 421.775C354.732 360.879 504.449 327.343 663.498 327.343C822.547 327.343 972.264 360.879 1085.07 421.775C1140.56 451.726 1184.23 486.75 1214.89 525.872C1247.27 567.197 1263.69 611.291 1263.69 656.928C1263.69 702.565 1247.27 746.659 1214.89 787.984C1184.23 827.106 1140.56 862.129 1085.07 892.081C972.264 952.977 822.547 986.512 663.498 986.512Z" stroke="url(#paint30_linear_195_13)" stroke-width="1.0308" stroke-miterlimit="10"/>
</g>
<defs>
<linearGradient id="paint0_linear_195_13" x1="663.499" y1="56.7412" x2="663.499" y2="1257.11" gradientUnits="userSpaceOnUse">
<stop stop-color="#8AC2FD"/>
<stop offset="1" stop-color="#41FFF2"/>
</linearGradient>
<linearGradient id="paint1_linear_195_13" x1="663.499" y1="101.2" x2="663.499" y2="1212.65" gradientUnits="userSpaceOnUse">
<stop stop-color="#8AC2FD"/>
<stop offset="1" stop-color="#41FFF2"/>
</linearGradient>
<linearGradient id="paint2_linear_195_13" x1="663.498" y1="214.113" x2="663.498" y2="1099.74" gradientUnits="userSpaceOnUse">
<stop stop-color="#8AC2FD"/>
<stop offset="1" stop-color="#41FFF2"/>
</linearGradient>
<linearGradient id="paint3_linear_195_13" x1="663.497" y1="317.892" x2="663.497" y2="995.963" gradientUnits="userSpaceOnUse">
<stop stop-color="#8AC2FD"/>
<stop offset="1" stop-color="#41FFF2"/>
</linearGradient>
<linearGradient id="paint4_linear_195_13" x1="663.499" y1="292.275" x2="663.499" y2="1021.57" gradientUnits="userSpaceOnUse">
<stop stop-color="#8AC2FD"/>
<stop offset="1" stop-color="#41FFF2"/>
</linearGradient>
<linearGradient id="paint5_linear_195_13" x1="663.495" y1="172.142" x2="663.495" y2="1141.71" gradientUnits="userSpaceOnUse">
<stop stop-color="#8AC2FD"/>
<stop offset="1" stop-color="#41FFF2"/>
</linearGradient>
<linearGradient id="paint6_linear_195_13" x1="663.495" y1="76.8467" x2="663.495" y2="1237.01" gradientUnits="userSpaceOnUse">
<stop stop-color="#8AC2FD"/>
<stop offset="1" stop-color="#41FFF2"/>
</linearGradient>
<linearGradient id="paint7_linear_195_13" x1="663.499" y1="61.8062" x2="663.499" y2="1252.05" gradientUnits="userSpaceOnUse">
<stop stop-color="#8AC2FD"/>
<stop offset="1" stop-color="#41FFF2"/>
</linearGradient>
<linearGradient id="paint8_linear_195_13" x1="663.497" y1="133.627" x2="663.497" y2="1180.23" gradientUnits="userSpaceOnUse">
<stop stop-color="#8AC2FD"/>
<stop offset="1" stop-color="#41FFF2"/>
</linearGradient>
<linearGradient id="paint9_linear_195_13" x1="663.499" y1="255.846" x2="663.499" y2="1058.01" gradientUnits="userSpaceOnUse">
<stop stop-color="#8AC2FD"/>
<stop offset="1" stop-color="#41FFF2"/>
</linearGradient>
<linearGradient id="paint10_linear_195_13" x1="663.498" y1="327.343" x2="663.498" y2="986.512" gradientUnits="userSpaceOnUse">
<stop stop-color="#8AC2FD"/>
<stop offset="1" stop-color="#41FFF2"/>
</linearGradient>
<linearGradient id="paint11_linear_195_13" x1="663.499" y1="255.846" x2="663.499" y2="1058.01" gradientUnits="userSpaceOnUse">
<stop stop-color="#8AC2FD"/>
<stop offset="1" stop-color="#41FFF2"/>
</linearGradient>
<linearGradient id="paint12_linear_195_13" x1="663.497" y1="133.627" x2="663.497" y2="1180.23" gradientUnits="userSpaceOnUse">
<stop stop-color="#8AC2FD"/>
<stop offset="1" stop-color="#41FFF2"/>
</linearGradient>
<linearGradient id="paint13_linear_195_13" x1="663.499" y1="61.8062" x2="663.499" y2="1252.05" gradientUnits="userSpaceOnUse">
<stop stop-color="#8AC2FD"/>
<stop offset="1" stop-color="#41FFF2"/>
</linearGradient>
<linearGradient id="paint14_linear_195_13" x1="663.502" y1="76.8491" x2="663.502" y2="1237.01" gradientUnits="userSpaceOnUse">
<stop stop-color="#8AC2FD"/>
<stop offset="1" stop-color="#41FFF2"/>
</linearGradient>
<linearGradient id="paint15_linear_195_13" x1="663.499" y1="172.142" x2="663.499" y2="1141.71" gradientUnits="userSpaceOnUse">
<stop stop-color="#8AC2FD"/>
<stop offset="1" stop-color="#41FFF2"/>
</linearGradient>
<linearGradient id="paint16_linear_195_13" x1="663.498" y1="292.276" x2="663.498" y2="1021.57" gradientUnits="userSpaceOnUse">
<stop stop-color="#8AC2FD"/>
<stop offset="1" stop-color="#41FFF2"/>
</linearGradient>
<linearGradient id="paint17_linear_195_13" x1="663.497" y1="317.892" x2="663.497" y2="995.963" gradientUnits="userSpaceOnUse">
<stop stop-color="#8AC2FD"/>
<stop offset="1" stop-color="#41FFF2"/>
</linearGradient>
<linearGradient id="paint18_linear_195_13" x1="663.498" y1="214.116" x2="663.498" y2="1099.74" gradientUnits="userSpaceOnUse">
<stop stop-color="#8AC2FD"/>
<stop offset="1" stop-color="#41FFF2"/>
</linearGradient>
<linearGradient id="paint19_linear_195_13" x1="663.499" y1="101.2" x2="663.499" y2="1212.65" gradientUnits="userSpaceOnUse">
<stop stop-color="#8AC2FD"/>
<stop offset="1" stop-color="#41FFF2"/>
</linearGradient>
<linearGradient id="paint20_linear_195_13" x1="663.499" y1="56.7412" x2="663.499" y2="1257.11" gradientUnits="userSpaceOnUse">
<stop stop-color="#8AC2FD"/>
<stop offset="1" stop-color="#41FFF2"/>
</linearGradient>
<linearGradient id="paint21_linear_195_13" x1="663.499" y1="101.204" x2="663.499" y2="1212.65" gradientUnits="userSpaceOnUse">
<stop stop-color="#8AC2FD"/>
<stop offset="1" stop-color="#41FFF2"/>
</linearGradient>
<linearGradient id="paint22_linear_195_13" x1="663.498" y1="214.113" x2="663.498" y2="1099.74" gradientUnits="userSpaceOnUse">
<stop stop-color="#8AC2FD"/>
<stop offset="1" stop-color="#41FFF2"/>
</linearGradient>
<linearGradient id="paint23_linear_195_13" x1="663.497" y1="317.892" x2="663.497" y2="995.963" gradientUnits="userSpaceOnUse">
<stop stop-color="#8AC2FD"/>
<stop offset="1" stop-color="#41FFF2"/>
</linearGradient>
<linearGradient id="paint24_linear_195_13" x1="663.499" y1="292.278" x2="663.499" y2="1021.58" gradientUnits="userSpaceOnUse">
<stop stop-color="#8AC2FD"/>
<stop offset="1" stop-color="#41FFF2"/>
</linearGradient>
<linearGradient id="paint25_linear_195_13" x1="663.499" y1="172.145" x2="663.499" y2="1141.71" gradientUnits="userSpaceOnUse">
<stop stop-color="#8AC2FD"/>
<stop offset="1" stop-color="#41FFF2"/>
</linearGradient>
<linearGradient id="paint26_linear_195_13" x1="663.502" y1="76.8433" x2="663.502" y2="1237.01" gradientUnits="userSpaceOnUse">
<stop stop-color="#8AC2FD"/>
<stop offset="1" stop-color="#41FFF2"/>
</linearGradient>
<linearGradient id="paint27_linear_195_13" x1="663.499" y1="61.8062" x2="663.499" y2="1252.05" gradientUnits="userSpaceOnUse">
<stop stop-color="#8AC2FD"/>
<stop offset="1" stop-color="#41FFF2"/>
</linearGradient>
<linearGradient id="paint28_linear_195_13" x1="663.497" y1="133.627" x2="663.497" y2="1180.23" gradientUnits="userSpaceOnUse">
<stop stop-color="#8AC2FD"/>
<stop offset="1" stop-color="#41FFF2"/>
</linearGradient>
<linearGradient id="paint29_linear_195_13" x1="663.499" y1="255.843" x2="663.499" y2="1058.01" gradientUnits="userSpaceOnUse">
<stop stop-color="#8AC2FD"/>
<stop offset="1" stop-color="#41FFF2"/>
</linearGradient>
<linearGradient id="paint30_linear_195_13" x1="663.498" y1="327.343" x2="663.498" y2="986.512" gradientUnits="userSpaceOnUse">
<stop stop-color="#8AC2FD"/>
<stop offset="1" stop-color="#41FFF2"/>
</linearGradient>
<clipPath id="clip0_195_13">
<rect width="1326" height="1323" fill="white"/>
</clipPath>
</defs>
</svg>
