<svg width="852" height="187" viewBox="0 0 852 187" fill="none" xmlns="http://www.w3.org/2000/svg">
<path d="M226.3 154V31.5H244.325V79.975H247.125C248.292 77.7583 249.925 75.6 252.025 73.5C254.242 71.4 257.1 69.7083 260.6 68.425C264.217 67.025 268.767 66.325 274.25 66.325C280.783 66.325 286.558 67.7833 291.575 70.7C296.708 73.6167 300.733 77.7583 303.65 83.125C306.567 88.375 308.025 94.7333 308.025 102.2V154H290V103.6C290 96.1333 288.133 90.65 284.4 87.15C280.667 83.5333 275.533 81.725 269 81.725C261.533 81.725 255.525 84.175 250.975 89.075C246.542 93.975 244.325 101.092 244.325 110.425V154H226.3ZM364.741 156.45C358.558 156.45 353.016 155.4 348.116 153.3C343.333 151.2 339.483 148.108 336.566 144.025C333.766 139.942 332.366 134.983 332.366 129.15C332.366 123.2 333.766 118.3 336.566 114.45C339.483 110.483 343.391 107.508 348.291 105.525C353.308 103.542 358.966 102.55 365.266 102.55H391.516V96.95C391.516 91.9333 389.999 87.9083 386.966 84.875C383.933 81.8417 379.266 80.325 372.966 80.325C366.783 80.325 362.058 81.7833 358.791 84.7C355.524 87.6167 353.366 91.4083 352.316 96.075L335.516 90.65C336.916 85.9833 339.133 81.7833 342.166 78.05C345.316 74.2 349.458 71.1083 354.591 68.775C359.724 66.4417 365.908 65.275 373.141 65.275C384.341 65.275 393.149 68.1333 399.566 73.85C405.983 79.5667 409.191 87.675 409.191 98.175V133.7C409.191 137.2 410.824 138.95 414.091 138.95H421.441V154H407.966C403.883 154 400.558 152.95 397.991 150.85C395.424 148.75 394.141 145.892 394.141 142.275V141.75H391.516C390.583 143.5 389.183 145.542 387.316 147.875C385.449 150.208 382.708 152.25 379.091 154C375.474 155.633 370.691 156.45 364.741 156.45ZM367.366 141.575C374.599 141.575 380.433 139.533 384.866 135.45C389.299 131.25 391.516 125.533 391.516 118.3V116.55H366.316C361.533 116.55 357.683 117.6 354.766 119.7C351.849 121.683 350.391 124.658 350.391 128.625C350.391 132.592 351.908 135.742 354.941 138.075C357.974 140.408 362.116 141.575 367.366 141.575ZM442.967 154V67.725H460.642V77.875H463.442C464.842 74.2583 467.059 71.6333 470.092 70C473.242 68.25 477.092 67.375 481.642 67.375H491.967V83.65H480.942C475.109 83.65 470.325 85.2833 466.592 88.55C462.859 91.7 460.992 96.6 460.992 103.25V154H442.967ZM564.518 156.45C556.118 156.45 549.643 154.933 545.093 151.9C540.659 148.867 537.334 145.483 535.118 141.75H532.318V154H514.643V31.5H532.668V79.45H535.468C536.868 77.1167 538.734 74.9 541.068 72.8C543.401 70.5833 546.493 68.775 550.343 67.375C554.193 65.975 558.918 65.275 564.518 65.275C571.751 65.275 578.401 67.025 584.468 70.525C590.534 74.025 595.376 79.1 598.993 85.75C602.609 92.4 604.418 100.333 604.418 109.55V112.175C604.418 121.508 602.551 129.5 598.818 136.15C595.201 142.683 590.359 147.7 584.293 151.2C578.343 154.7 571.751 156.45 564.518 156.45ZM559.268 140.7C567.084 140.7 573.501 138.192 578.518 133.175C583.651 128.158 586.218 120.983 586.218 111.65V110.075C586.218 100.858 583.709 93.7417 578.693 88.725C573.676 83.7083 567.201 81.2 559.268 81.2C551.568 81.2 545.151 83.7083 540.018 88.725C535.001 93.7417 532.493 100.858 532.493 110.075V111.65C532.493 120.983 535.001 128.158 540.018 133.175C545.151 138.192 551.568 140.7 559.268 140.7ZM671.177 156.45C662.544 156.45 654.844 154.7 648.077 151.2C641.427 147.583 636.177 142.45 632.327 135.8C628.477 129.15 626.552 121.275 626.552 112.175V109.55C626.552 100.45 628.477 92.6333 632.327 86.1C636.177 79.45 641.427 74.3167 648.077 70.7C654.844 67.0833 662.544 65.275 671.177 65.275C679.81 65.275 687.51 67.0833 694.277 70.7C701.044 74.3167 706.352 79.45 710.202 86.1C714.052 92.6333 715.977 100.45 715.977 109.55V112.175C715.977 121.275 714.052 129.15 710.202 135.8C706.352 142.45 701.044 147.583 694.277 151.2C687.51 154.7 679.81 156.45 671.177 156.45ZM671.177 140.35C679.11 140.35 685.527 137.842 690.427 132.825C695.444 127.692 697.952 120.633 697.952 111.65V110.075C697.952 101.092 695.502 94.0917 690.602 89.075C685.702 83.9417 679.227 81.375 671.177 81.375C663.36 81.375 656.944 83.9417 651.927 89.075C647.027 94.0917 644.577 101.092 644.577 110.075V111.65C644.577 120.633 647.027 127.692 651.927 132.825C656.944 137.842 663.36 140.35 671.177 140.35ZM742.418 154V67.725H760.093V77.875H762.893C764.293 74.2583 766.51 71.6333 769.543 70C772.693 68.25 776.543 67.375 781.093 67.375H791.418V83.65H780.393C774.56 83.65 769.776 85.2833 766.043 88.55C762.31 91.7 760.443 96.6 760.443 103.25V154H742.418Z" fill="#111111"/>
<g clip-path="url(#clip0_622_8)">
<path d="M110.5 93.5H141.25L172 124.25V155H141.25L110.5 124.25V93.5Z" fill="#111111"/>
<path d="M49 32H79.75L110.5 62.75V93.5H79.75L49 62.75V32Z" fill="#111111"/>
<path d="M110.5 32H141.25L172 62.75V93.5H141.25L110.5 62.75V32Z" fill="#111111"/>
<path d="M49 93.5H79.75L110.5 124.25V155H79.75L49 124.25V93.5Z" fill="#111111"/>
</g>
<defs>
<clipPath id="clip0_622_8">
<rect width="123" height="123" fill="white" transform="translate(49 32)"/>
</clipPath>
</defs>
</svg>
