<svg width="436" height="96" viewBox="0 0 436 96" fill="none" xmlns="http://www.w3.org/2000/svg">
<g clip-path="url(#clip0_81_10)">
<rect width="436" height="96" fill="white"/>
<circle cx="48.441" cy="48.441" r="33.441" stroke="white" stroke-width="6"/>
<circle cx="48.441" cy="57.16" r="24.722" stroke="white" stroke-width="6"/>
<circle cx="48.5528" cy="66.4377" r="15.4441" stroke="white" stroke-width="6"/>
<mask id="path-4-outside-1_81_10" maskUnits="userSpaceOnUse" x="131" y="15" width="291" height="66" fill="black">
<rect fill="white" x="131" y="15" width="291" height="66"/>
<path d="M132.003 79V15.3349H144.008V41.6195H167.655V15.3349H179.661V79H167.655V52.5335H144.008V79H132.003ZM206.059 80.2733C202.845 80.2733 199.965 79.7276 197.419 78.6362C194.872 77.4842 192.841 75.8471 191.325 73.7249C189.87 71.5421 189.142 68.9045 189.142 65.8122C189.142 62.7199 189.87 60.143 191.325 58.0815C192.841 55.9593 194.902 54.3828 197.51 53.3521C200.177 52.2607 203.209 51.715 206.605 51.715H218.974V49.1684C218.974 47.0462 218.307 45.3181 216.973 43.9842C215.639 42.5896 213.517 41.8923 210.606 41.8923C207.757 41.8923 205.634 42.5593 204.24 43.8933C202.845 45.1666 201.936 46.834 201.511 48.8955L190.961 45.3485C191.689 43.0444 192.841 40.9525 194.417 39.0729C196.054 37.1326 198.207 35.5865 200.875 34.4344C203.603 33.2218 206.908 32.6154 210.788 32.6154C216.73 32.6154 221.429 34.101 224.886 37.072C228.342 40.043 230.07 44.348 230.07 49.9869V66.8127C230.07 68.6317 230.919 69.5412 232.616 69.5412H236.254V79H228.614C226.371 79 224.522 78.4543 223.067 77.3629C221.611 76.2715 220.884 74.8163 220.884 72.9973V72.9063H219.156C218.913 73.6339 218.367 74.6041 217.519 75.8167C216.67 76.9688 215.336 77.9995 213.517 78.909C211.698 79.8186 209.212 80.2733 206.059 80.2733ZM208.06 70.9964C211.273 70.9964 213.881 70.1172 215.881 68.3588C217.943 66.5398 218.974 64.1448 218.974 61.1738V60.2643H207.423C205.301 60.2643 203.634 60.719 202.421 61.6285C201.208 62.538 200.602 63.8113 200.602 65.4484C200.602 67.0855 201.238 68.4195 202.512 69.4502C203.785 70.481 205.634 70.9964 208.06 70.9964ZM244.633 79V33.8887H255.911V38.9819H257.548C258.215 37.1629 259.306 35.829 260.822 34.9801C262.399 34.1313 264.218 33.7068 266.279 33.7068H271.736V43.8933H266.097C263.187 43.8933 260.792 44.6815 258.912 46.258C257.033 47.7738 256.093 50.1385 256.093 53.3521V79H244.633ZM307.797 80.2733C303.734 80.2733 300.611 79.576 298.429 78.1814C296.246 76.7869 294.639 75.2407 293.608 73.543H291.971V79H280.693V15.3349H292.153V39.0729H293.79C294.457 37.9815 295.336 36.9507 296.428 35.9806C297.58 35.0105 299.065 34.2222 300.884 33.6159C302.764 32.9489 305.068 32.6154 307.797 32.6154C311.435 32.6154 314.8 33.5249 317.892 35.3439C320.984 37.1023 323.47 39.7095 325.35 43.1656C327.23 46.6218 328.169 50.8055 328.169 55.7168V57.172C328.169 62.0833 327.23 66.267 325.35 69.7231C323.47 73.1792 320.984 75.8167 317.892 77.6357C314.8 79.3941 311.435 80.2733 307.797 80.2733ZM304.34 70.2688C307.857 70.2688 310.798 69.1471 313.163 66.9036C315.527 64.5996 316.71 61.2647 316.71 56.8991V55.9896C316.71 51.624 315.527 48.3195 313.163 46.0761C310.859 43.772 307.918 42.6199 304.34 42.6199C300.824 42.6199 297.883 43.772 295.518 46.0761C293.154 48.3195 291.971 51.624 291.971 55.9896V56.8991C291.971 61.2647 293.154 64.5996 295.518 66.9036C297.883 69.1471 300.824 70.2688 304.34 70.2688ZM360.156 80.2733C355.669 80.2733 351.637 79.3638 348.06 77.5448C344.482 75.7258 341.663 73.0882 339.601 69.6321C337.54 66.176 336.509 62.0226 336.509 57.172V55.7168C336.509 50.8661 337.54 46.7127 339.601 43.2566C341.663 39.8005 344.482 37.1629 348.06 35.3439C351.637 33.5249 355.669 32.6154 360.156 32.6154C364.643 32.6154 368.675 33.5249 372.252 35.3439C375.83 37.1629 378.649 39.8005 380.711 43.2566C382.772 46.7127 383.803 50.8661 383.803 55.7168V57.172C383.803 62.0226 382.772 66.176 380.711 69.6321C378.649 73.0882 375.83 75.7258 372.252 77.5448C368.675 79.3638 364.643 80.2733 360.156 80.2733ZM360.156 70.0869C363.673 70.0869 366.583 68.9652 368.887 66.7217C371.191 64.4177 372.343 61.1435 372.343 56.8991V55.9896C372.343 51.7453 371.191 48.5014 368.887 46.258C366.644 43.9539 363.733 42.8018 360.156 42.8018C356.639 42.8018 353.729 43.9539 351.425 46.258C349.121 48.5014 347.969 51.7453 347.969 55.9896V56.8991C347.969 61.1435 349.121 64.4177 351.425 66.7217C353.729 68.9652 356.639 70.0869 360.156 70.0869ZM394.381 79V33.8887H405.659V38.9819H407.296C407.963 37.1629 409.054 35.829 410.57 34.9801C412.147 34.1313 413.966 33.7068 416.027 33.7068H421.484V43.8933H415.845C412.935 43.8933 410.54 44.6815 408.66 46.258C406.781 47.7738 405.841 50.1385 405.841 53.3521V79H394.381Z"/>
</mask>
<path d="M132.003 79V15.3349H144.008V41.6195H167.655V15.3349H179.661V79H167.655V52.5335H144.008V79H132.003ZM206.059 80.2733C202.845 80.2733 199.965 79.7276 197.419 78.6362C194.872 77.4842 192.841 75.8471 191.325 73.7249C189.87 71.5421 189.142 68.9045 189.142 65.8122C189.142 62.7199 189.87 60.143 191.325 58.0815C192.841 55.9593 194.902 54.3828 197.51 53.3521C200.177 52.2607 203.209 51.715 206.605 51.715H218.974V49.1684C218.974 47.0462 218.307 45.3181 216.973 43.9842C215.639 42.5896 213.517 41.8923 210.606 41.8923C207.757 41.8923 205.634 42.5593 204.24 43.8933C202.845 45.1666 201.936 46.834 201.511 48.8955L190.961 45.3485C191.689 43.0444 192.841 40.9525 194.417 39.0729C196.054 37.1326 198.207 35.5865 200.875 34.4344C203.603 33.2218 206.908 32.6154 210.788 32.6154C216.73 32.6154 221.429 34.101 224.886 37.072C228.342 40.043 230.07 44.348 230.07 49.9869V66.8127C230.07 68.6317 230.919 69.5412 232.616 69.5412H236.254V79H228.614C226.371 79 224.522 78.4543 223.067 77.3629C221.611 76.2715 220.884 74.8163 220.884 72.9973V72.9063H219.156C218.913 73.6339 218.367 74.6041 217.519 75.8167C216.67 76.9688 215.336 77.9995 213.517 78.909C211.698 79.8186 209.212 80.2733 206.059 80.2733ZM208.06 70.9964C211.273 70.9964 213.881 70.1172 215.881 68.3588C217.943 66.5398 218.974 64.1448 218.974 61.1738V60.2643H207.423C205.301 60.2643 203.634 60.719 202.421 61.6285C201.208 62.538 200.602 63.8113 200.602 65.4484C200.602 67.0855 201.238 68.4195 202.512 69.4502C203.785 70.481 205.634 70.9964 208.06 70.9964ZM244.633 79V33.8887H255.911V38.9819H257.548C258.215 37.1629 259.306 35.829 260.822 34.9801C262.399 34.1313 264.218 33.7068 266.279 33.7068H271.736V43.8933H266.097C263.187 43.8933 260.792 44.6815 258.912 46.258C257.033 47.7738 256.093 50.1385 256.093 53.3521V79H244.633ZM307.797 80.2733C303.734 80.2733 300.611 79.576 298.429 78.1814C296.246 76.7869 294.639 75.2407 293.608 73.543H291.971V79H280.693V15.3349H292.153V39.0729H293.79C294.457 37.9815 295.336 36.9507 296.428 35.9806C297.58 35.0105 299.065 34.2222 300.884 33.6159C302.764 32.9489 305.068 32.6154 307.797 32.6154C311.435 32.6154 314.8 33.5249 317.892 35.3439C320.984 37.1023 323.47 39.7095 325.35 43.1656C327.23 46.6218 328.169 50.8055 328.169 55.7168V57.172C328.169 62.0833 327.23 66.267 325.35 69.7231C323.47 73.1792 320.984 75.8167 317.892 77.6357C314.8 79.3941 311.435 80.2733 307.797 80.2733ZM304.34 70.2688C307.857 70.2688 310.798 69.1471 313.163 66.9036C315.527 64.5996 316.71 61.2647 316.71 56.8991V55.9896C316.71 51.624 315.527 48.3195 313.163 46.0761C310.859 43.772 307.918 42.6199 304.34 42.6199C300.824 42.6199 297.883 43.772 295.518 46.0761C293.154 48.3195 291.971 51.624 291.971 55.9896V56.8991C291.971 61.2647 293.154 64.5996 295.518 66.9036C297.883 69.1471 300.824 70.2688 304.34 70.2688ZM360.156 80.2733C355.669 80.2733 351.637 79.3638 348.06 77.5448C344.482 75.7258 341.663 73.0882 339.601 69.6321C337.54 66.176 336.509 62.0226 336.509 57.172V55.7168C336.509 50.8661 337.54 46.7127 339.601 43.2566C341.663 39.8005 344.482 37.1629 348.06 35.3439C351.637 33.5249 355.669 32.6154 360.156 32.6154C364.643 32.6154 368.675 33.5249 372.252 35.3439C375.83 37.1629 378.649 39.8005 380.711 43.2566C382.772 46.7127 383.803 50.8661 383.803 55.7168V57.172C383.803 62.0226 382.772 66.176 380.711 69.6321C378.649 73.0882 375.83 75.7258 372.252 77.5448C368.675 79.3638 364.643 80.2733 360.156 80.2733ZM360.156 70.0869C363.673 70.0869 366.583 68.9652 368.887 66.7217C371.191 64.4177 372.343 61.1435 372.343 56.8991V55.9896C372.343 51.7453 371.191 48.5014 368.887 46.258C366.644 43.9539 363.733 42.8018 360.156 42.8018C356.639 42.8018 353.729 43.9539 351.425 46.258C349.121 48.5014 347.969 51.7453 347.969 55.9896V56.8991C347.969 61.1435 349.121 64.4177 351.425 66.7217C353.729 68.9652 356.639 70.0869 360.156 70.0869ZM394.381 79V33.8887H405.659V38.9819H407.296C407.963 37.1629 409.054 35.829 410.57 34.9801C412.147 34.1313 413.966 33.7068 416.027 33.7068H421.484V43.8933H415.845C412.935 43.8933 410.54 44.6815 408.66 46.258C406.781 47.7738 405.841 50.1385 405.841 53.3521V79H394.381Z" fill="white"/>
<path d="M132.003 79H131.881V79.1213H132.003V79ZM132.003 15.3349V15.2136H131.881V15.3349H132.003ZM144.008 15.3349H144.129V15.2136H144.008V15.3349ZM144.008 41.6195H143.887V41.7408H144.008V41.6195ZM167.655 41.6195V41.7408H167.776V41.6195H167.655ZM167.655 15.3349V15.2136H167.534V15.3349H167.655ZM179.661 15.3349H179.782V15.2136H179.661V15.3349ZM179.661 79V79.1213H179.782V79H179.661ZM167.655 79H167.534V79.1213H167.655V79ZM167.655 52.5335H167.776V52.4122H167.655V52.5335ZM144.008 52.5335V52.4122H143.887V52.5335H144.008ZM144.008 79V79.1213H144.129V79H144.008ZM132.003 79H132.124V15.3349H132.003H131.881V79H132.003ZM132.003 15.3349V15.4562H144.008V15.3349V15.2136H132.003V15.3349ZM144.008 15.3349H143.887V41.6195H144.008H144.129V15.3349H144.008ZM144.008 41.6195V41.7408H167.655V41.6195V41.4982H144.008V41.6195ZM167.655 41.6195H167.776V15.3349H167.655H167.534V41.6195H167.655ZM167.655 15.3349V15.4562H179.661V15.3349V15.2136H167.655V15.3349ZM179.661 15.3349H179.539V79H179.661H179.782V15.3349H179.661ZM179.661 79V78.8787H167.655V79V79.1213H179.661V79ZM167.655 79H167.776V52.5335H167.655H167.534V79H167.655ZM167.655 52.5335V52.4122H144.008V52.5335V52.6548H167.655V52.5335ZM144.008 52.5335H143.887V79H144.008H144.129V52.5335H144.008ZM144.008 79V78.8787H132.003V79V79.1213H144.008V79ZM197.419 78.6362L197.369 78.7467L197.371 78.7477L197.419 78.6362ZM191.325 73.7249L191.224 73.7922L191.226 73.7954L191.325 73.7249ZM191.325 58.0815L191.226 58.011L191.226 58.0115L191.325 58.0815ZM197.51 53.3521L197.554 53.4648L197.555 53.4643L197.51 53.3521ZM218.974 51.715V51.8362H219.095V51.715H218.974ZM216.973 43.9842L216.885 44.068L216.887 44.0699L216.973 43.9842ZM204.24 43.8933L204.322 43.9828L204.324 43.9809L204.24 43.8933ZM201.511 48.8955L201.473 49.0104L201.603 49.0541L201.63 48.92L201.511 48.8955ZM190.961 45.3485L190.845 45.3119L190.81 45.4255L190.922 45.4634L190.961 45.3485ZM194.417 39.0729L194.325 38.9947L194.324 38.995L194.417 39.0729ZM200.875 34.4344L200.923 34.5458L200.924 34.5453L200.875 34.4344ZM224.886 37.072L224.806 37.1639L224.806 37.1639L224.886 37.072ZM236.254 69.5412H236.376V69.4199H236.254V69.5412ZM236.254 79V79.1213H236.376V79H236.254ZM223.067 77.3629L222.994 77.4599L222.994 77.4599L223.067 77.3629ZM220.884 72.9063H221.005V72.7851H220.884V72.9063ZM219.156 72.9063V72.7851H219.068L219.041 72.868L219.156 72.9063ZM217.519 75.8167L217.616 75.8887L217.618 75.8863L217.519 75.8167ZM213.517 78.909L213.571 79.0175L213.517 78.909ZM215.881 68.3588L215.962 68.4499L215.962 68.4498L215.881 68.3588ZM218.974 60.2643H219.095V60.143H218.974V60.2643ZM202.421 61.6285L202.494 61.7255L202.494 61.7255L202.421 61.6285ZM202.512 69.4502L202.435 69.5445L202.435 69.5445L202.512 69.4502ZM206.059 80.2733V80.152C202.859 80.152 199.996 79.6087 197.466 78.5247L197.419 78.6362L197.371 78.7477C199.935 79.8465 202.831 80.3946 206.059 80.3946V80.2733ZM197.419 78.6362L197.469 78.5257C194.94 77.3818 192.926 75.7579 191.424 73.6544L191.325 73.7249L191.226 73.7954C192.755 75.9362 194.804 77.5865 197.369 78.7467L197.419 78.6362ZM191.325 73.7249L191.426 73.6576C189.986 71.4981 189.263 68.885 189.263 65.8122H189.142H189.021C189.021 68.9241 189.753 71.5861 191.224 73.7922L191.325 73.7249ZM189.142 65.8122H189.263C189.263 62.7392 189.986 60.1883 191.424 58.1514L191.325 58.0815L191.226 58.0115C189.753 60.0978 189.021 62.7006 189.021 65.8122H189.142ZM191.325 58.0815L191.424 58.152C192.925 56.0502 194.967 54.4877 197.554 53.4648L197.51 53.3521L197.465 53.2393C194.838 54.278 192.757 55.8684 191.226 58.011L191.325 58.0815ZM197.51 53.3521L197.555 53.4643C200.206 52.3798 203.222 51.8362 206.605 51.8362V51.715V51.5937C203.196 51.5937 200.148 52.1415 197.464 53.2398L197.51 53.3521ZM206.605 51.715V51.8362H218.974V51.715V51.5937H206.605V51.715ZM218.974 51.715H219.095V49.1684H218.974H218.853V51.715H218.974ZM218.974 49.1684H219.095C219.095 47.0184 218.418 45.2581 217.059 43.8985L216.973 43.9842L216.887 44.0699C218.195 45.3782 218.853 47.074 218.853 49.1684H218.974ZM216.973 43.9842L217.06 43.9004C215.694 42.472 213.533 41.7711 210.606 41.7711V41.8923V42.0136C213.5 42.0136 215.584 42.7072 216.885 44.068L216.973 43.9842ZM210.606 41.8923V41.7711C207.74 41.7711 205.582 42.4417 204.156 43.8056L204.24 43.8933L204.324 43.9809C205.687 42.6769 207.773 42.0136 210.606 42.0136V41.8923ZM204.24 43.8933L204.158 43.8037C202.742 45.0962 201.822 46.7875 201.393 48.8711L201.511 48.8955L201.63 48.92C202.05 46.8805 202.948 45.2369 204.322 43.9828L204.24 43.8933ZM201.511 48.8955L201.55 48.7806L191 45.2335L190.961 45.3485L190.922 45.4634L201.473 49.0104L201.511 48.8955ZM190.961 45.3485L191.077 45.385C191.8 43.0963 192.944 41.0185 194.51 39.1508L194.417 39.0729L194.324 38.995C192.738 40.8866 191.578 42.9925 190.845 45.3119L190.961 45.3485ZM194.417 39.0729L194.51 39.1511C196.133 37.2271 198.27 35.6914 200.923 34.5458L200.875 34.4344L200.827 34.3231C198.144 35.4815 195.975 37.0381 194.325 38.9947L194.417 39.0729ZM200.875 34.4344L200.924 34.5453C203.633 33.3412 206.92 32.7367 210.788 32.7367V32.6154V32.4942C206.896 32.4942 203.573 33.1023 200.825 34.3236L200.875 34.4344ZM210.788 32.6154V32.7367C216.71 32.7367 221.378 34.2169 224.806 37.1639L224.886 37.072L224.965 36.98C221.481 33.985 216.75 32.4942 210.788 32.4942V32.6154ZM224.886 37.072L224.806 37.1639C228.23 40.1066 229.948 44.3742 229.948 49.9869H230.07H230.191C230.191 44.3218 228.454 39.9794 224.965 36.98L224.886 37.072ZM230.07 49.9869H229.948V66.8127H230.07H230.191V49.9869H230.07ZM230.07 66.8127H229.948C229.948 67.7389 230.164 68.4561 230.618 68.9418C231.072 69.4291 231.747 69.6625 232.616 69.6625V69.5412V69.4199C231.788 69.4199 231.189 69.1985 230.795 68.7763C230.399 68.3525 230.191 67.7055 230.191 66.8127H230.07ZM232.616 69.5412V69.6625H236.254V69.5412V69.4199H232.616V69.5412ZM236.254 69.5412H236.133V79H236.254H236.376V69.5412H236.254ZM236.254 79V78.8787H228.614V79V79.1213H236.254V79ZM228.614 79V78.8787C226.391 78.8787 224.569 78.3382 223.139 77.2659L223.067 77.3629L222.994 77.4599C224.474 78.5704 226.351 79.1213 228.614 79.1213V79ZM223.067 77.3629L223.139 77.2659C221.715 76.1974 221.005 74.7781 221.005 72.9973H220.884H220.762C220.762 74.8545 221.508 76.3456 222.994 77.4599L223.067 77.3629ZM220.884 72.9973H221.005V72.9063H220.884H220.762V72.9973H220.884ZM220.884 72.9063V72.7851H219.156V72.9063V73.0276H220.884V72.9063ZM219.156 72.9063L219.041 72.868C218.804 73.5785 218.266 74.537 217.419 75.7472L217.519 75.8167L217.618 75.8863C218.468 74.6712 219.022 73.6894 219.271 72.9447L219.156 72.9063ZM217.519 75.8167L217.421 75.7448C216.587 76.8763 215.271 77.8963 213.463 78.8006L213.517 78.909L213.571 79.0175C215.4 78.1028 216.752 77.0613 217.616 75.8887L217.519 75.8167ZM213.517 78.909L213.463 78.8006C211.667 79.6983 209.202 80.152 206.059 80.152V80.2733V80.3946C209.221 80.3946 211.728 79.9388 213.571 79.0175L213.517 78.909ZM208.06 70.9964V71.1177C211.296 71.1177 213.934 70.2316 215.962 68.4499L215.881 68.3588L215.801 68.2677C213.827 70.0028 211.25 70.8751 208.06 70.8751V70.9964ZM215.881 68.3588L215.962 68.4498C218.052 66.6057 219.095 64.1764 219.095 61.1738H218.974H218.853C218.853 64.1132 217.834 66.4739 215.801 68.2679L215.881 68.3588ZM218.974 61.1738H219.095V60.2643H218.974H218.853V61.1738H218.974ZM218.974 60.2643V60.143H207.423V60.2643V60.3855H218.974V60.2643ZM207.423 60.2643V60.143C205.285 60.143 203.589 60.6011 202.348 61.5315L202.421 61.6285L202.494 61.7255C203.678 60.837 205.317 60.3855 207.423 60.3855V60.2643ZM202.421 61.6285L202.348 61.5315C201.102 62.466 200.481 63.7767 200.481 65.4484H200.602H200.723C200.723 63.846 201.314 62.6101 202.494 61.7255L202.421 61.6285ZM200.602 65.4484H200.481C200.481 67.1222 201.134 68.4907 202.435 69.5445L202.512 69.4502L202.588 69.356C201.343 68.3482 200.723 67.0489 200.723 65.4484H200.602ZM202.512 69.4502L202.435 69.5445C203.739 70.5994 205.62 71.1177 208.06 71.1177V70.9964V70.8751C205.649 70.8751 203.832 70.3626 202.588 69.356L202.512 69.4502ZM244.633 79H244.512V79.1213H244.633V79ZM244.633 33.8887V33.7675H244.512V33.8887H244.633ZM255.911 33.8887H256.032V33.7675H255.911V33.8887ZM255.911 38.9819H255.79V39.1032H255.911V38.9819ZM257.548 38.9819V39.1032H257.633L257.662 39.0237L257.548 38.9819ZM260.822 34.9801L260.765 34.8733L260.763 34.8743L260.822 34.9801ZM271.736 33.7068H271.857V33.5856H271.736V33.7068ZM271.736 43.8933V44.0145H271.857V43.8933H271.736ZM258.912 46.258L258.988 46.3524L258.99 46.3509L258.912 46.258ZM256.093 79V79.1213H256.214V79H256.093ZM244.633 79H244.754V33.8887H244.633H244.512V79H244.633ZM244.633 33.8887V34.01H255.911V33.8887V33.7675H244.633V33.8887ZM255.911 33.8887H255.79V38.9819H255.911H256.032V33.8887H255.911ZM255.911 38.9819V39.1032H257.548V38.9819V38.8607H255.911V38.9819ZM257.548 38.9819L257.662 39.0237C258.32 37.2285 259.394 35.919 260.881 35.0859L260.822 34.9801L260.763 34.8743C259.219 35.739 258.11 37.0974 257.434 38.9402L257.548 38.9819ZM260.822 34.9801L260.88 35.0869C262.436 34.2489 264.235 33.8281 266.279 33.8281V33.7068V33.5856C264.201 33.5856 262.361 34.0136 260.765 34.8734L260.822 34.9801ZM266.279 33.7068V33.8281H271.736V33.7068V33.5856H266.279V33.7068ZM271.736 33.7068H271.615V43.8933H271.736H271.857V33.7068H271.736ZM271.736 43.8933V43.772H266.097V43.8933V44.0145H271.736V43.8933ZM266.097 43.8933V43.772C263.164 43.772 260.74 44.567 258.834 46.165L258.912 46.258L258.99 46.3509C260.844 44.796 263.21 44.0145 266.097 44.0145V43.8933ZM258.912 46.258L258.836 46.1636C256.919 47.7095 255.972 50.1148 255.972 53.3521H256.093H256.214C256.214 50.1622 257.146 47.8381 258.988 46.3523L258.912 46.258ZM256.093 53.3521H255.972V79H256.093H256.214V53.3521H256.093ZM256.093 79V78.8787H244.633V79V79.1213H256.093V79ZM298.429 78.1814L298.363 78.2836L298.363 78.2836L298.429 78.1814ZM293.608 73.543L293.712 73.4801L293.677 73.4217H293.608V73.543ZM291.971 73.543V73.4217H291.85V73.543H291.971ZM291.971 79V79.1213H292.092V79H291.971ZM280.693 79H280.572V79.1213H280.693V79ZM280.693 15.3349V15.2136H280.572V15.3349H280.693ZM292.153 15.3349H292.274V15.2136H292.153V15.3349ZM292.153 39.0729H292.032V39.1942H292.153V39.0729ZM293.79 39.0729V39.1942H293.858L293.894 39.1361L293.79 39.0729ZM296.428 35.9806L296.35 35.8878L296.347 35.89L296.428 35.9806ZM300.884 33.6159L300.923 33.731L300.925 33.7302L300.884 33.6159ZM317.892 35.3439L317.83 35.4485L317.832 35.4494L317.892 35.3439ZM325.35 43.1656L325.456 43.1077L325.456 43.1077L325.35 43.1656ZM325.35 69.7231L325.456 69.781L325.456 69.781L325.35 69.7231ZM317.892 77.6357L317.952 77.7412L317.953 77.7403L317.892 77.6357ZM313.163 66.9036L313.246 66.9916L313.247 66.9905L313.163 66.9036ZM313.163 46.0761L313.077 46.1618L313.079 46.164L313.163 46.0761ZM295.518 46.0761L295.602 46.164L295.603 46.1629L295.518 46.0761ZM295.518 66.9036L295.434 66.9905L295.435 66.9916L295.518 66.9036ZM307.797 80.2733V80.152C303.745 80.152 300.649 79.4562 298.494 78.0793L298.429 78.1814L298.363 78.2836C300.574 79.6959 303.723 80.3946 307.797 80.3946V80.2733ZM298.429 78.1814L298.494 78.0793C296.322 76.6917 294.731 75.1579 293.712 73.4801L293.608 73.543L293.505 73.6059C294.548 75.3236 296.17 76.882 298.363 78.2836L298.429 78.1814ZM293.608 73.543V73.4217H291.971V73.543V73.6643H293.608V73.543ZM291.971 73.543H291.85V79H291.971H292.092V73.543H291.971ZM291.971 79V78.8787H280.693V79V79.1213H291.971V79ZM280.693 79H280.815V15.3349H280.693H280.572V79H280.693ZM280.693 15.3349V15.4562H292.153V15.3349V15.2136H280.693V15.3349ZM292.153 15.3349H292.032V39.0729H292.153H292.274V15.3349H292.153ZM292.153 39.0729V39.1942H293.79V39.0729V38.9516H292.153V39.0729ZM293.79 39.0729L293.894 39.1361C294.554 38.0563 295.425 37.0345 296.508 36.0712L296.428 35.9806L296.347 35.89C295.248 36.8669 294.361 37.9067 293.687 39.0097L293.79 39.0729ZM296.428 35.9806L296.506 36.0733C297.643 35.1154 299.114 34.3337 300.923 33.7309L300.884 33.6159L300.846 33.5008C299.016 34.1108 297.516 34.9055 296.35 35.8878L296.428 35.9806ZM300.884 33.6159L300.925 33.7302C302.788 33.0692 305.077 32.7367 307.797 32.7367V32.6154V32.4942C305.059 32.4942 302.74 32.8287 300.844 33.5016L300.884 33.6159ZM307.797 32.6154V32.7367C311.413 32.7367 314.757 33.6406 317.831 35.4485L317.892 35.3439L317.953 35.2394C314.842 33.4093 311.456 32.4942 307.797 32.4942V32.6154ZM317.892 35.3439L317.832 35.4494C320.903 37.1954 323.373 39.7852 325.243 43.2236L325.35 43.1656L325.456 43.1077C323.567 39.6339 321.066 37.0092 317.952 35.2385L317.892 35.3439ZM325.35 43.1656L325.243 43.2236C327.111 46.658 328.048 50.8208 328.048 55.7168H328.169H328.291C328.291 50.7902 327.348 46.5855 325.456 43.1077L325.35 43.1656ZM328.169 55.7168H328.048V57.172H328.169H328.291V55.7168H328.169ZM328.169 57.172H328.048C328.048 62.068 327.111 66.2307 325.243 69.6651L325.35 69.7231L325.456 69.781C327.348 66.3033 328.291 62.0986 328.291 57.172H328.169ZM325.35 69.7231L325.243 69.6651C323.373 73.1039 320.902 75.7244 317.831 77.5312L317.892 77.6357L317.953 77.7403C321.067 75.9091 323.567 73.2545 325.456 69.781L325.35 69.7231ZM317.892 77.6357L317.832 77.5303C314.758 79.2781 311.414 80.152 307.797 80.152V80.2733V80.3946C311.455 80.3946 314.841 79.5102 317.952 77.7412L317.892 77.6357ZM304.34 70.2688V70.3901C307.886 70.3901 310.857 69.2582 313.246 66.9916L313.163 66.9036L313.079 66.8157C310.739 69.0359 307.829 70.1475 304.34 70.1475V70.2688ZM313.163 66.9036L313.247 66.9905C315.642 64.6569 316.831 61.2865 316.831 56.8991H316.71H316.588C316.588 61.243 315.412 64.5422 313.078 66.8168L313.163 66.9036ZM316.71 56.8991H316.831V55.9896H316.71H316.588V56.8991H316.71ZM316.71 55.9896H316.831C316.831 51.6025 315.642 48.2614 313.246 45.9881L313.163 46.0761L313.079 46.164C315.412 48.3776 316.588 51.6455 316.588 55.9896H316.71ZM313.163 46.0761L313.248 45.9903C310.919 43.6612 307.946 42.4987 304.34 42.4987V42.6199V42.7412C307.889 42.7412 310.798 43.8828 313.077 46.1618L313.163 46.0761ZM304.34 42.6199V42.4987C300.794 42.4987 297.823 43.6615 295.434 45.9892L295.518 46.0761L295.603 46.1629C297.943 43.8824 300.853 42.7412 304.34 42.7412V42.6199ZM295.518 46.0761L295.435 45.9881C293.039 48.2614 291.85 51.6025 291.85 55.9896H291.971H292.092C292.092 51.6455 293.269 48.3776 295.602 46.164L295.518 46.0761ZM291.971 55.9896H291.85V56.8991H291.971H292.092V55.9896H291.971ZM291.971 56.8991H291.85C291.85 61.2865 293.039 64.6569 295.434 66.9905L295.518 66.9036L295.603 66.8168C293.268 64.5422 292.092 61.243 292.092 56.8991H291.971ZM295.518 66.9036L295.435 66.9916C297.824 69.2582 300.795 70.3901 304.34 70.3901V70.2688V70.1475C300.852 70.1475 297.942 69.0359 295.602 66.8157L295.518 66.9036ZM348.06 77.5448L348.005 77.6529L348.005 77.6529L348.06 77.5448ZM339.601 43.2566L339.705 43.3187L339.705 43.3187L339.601 43.2566ZM348.06 35.3439L348.115 35.452L348.115 35.452L348.06 35.3439ZM372.252 35.3439L372.197 35.452L372.197 35.452L372.252 35.3439ZM380.711 43.2566L380.607 43.3187L380.607 43.3187L380.711 43.2566ZM380.711 69.6321L380.607 69.57L380.607 69.57L380.711 69.6321ZM372.252 77.5448L372.197 77.4367L372.197 77.4367L372.252 77.5448ZM368.887 66.7217L368.972 66.8086L368.973 66.8075L368.887 66.7217ZM368.887 46.258L368.8 46.3426L368.803 46.3448L368.887 46.258ZM351.425 46.258L351.509 46.3448L351.511 46.3437L351.425 46.258ZM351.425 66.7217L351.339 66.8075L351.34 66.8086L351.425 66.7217ZM360.156 80.2733V80.152C355.686 80.152 351.673 79.2461 348.115 77.4367L348.06 77.5448L348.005 77.6529C351.601 79.4815 355.652 80.3946 360.156 80.3946V80.2733ZM348.06 77.5448L348.115 77.4367C344.558 75.6281 341.755 73.0065 339.705 69.57L339.601 69.6321L339.497 69.6943C341.57 73.17 344.407 75.8235 348.005 77.6529L348.06 77.5448ZM339.601 69.6321L339.705 69.57C337.657 66.1362 336.63 62.0053 336.63 57.172H336.509H336.388C336.388 62.04 337.422 66.2158 339.497 69.6943L339.601 69.6321ZM336.509 57.172H336.63V55.7168H336.509H336.388V57.172H336.509ZM336.509 55.7168H336.63C336.63 50.8835 337.657 46.7525 339.705 43.3187L339.601 43.2566L339.497 43.1945C337.422 46.6729 336.388 50.8487 336.388 55.7168H336.509ZM339.601 43.2566L339.705 43.3187C341.755 39.8822 344.558 37.2606 348.115 35.452L348.06 35.3439L348.005 35.2358C344.407 37.0652 341.57 39.7188 339.497 43.1945L339.601 43.2566ZM348.06 35.3439L348.115 35.452C351.673 33.6427 355.686 32.7367 360.156 32.7367V32.6154V32.4942C355.652 32.4942 351.601 33.4072 348.005 35.2358L348.06 35.3439ZM360.156 32.6154V32.7367C364.626 32.7367 368.639 33.6427 372.197 35.452L372.252 35.3439L372.307 35.2358C368.711 33.4072 364.66 32.4942 360.156 32.4942V32.6154ZM372.252 35.3439L372.197 35.452C375.754 37.2606 378.557 39.8822 380.607 43.3187L380.711 43.2566L380.815 43.1945C378.742 39.7188 375.905 37.0652 372.307 35.2358L372.252 35.3439ZM380.711 43.2566L380.607 43.3187C382.655 46.7525 383.682 50.8835 383.682 55.7168H383.803H383.924C383.924 50.8487 382.89 46.6729 380.815 43.1945L380.711 43.2566ZM383.803 55.7168H383.682V57.172H383.803H383.924V55.7168H383.803ZM383.803 57.172H383.682C383.682 62.0053 382.655 66.1362 380.607 69.57L380.711 69.6321L380.815 69.6943C382.89 66.2158 383.924 62.04 383.924 57.172H383.803ZM380.711 69.6321L380.607 69.57C378.557 73.0065 375.754 75.6281 372.197 77.4367L372.252 77.5448L372.307 77.6529C375.905 75.8235 378.742 73.17 380.815 69.6943L380.711 69.6321ZM372.252 77.5448L372.197 77.4367C368.639 79.2461 364.626 80.152 360.156 80.152V80.2733V80.3946C364.66 80.3946 368.711 79.4815 372.307 77.6529L372.252 77.5448ZM360.156 70.0869V70.2082C363.701 70.2082 366.643 69.0763 368.972 66.8086L368.887 66.7217L368.803 66.6348C366.523 68.8541 363.644 69.9656 360.156 69.9656V70.0869ZM368.887 66.7217L368.973 66.8075C371.306 64.4744 372.465 61.1655 372.465 56.8991H372.343H372.222C372.222 61.1214 371.077 64.3609 368.802 66.636L368.887 66.7217ZM372.343 56.8991H372.465V55.9896H372.343H372.222V56.8991H372.343ZM372.343 55.9896H372.465C372.465 51.7235 371.306 48.444 368.972 46.1711L368.887 46.258L368.803 46.3448C371.077 48.5588 372.222 51.7671 372.222 55.9896H372.343ZM368.887 46.258L368.974 46.1734C366.705 43.8431 363.762 42.6806 360.156 42.6806V42.8018V42.9231C363.705 42.9231 366.582 44.0647 368.8 46.3426L368.887 46.258ZM360.156 42.8018V42.6806C356.61 42.6806 353.668 43.8435 351.339 46.1722L351.425 46.258L351.511 46.3437C353.79 44.0643 356.669 42.9231 360.156 42.9231V42.8018ZM351.425 46.258L351.34 46.1711C349.006 48.444 347.847 51.7235 347.847 55.9896H347.969H348.09C348.09 51.7671 349.236 48.5588 351.509 46.3448L351.425 46.258ZM347.969 55.9896H347.847V56.8991H347.969H348.09V55.9896H347.969ZM347.969 56.8991H347.847C347.847 61.1655 349.006 64.4744 351.339 66.8075L351.425 66.7217L351.511 66.636C349.236 64.3609 348.09 61.1214 348.09 56.8991H347.969ZM351.425 66.7217L351.34 66.8086C353.669 69.0763 356.611 70.2082 360.156 70.2082V70.0869V69.9656C356.668 69.9656 353.789 68.8541 351.509 66.6348L351.425 66.7217ZM394.381 79H394.26V79.1213H394.381V79ZM394.381 33.8887V33.7675H394.26V33.8887H394.381ZM405.659 33.8887H405.78V33.7675H405.659V33.8887ZM405.659 38.9819H405.538V39.1032H405.659V38.9819ZM407.296 38.9819V39.1032H407.381L407.41 39.0237L407.296 38.9819ZM410.57 34.9801L410.513 34.8733L410.511 34.8743L410.57 34.9801ZM421.484 33.7068H421.605V33.5856H421.484V33.7068ZM421.484 43.8933V44.0145H421.605V43.8933H421.484ZM408.66 46.258L408.736 46.3524L408.738 46.3509L408.66 46.258ZM405.841 79V79.1213H405.962V79H405.841ZM394.381 79H394.502V33.8887H394.381H394.26V79H394.381ZM394.381 33.8887V34.01H405.659V33.8887V33.7675H394.381V33.8887ZM405.659 33.8887H405.538V38.9819H405.659H405.78V33.8887H405.659ZM405.659 38.9819V39.1032H407.296V38.9819V38.8607H405.659V38.9819ZM407.296 38.9819L407.41 39.0237C408.068 37.2285 409.142 35.919 410.629 35.0859L410.57 34.9801L410.511 34.8743C408.967 35.739 407.858 37.0974 407.182 38.9402L407.296 38.9819ZM410.57 34.9801L410.628 35.0869C412.184 34.2489 413.983 33.8281 416.027 33.8281V33.7068V33.5856C413.949 33.5856 412.109 34.0136 410.513 34.8734L410.57 34.9801ZM416.027 33.7068V33.8281H421.484V33.7068V33.5856H416.027V33.7068ZM421.484 33.7068H421.363V43.8933H421.484H421.605V33.7068H421.484ZM421.484 43.8933V43.772H415.845V43.8933V44.0145H421.484V43.8933ZM415.845 43.8933V43.772C412.912 43.772 410.488 44.567 408.582 46.165L408.66 46.258L408.738 46.3509C410.592 44.796 412.958 44.0145 415.845 44.0145V43.8933ZM408.66 46.258L408.584 46.1636C406.667 47.7095 405.719 50.1148 405.719 53.3521H405.841H405.962C405.962 50.1622 406.894 47.8381 408.736 46.3523L408.66 46.258ZM405.841 53.3521H405.719V79H405.841H405.962V53.3521H405.841ZM405.841 79V78.8787H394.381V79V79.1213H405.841V79Z" fill="white" mask="url(#path-4-outside-1_81_10)"/>
</g>
<defs>
<clipPath id="clip0_81_10">
<rect width="436" height="96" fill="white"/>
</clipPath>
</defs>
</svg>
