<svg width="436" height="96" viewBox="0 0 436 96" fill="none" xmlns="http://www.w3.org/2000/svg">
<g clip-path="url(#clip0_80_8)">
<rect width="436" height="96" fill="white"/>
<circle cx="48.441" cy="48.441" r="33.441" stroke="#101A31" stroke-width="6"/>
<circle cx="48.441" cy="57.16" r="24.722" stroke="#101A31" stroke-width="6"/>
<circle cx="48.5528" cy="66.4377" r="15.4441" stroke="#101A31" stroke-width="6"/>
<path d="M132.003 79V15.3349H144.008V41.6195H167.655V15.3349H179.661V79H167.655V52.5335H144.008V79H132.003ZM206.059 80.2733C202.845 80.2733 199.965 79.7276 197.419 78.6362C194.872 77.4842 192.841 75.8471 191.325 73.7249C189.87 71.5421 189.142 68.9045 189.142 65.8122C189.142 62.7199 189.87 60.143 191.325 58.0815C192.841 55.9593 194.902 54.3828 197.51 53.3521C200.177 52.2607 203.209 51.715 206.605 51.715H218.974V49.1684C218.974 47.0462 218.307 45.3181 216.973 43.9842C215.639 42.5896 213.517 41.8923 210.606 41.8923C207.757 41.8923 205.634 42.5593 204.24 43.8933C202.845 45.1666 201.936 46.834 201.511 48.8955L190.961 45.3485C191.689 43.0444 192.841 40.9525 194.417 39.0729C196.054 37.1326 198.207 35.5865 200.875 34.4344C203.603 33.2218 206.908 32.6154 210.788 32.6154C216.73 32.6154 221.429 34.101 224.886 37.072C228.342 40.043 230.07 44.348 230.07 49.9869V66.8127C230.07 68.6317 230.919 69.5412 232.616 69.5412H236.254V79H228.614C226.371 79 224.522 78.4543 223.067 77.3629C221.611 76.2715 220.884 74.8163 220.884 72.9973V72.9063H219.156C218.913 73.6339 218.367 74.6041 217.519 75.8167C216.67 76.9688 215.336 77.9995 213.517 78.909C211.698 79.8186 209.212 80.2733 206.059 80.2733ZM208.06 70.9964C211.273 70.9964 213.881 70.1172 215.881 68.3588C217.943 66.5398 218.974 64.1448 218.974 61.1738V60.2643H207.423C205.301 60.2643 203.634 60.719 202.421 61.6285C201.208 62.538 200.602 63.8113 200.602 65.4484C200.602 67.0855 201.238 68.4195 202.512 69.4502C203.785 70.481 205.634 70.9964 208.06 70.9964ZM244.633 79V33.8887H255.911V38.9819H257.548C258.215 37.1629 259.306 35.829 260.822 34.9801C262.399 34.1313 264.218 33.7068 266.279 33.7068H271.736V43.8933H266.097C263.187 43.8933 260.792 44.6815 258.912 46.258C257.033 47.7738 256.093 50.1385 256.093 53.3521V79H244.633ZM307.797 80.2733C303.734 80.2733 300.611 79.576 298.429 78.1814C296.246 76.7869 294.639 75.2407 293.608 73.543H291.971V79H280.693V15.3349H292.153V39.0729H293.79C294.457 37.9815 295.336 36.9507 296.428 35.9806C297.58 35.0105 299.065 34.2222 300.884 33.6159C302.764 32.9489 305.068 32.6154 307.797 32.6154C311.435 32.6154 314.8 33.5249 317.892 35.3439C320.984 37.1023 323.47 39.7095 325.35 43.1656C327.23 46.6218 328.169 50.8055 328.169 55.7168V57.172C328.169 62.0833 327.23 66.267 325.35 69.7231C323.47 73.1792 320.984 75.8167 317.892 77.6357C314.8 79.3941 311.435 80.2733 307.797 80.2733ZM304.34 70.2688C307.857 70.2688 310.798 69.1471 313.163 66.9036C315.527 64.5996 316.71 61.2647 316.71 56.8991V55.9896C316.71 51.624 315.527 48.3195 313.163 46.0761C310.859 43.772 307.918 42.6199 304.34 42.6199C300.824 42.6199 297.883 43.772 295.518 46.0761C293.154 48.3195 291.971 51.624 291.971 55.9896V56.8991C291.971 61.2647 293.154 64.5996 295.518 66.9036C297.883 69.1471 300.824 70.2688 304.34 70.2688ZM360.156 80.2733C355.669 80.2733 351.637 79.3638 348.06 77.5448C344.482 75.7258 341.663 73.0882 339.601 69.6321C337.54 66.176 336.509 62.0226 336.509 57.172V55.7168C336.509 50.8661 337.54 46.7127 339.601 43.2566C341.663 39.8005 344.482 37.1629 348.06 35.3439C351.637 33.5249 355.669 32.6154 360.156 32.6154C364.643 32.6154 368.675 33.5249 372.252 35.3439C375.83 37.1629 378.649 39.8005 380.711 43.2566C382.772 46.7127 383.803 50.8661 383.803 55.7168V57.172C383.803 62.0226 382.772 66.176 380.711 69.6321C378.649 73.0882 375.83 75.7258 372.252 77.5448C368.675 79.3638 364.643 80.2733 360.156 80.2733ZM360.156 70.0869C363.673 70.0869 366.583 68.9652 368.887 66.7217C371.191 64.4177 372.343 61.1435 372.343 56.8991V55.9896C372.343 51.7453 371.191 48.5014 368.887 46.258C366.644 43.9539 363.733 42.8018 360.156 42.8018C356.639 42.8018 353.729 43.9539 351.425 46.258C349.121 48.5014 347.969 51.7453 347.969 55.9896V56.8991C347.969 61.1435 349.121 64.4177 351.425 66.7217C353.729 68.9652 356.639 70.0869 360.156 70.0869ZM394.381 79V33.8887H405.659V38.9819H407.296C407.963 37.1629 409.054 35.829 410.57 34.9801C412.147 34.1313 413.966 33.7068 416.027 33.7068H421.484V43.8933H415.845C412.935 43.8933 410.54 44.6815 408.66 46.258C406.781 47.7738 405.841 50.1385 405.841 53.3521V79H394.381Z" fill="#101A31"/>
</g>
<defs>
<clipPath id="clip0_80_8">
<rect width="436" height="96" fill="white"/>
</clipPath>
</defs>
</svg>
