<svg width="250" height="250" viewBox="0 0 250 250" fill="none" xmlns="http://www.w3.org/2000/svg">
<path d="M120.5 39.5039C165.233 39.5039 201.496 75.767 201.496 120.5C201.496 165.233 165.233 201.496 120.5 201.496C75.767 201.496 39.5039 165.233 39.5039 120.5C39.5039 75.767 75.767 39.5039 120.5 39.5039Z" stroke="#101A31" stroke-width="13.0073"/>
<path d="M120.5 81.375C153.671 81.375 180.561 108.265 180.561 141.436C180.561 174.606 153.671 201.496 120.5 201.496C87.3294 201.496 60.4395 174.606 60.4395 141.436C60.4395 108.265 87.3294 81.375 120.5 81.375Z" stroke="#101A31" stroke-width="13.0073"/>
<path d="M120.769 125.93C141.636 125.93 158.552 142.846 158.552 163.713C158.552 184.58 141.635 201.496 120.769 201.496C99.9017 201.496 82.9856 184.58 82.9855 163.713C82.9855 142.846 99.9016 125.93 120.769 125.93Z" stroke="#101A31" stroke-width="13.0073"/>
</svg>
