<svg width="852" height="187" viewBox="0 0 852 187" fill="none" xmlns="http://www.w3.org/2000/svg">
<path d="M254.775 173V50.5H273.675V103H325.125V50.5H344.025V173H325.125V120.15H273.675V173H254.775ZM400.919 175.45C394.735 175.45 389.194 174.4 384.294 172.3C379.51 170.2 375.66 167.108 372.744 163.025C369.944 158.942 368.544 153.983 368.544 148.15C368.544 142.2 369.944 137.3 372.744 133.45C375.66 129.483 379.569 126.508 384.469 124.525C389.485 122.542 395.144 121.55 401.444 121.55H427.694V115.95C427.694 110.933 426.177 106.908 423.144 103.875C420.11 100.842 415.444 99.325 409.144 99.325C402.96 99.325 398.235 100.783 394.969 103.7C391.702 106.617 389.544 110.408 388.494 115.075L371.694 109.65C373.094 104.983 375.31 100.783 378.344 97.05C381.494 93.2 385.635 90.1083 390.769 87.775C395.902 85.4417 402.085 84.275 409.319 84.275C420.519 84.275 429.327 87.1333 435.744 92.85C442.16 98.5667 445.369 106.675 445.369 117.175V152.7C445.369 156.2 447.002 157.95 450.269 157.95H457.619V173H444.144C440.06 173 436.735 171.95 434.169 169.85C431.602 167.75 430.319 164.892 430.319 161.275V160.75H427.694C426.76 162.5 425.36 164.542 423.494 166.875C421.627 169.208 418.885 171.25 415.269 173C411.652 174.633 406.869 175.45 400.919 175.45ZM403.544 160.575C410.777 160.575 416.61 158.533 421.044 154.45C425.477 150.25 427.694 144.533 427.694 137.3V135.55H402.494C397.71 135.55 393.86 136.6 390.944 138.7C388.027 140.683 386.569 143.658 386.569 147.625C386.569 151.592 388.085 154.742 391.119 157.075C394.152 159.408 398.294 160.575 403.544 160.575ZM479.145 173V86.725H496.82V96.875H499.62C501.02 93.2583 503.236 90.6333 506.27 89C509.42 87.25 513.27 86.375 517.82 86.375H528.145V102.65H517.12C511.286 102.65 506.503 104.283 502.77 107.55C499.036 110.7 497.17 115.6 497.17 122.25V173H479.145ZM600.696 175.45C592.296 175.45 585.821 173.933 581.271 170.9C576.837 167.867 573.512 164.483 571.296 160.75H568.496V173H550.821V50.5H568.846V98.45H571.646C573.046 96.1167 574.912 93.9 577.246 91.8C579.579 89.5833 582.671 87.775 586.521 86.375C590.371 84.975 595.096 84.275 600.696 84.275C607.929 84.275 614.579 86.025 620.646 89.525C626.712 93.025 631.554 98.1 635.171 104.75C638.787 111.4 640.596 119.333 640.596 128.55V131.175C640.596 140.508 638.729 148.5 634.996 155.15C631.379 161.683 626.537 166.7 620.471 170.2C614.521 173.7 607.929 175.45 600.696 175.45ZM595.446 159.7C603.262 159.7 609.679 157.192 614.696 152.175C619.829 147.158 622.396 139.983 622.396 130.65V129.075C622.396 119.858 619.887 112.742 614.871 107.725C609.854 102.708 603.379 100.2 595.446 100.2C587.746 100.2 581.329 102.708 576.196 107.725C571.179 112.742 568.671 119.858 568.671 129.075V130.65C568.671 139.983 571.179 147.158 576.196 152.175C581.329 157.192 587.746 159.7 595.446 159.7ZM707.355 175.45C698.722 175.45 691.022 173.7 684.255 170.2C677.605 166.583 672.355 161.45 668.505 154.8C664.655 148.15 662.73 140.275 662.73 131.175V128.55C662.73 119.45 664.655 111.633 668.505 105.1C672.355 98.45 677.605 93.3167 684.255 89.7C691.022 86.0833 698.722 84.275 707.355 84.275C715.988 84.275 723.688 86.0833 730.455 89.7C737.222 93.3167 742.53 98.45 746.38 105.1C750.23 111.633 752.155 119.45 752.155 128.55V131.175C752.155 140.275 750.23 148.15 746.38 154.8C742.53 161.45 737.222 166.583 730.455 170.2C723.688 173.7 715.988 175.45 707.355 175.45ZM707.355 159.35C715.288 159.35 721.705 156.842 726.605 151.825C731.622 146.692 734.13 139.633 734.13 130.65V129.075C734.13 120.092 731.68 113.092 726.78 108.075C721.88 102.942 715.405 100.375 707.355 100.375C699.538 100.375 693.122 102.942 688.105 108.075C683.205 113.092 680.755 120.092 680.755 129.075V130.65C680.755 139.633 683.205 146.692 688.105 151.825C693.122 156.842 699.538 159.35 707.355 159.35ZM778.596 173V86.725H796.271V96.875H799.071C800.471 93.2583 802.688 90.6333 805.721 89C808.871 87.25 812.721 86.375 817.271 86.375H827.596V102.65H816.571C810.738 102.65 805.954 104.283 802.221 107.55C798.488 110.7 796.621 115.6 796.621 122.25V173H778.596Z" fill="white"/>
<g clip-path="url(#clip0_446_4706)">
<path d="M127 100H164L201 137V174H164L127 137V100Z" fill="white"/>
<path d="M53 26H90L127 63V100H90L53 63V26Z" fill="white"/>
<path d="M127 26H164L201 63V100H164L127 63V26Z" fill="white"/>
<path d="M53 100H90L127 137V174H90L53 137V100Z" fill="white"/>
</g>
<defs>
<clipPath id="clip0_446_4706">
<rect width="148" height="148" fill="white" transform="translate(53 26)"/>
</clipPath>
</defs>
</svg>
