<svg width="1739" height="2160" viewBox="0 0 1739 2160" fill="none" xmlns="http://www.w3.org/2000/svg">
<g clip-path="url(#clip0_265_46)">
<path d="M794.999 1213.04C794.999 834.372 874.841 477.92 1019.83 209.343C1091.14 77.2429 1174.52 -26.7404 1267.66 -99.7276C1366.05 -176.821 1471.03 -215.908 1579.69 -215.908C1688.34 -215.908 1793.32 -176.821 1891.71 -99.7276C1984.86 -26.7404 2068.24 77.2429 2139.55 209.343C2284.54 477.92 2364.38 834.372 2364.38 1213.04C2364.38 1591.71 2284.54 1948.17 2139.55 2216.74C2068.24 2348.84 1984.86 2452.83 1891.71 2525.81C1793.32 2602.91 1688.34 2641.99 1579.69 2641.99C1471.03 2641.99 1366.05 2602.91 1267.66 2525.81C1174.52 2452.83 1091.14 2348.84 1019.83 2216.74C874.841 1948.17 794.999 1591.71 794.999 1213.04Z" stroke="url(#paint0_linear_265_46)" stroke-opacity="0.5" stroke-width="2.45417" stroke-miterlimit="10"/>
<path d="M2278.85 856.796C2450.76 1194.19 2541.45 1548.04 2534.2 1853.17C2530.63 2003.24 2503.55 2133.74 2453.68 2241.06C2401.02 2354.42 2325.22 2436.91 2228.42 2486.24C2131.61 2535.57 2020.32 2548.39 1897.66 2524.37C1781.53 2501.63 1660.02 2446.84 1536.52 2361.51C1285.41 2188.02 1052.44 1906.67 880.526 1569.28C708.611 1231.88 617.929 878.033 625.177 572.905C628.744 422.833 655.83 292.328 705.69 185.007C758.357 71.6484 834.15 -10.8365 930.959 -60.1654C1027.77 -109.494 1139.06 -122.321 1261.72 -98.3032C1377.85 -75.5612 1499.35 -20.7677 1622.86 64.564C1873.97 238.05 2106.93 519.404 2278.85 856.796Z" stroke="url(#paint1_linear_265_46)" stroke-opacity="0.5" stroke-width="2.45417" stroke-miterlimit="10"/>
<path d="M1118.46 1847.87C812.112 1625.29 570.662 1351.18 438.595 1076.02C373.641 940.688 338.53 812.105 334.235 693.847C329.703 568.937 359.783 461.027 423.649 373.127C487.515 285.227 580.847 223.267 701.044 188.982C814.845 156.521 947.975 150.181 1096.76 170.142C1399.27 210.718 1734.57 355.637 2040.92 578.214C2347.26 800.791 2588.71 1074.9 2720.78 1350.06C2785.74 1485.39 2820.85 1613.97 2825.14 1732.23C2829.67 1857.14 2799.59 1965.05 2735.73 2052.95C2671.86 2140.85 2578.53 2202.81 2458.33 2237.1C2344.53 2269.56 2211.4 2275.9 2062.61 2255.94C1760.11 2215.36 1424.81 2070.44 1118.46 1847.87Z" stroke="url(#paint2_linear_265_46)" stroke-opacity="0.5" stroke-width="2.45417" stroke-miterlimit="10"/>
<path d="M1702.44 438.015C2076.45 497.251 2416.01 631.871 2658.61 817.087C2777.92 908.178 2867.58 1006.81 2925.1 1110.22C2985.85 1219.46 3008.03 1329.27 2991.03 1436.58C2974.04 1543.89 2919 1641.47 2827.47 1726.59C2740.82 1807.17 2625.07 1873.27 2483.44 1923.03C2195.49 2024.21 1830.93 2047.31 1456.93 1988.07C1082.92 1928.84 743.355 1794.22 500.759 1609C381.446 1517.91 291.786 1419.28 234.269 1315.87C173.52 1206.63 151.334 1096.82 168.333 989.509C185.332 882.196 240.363 784.618 331.896 699.499C418.553 618.921 534.3 552.822 675.93 503.059C963.878 401.882 1328.44 378.78 1702.44 438.015Z" stroke="url(#paint3_linear_265_46)" stroke-opacity="0.5" stroke-width="2.45417" stroke-miterlimit="10"/>
<path d="M1822.17 1959.33C1462.04 2076.34 1098.35 2110.55 798.124 2055.66C650.456 2028.66 525.792 1981.49 427.601 1915.45C323.879 1845.71 254.262 1757.94 220.689 1654.6C187.116 1551.26 191.853 1439.34 234.76 1321.94C275.393 1210.8 348.519 1099.37 452.11 990.729C662.743 769.845 977.074 583.761 1337.21 466.746C1697.34 349.731 2061.03 315.52 2361.25 370.411C2508.92 397.407 2633.58 444.585 2731.78 510.618C2835.5 580.366 2905.11 668.136 2938.69 771.473C2972.26 874.81 2967.52 986.728 2924.62 1104.13C2883.98 1215.27 2810.86 1326.71 2707.27 1435.34C2496.63 1656.23 2182.3 1842.31 1822.17 1959.33Z" stroke="url(#paint4_linear_265_46)" stroke-opacity="0.5" stroke-width="2.45417" stroke-miterlimit="10"/>
<path d="M1024.82 658.18C1292.58 390.421 1601.09 194.831 1893.52 107.43C2037.35 64.4494 2169.84 49.8797 2287.31 64.1385C2411.39 79.1989 2513.26 125.787 2590.1 202.619C2666.93 279.451 2713.52 381.324 2728.58 505.407C2742.84 622.88 2728.27 755.373 2685.29 899.196C2597.89 1191.63 2402.29 1500.13 2134.54 1767.89C1866.78 2035.65 1558.27 2231.24 1265.84 2318.64C1122.01 2361.62 989.516 2376.19 872.051 2361.93C747.968 2346.87 646.095 2300.28 569.263 2223.45C492.431 2146.62 445.842 2044.75 430.782 1920.66C416.523 1803.19 431.093 1670.7 474.074 1526.88C561.467 1234.44 757.065 925.938 1024.82 658.18Z" stroke="url(#paint5_linear_265_46)" stroke-opacity="0.5" stroke-width="2.45417" stroke-miterlimit="10"/>
<path d="M2325.97 1455.52C2208.95 1815.66 2022.87 2129.99 1801.99 2340.62C1693.35 2444.22 1581.91 2517.35 1470.77 2557.97C1353.37 2600.89 1241.45 2605.62 1138.12 2572.04C1034.78 2538.47 947.018 2468.85 877.262 2365.13C811.228 2266.93 764.059 2142.28 737.055 1994.61C682.163 1694.37 716.382 1330.7 833.389 970.563C950.404 610.429 1136.49 296.099 1357.37 85.4649C1466.01 -18.134 1577.45 -91.2603 1688.59 -131.885C1805.99 -174.8 1917.91 -179.537 2021.24 -145.956C2124.58 -112.383 2212.34 -42.7658 2282.1 60.9558C2348.13 159.156 2395.3 283.811 2422.3 431.479C2477.2 731.715 2442.98 1095.39 2325.97 1455.52Z" stroke="url(#paint6_linear_265_46)" stroke-opacity="0.5" stroke-width="2.45417" stroke-miterlimit="10"/>
<path d="M804.66 1335.79C745.424 961.786 768.526 597.235 869.704 309.287C919.466 167.664 985.565 51.9091 1066.14 -34.7478C1151.26 -126.28 1248.83 -181.311 1356.15 -198.31C1463.47 -215.31 1573.27 -193.124 1682.51 -132.375C1785.93 -74.8571 1884.55 14.802 1975.64 134.116C2160.85 376.703 2295.48 716.279 2354.72 1090.29C2413.95 1464.29 2390.85 1828.85 2289.67 2116.79C2239.91 2258.42 2173.81 2374.17 2093.23 2460.83C2008.11 2552.36 1910.54 2607.39 1803.22 2624.39C1695.91 2641.39 1586.1 2619.21 1476.87 2558.46C1373.45 2500.94 1274.82 2411.28 1183.73 2291.97C998.523 2049.38 863.895 1709.8 804.66 1335.79Z" stroke="url(#paint7_linear_265_46)" stroke-opacity="0.5" stroke-width="2.45417" stroke-miterlimit="10"/>
<path d="M2214.51 751.813C2437.09 1058.16 2582.01 1393.47 2622.58 1695.97C2642.53 1844.75 2636.19 1977.89 2603.74 2091.69C2569.46 2211.88 2507.51 2305.22 2419.6 2369.08C2331.7 2432.95 2223.79 2463.03 2098.88 2458.5C1980.62 2454.2 1852.04 2419.09 1716.71 2354.14C1441.55 2222.07 1167.44 1980.63 944.859 1674.27C722.282 1367.93 577.363 1032.62 536.787 730.118C516.835 581.338 523.175 448.199 555.627 334.399C589.912 214.202 651.863 120.869 739.772 57.0036C827.672 -6.86222 935.582 -36.9422 1060.49 -32.4102C1178.75 -28.1154 1307.33 6.99569 1442.66 71.9495C1717.82 204.017 1991.93 445.458 2214.51 751.813Z" stroke="url(#paint8_linear_265_46)" stroke-opacity="0.5" stroke-width="2.45417" stroke-miterlimit="10"/>
<path d="M1223.45 1912.2C886.056 1740.29 604.701 1507.32 431.216 1256.21C345.892 1132.7 291.099 1011.2 268.349 895.071C244.33 772.404 257.158 661.123 306.486 564.314C355.815 467.505 438.3 391.712 551.659 339.045C658.98 289.185 789.484 262.099 939.557 258.532C1244.68 251.284 1598.54 341.966 1935.93 513.881C2273.32 685.796 2554.67 918.762 2728.16 1169.87C2813.48 1293.38 2868.28 1414.88 2891.03 1531.01C2915.05 1653.68 2902.22 1764.96 2852.89 1861.77C2803.56 1958.58 2721.08 2034.37 2607.72 2087.04C2500.4 2136.9 2369.89 2163.99 2219.82 2167.55C1914.69 2174.8 1560.84 2084.12 1223.45 1912.2Z" stroke="url(#paint9_linear_265_46)" stroke-opacity="0.5" stroke-width="2.45417" stroke-miterlimit="10"/>
<path d="M1579.69 428.354C1958.36 428.354 2314.81 508.197 2583.39 653.181C2715.49 724.492 2819.47 807.876 2892.46 901.02C2969.55 999.408 3008.64 1104.39 3008.64 1213.04C3008.64 1321.7 2969.55 1426.68 2892.46 1525.07C2819.47 1618.21 2715.49 1701.6 2583.39 1772.91C2314.81 1917.89 1958.36 1997.73 1579.69 1997.73C1201.02 1997.73 844.565 1917.89 575.989 1772.91C443.888 1701.6 339.905 1618.21 266.918 1525.07C189.824 1426.68 150.737 1321.7 150.737 1213.04C150.737 1104.39 189.824 999.408 266.918 901.02C339.905 807.876 443.888 724.492 575.989 653.181C844.565 508.197 1201.02 428.354 1579.69 428.354Z" stroke="url(#paint10_linear_265_46)" stroke-opacity="0.5" stroke-width="2.45417" stroke-miterlimit="10"/>
<path d="M1935.93 1912.2C1598.54 2084.12 1244.68 2174.8 939.557 2167.55C789.484 2163.99 658.98 2136.9 551.659 2087.04C438.3 2034.37 355.815 1958.58 306.486 1861.77C257.158 1764.96 244.33 1653.67 268.349 1531.01C291.091 1414.88 345.884 1293.38 431.216 1169.87C604.701 918.762 886.056 685.796 1223.45 513.881C1560.84 341.966 1914.69 251.284 2219.82 258.532C2369.89 262.099 2500.4 289.185 2607.72 339.045C2721.08 391.712 2803.56 467.505 2852.89 564.314C2902.22 661.123 2915.05 772.412 2891.03 895.071C2868.28 1011.2 2813.49 1132.71 2728.16 1256.21C2554.67 1507.32 2273.32 1740.29 1935.93 1912.2Z" stroke="url(#paint11_linear_265_46)" stroke-opacity="0.5" stroke-width="2.45417" stroke-miterlimit="10"/>
<path d="M944.859 751.813C1167.44 445.467 1441.54 204.017 1716.71 71.9495C1852.04 6.99569 1980.62 -28.1154 2098.88 -32.4102C2223.79 -36.9422 2331.7 -6.86222 2419.6 57.0036C2507.5 120.869 2569.46 214.202 2603.74 334.399C2636.2 448.199 2642.54 581.33 2622.58 730.118C2582.01 1032.62 2437.09 1367.93 2214.51 1674.27C1991.93 1980.62 1717.83 2222.07 1442.66 2354.14C1307.33 2419.09 1178.75 2454.2 1060.49 2458.5C935.582 2463.03 827.672 2432.95 739.772 2369.08C651.872 2305.22 589.912 2211.88 555.627 2091.69C523.166 1977.89 516.826 1844.76 536.787 1695.97C577.363 1393.47 722.282 1058.16 944.859 751.813Z" stroke="url(#paint12_linear_265_46)" stroke-opacity="0.5" stroke-width="2.45417" stroke-miterlimit="10"/>
<path d="M2354.72 1335.79C2295.48 1709.8 2160.86 2049.37 1975.64 2291.97C1884.55 2411.28 1785.92 2500.94 1682.51 2558.46C1573.27 2619.21 1463.47 2641.39 1356.15 2624.39C1248.84 2607.39 1151.26 2552.36 1066.14 2460.83C985.565 2374.17 919.466 2258.42 869.704 2116.79C768.526 1828.85 745.424 1464.29 804.66 1090.29C863.895 716.279 998.515 376.711 1183.73 134.116C1274.82 14.802 1373.46 -74.8571 1476.87 -132.375C1586.1 -193.124 1695.91 -215.31 1803.22 -198.31C1910.54 -181.311 2008.11 -126.28 2093.23 -34.7478C2173.81 51.9091 2239.91 167.656 2289.67 309.287C2390.85 597.235 2413.95 961.794 2354.72 1335.79Z" stroke="url(#paint13_linear_265_46)" stroke-opacity="0.5" stroke-width="2.45417" stroke-miterlimit="10"/>
<path d="M833.406 1455.53C716.391 1095.39 682.18 731.707 737.072 431.48C764.068 283.812 811.245 159.148 877.279 60.9566C947.026 -42.765 1034.8 -112.382 1138.13 -145.955C1241.47 -179.528 1353.39 -174.791 1470.79 -131.884C1581.93 -91.2513 1693.37 -18.125 1802 85.4657C2022.89 296.099 2208.97 610.43 2325.99 970.564C2443 1330.7 2477.21 1694.38 2422.32 1994.61C2395.32 2142.28 2348.15 2266.94 2282.11 2365.13C2212.37 2468.85 2124.6 2538.47 2021.26 2572.04C1917.92 2605.62 1806 2600.88 1688.6 2557.97C1577.46 2517.34 1466.03 2444.21 1357.39 2340.62C1136.5 2129.99 950.421 1815.66 833.406 1455.53Z" stroke="url(#paint14_linear_265_46)" stroke-opacity="0.5" stroke-width="2.45417" stroke-miterlimit="10"/>
<path d="M2134.54 658.18C2402.3 925.938 2597.89 1234.44 2685.29 1526.88C2728.27 1670.71 2742.84 1803.2 2728.59 1920.66C2713.52 2044.75 2666.94 2146.62 2590.1 2223.45C2513.27 2300.28 2411.4 2346.87 2287.32 2361.93C2169.84 2376.19 2037.35 2361.62 1893.53 2318.64C1601.1 2231.25 1292.59 2035.65 1024.83 1767.89C757.073 1500.13 561.483 1191.63 474.082 899.196C431.101 755.365 416.532 622.872 430.79 505.407C445.851 381.324 492.439 279.451 569.271 202.619C646.103 125.787 747.976 79.1989 872.059 64.1385C989.532 49.8797 1122.03 64.4494 1265.85 107.43C1558.28 194.823 1866.79 390.421 2134.54 658.18Z" stroke="url(#paint15_linear_265_46)" stroke-opacity="0.5" stroke-width="2.45417" stroke-miterlimit="10"/>
<path d="M1337.21 1959.32C977.073 1842.31 662.743 1656.23 452.109 1435.34C348.51 1326.7 275.384 1215.27 234.759 1104.13C191.844 986.727 187.107 874.808 220.688 771.471C254.261 668.134 323.878 580.373 427.6 510.617C525.8 444.583 650.455 397.414 798.123 370.41C1098.36 315.518 1462.03 349.737 1822.17 466.744C2182.3 583.759 2496.63 769.843 2707.27 990.727C2810.87 1099.37 2883.99 1210.8 2924.62 1321.94C2967.53 1439.34 2972.27 1551.26 2938.69 1654.6C2905.11 1757.93 2835.5 1845.7 2731.78 1915.45C2633.58 1981.49 2508.92 2028.65 2361.25 2055.66C2061.02 2110.55 1697.34 2076.33 1337.21 1959.32Z" stroke="url(#paint16_linear_265_46)" stroke-opacity="0.5" stroke-width="2.45417" stroke-miterlimit="10"/>
<path d="M1456.93 438.015C1830.94 378.78 2195.49 401.882 2483.44 503.059C2625.06 552.822 2740.82 618.921 2827.47 699.499C2919 784.618 2974.04 882.188 2991.03 989.509C3008.03 1096.82 2985.85 1206.63 2925.1 1315.87C2867.58 1419.28 2777.92 1517.91 2658.61 1609C2416.02 1794.21 2076.45 1928.84 1702.44 1988.07C1328.43 2047.31 963.878 2024.21 675.93 1923.03C534.308 1873.27 418.553 1807.17 331.896 1726.59C240.363 1641.47 185.332 1543.9 168.333 1436.58C151.334 1329.27 173.52 1219.46 234.269 1110.22C291.786 1006.8 381.446 908.178 500.759 817.087C743.346 631.879 1082.92 497.251 1456.93 438.015Z" stroke="url(#paint17_linear_265_46)" stroke-opacity="0.5" stroke-width="2.45417" stroke-miterlimit="10"/>
<path d="M2040.92 1847.86C1734.57 2070.44 1399.27 2215.36 1096.76 2255.94C947.983 2275.89 814.845 2269.55 701.044 2237.1C580.847 2202.81 487.515 2140.86 423.649 2052.95C359.783 1965.05 329.703 1857.14 334.235 1732.23C338.53 1613.97 373.641 1485.39 438.595 1350.06C570.662 1074.91 812.104 800.791 1118.46 578.213C1424.81 355.636 1760.11 210.717 2062.61 170.141C2211.39 150.189 2344.53 156.529 2458.33 188.981C2578.53 223.266 2671.86 285.217 2735.73 373.126C2799.59 461.026 2829.67 568.936 2825.14 693.846C2820.85 812.104 2785.74 940.687 2720.78 1076.02C2588.71 1351.17 2347.27 1625.29 2040.92 1847.86Z" stroke="url(#paint18_linear_265_46)" stroke-opacity="0.5" stroke-width="2.45417" stroke-miterlimit="10"/>
<path d="M880.526 856.796C1052.44 519.404 1285.41 238.05 1536.52 64.564C1660.03 -20.7595 1781.53 -75.553 1897.66 -98.3032C2020.33 -122.321 2131.61 -109.494 2228.42 -60.1654C2325.22 -10.8365 2401.02 71.6484 2453.68 185.007C2503.55 292.328 2530.63 422.833 2534.2 572.905C2541.45 878.033 2450.76 1231.88 2278.85 1569.28C2106.93 1906.67 1873.97 2188.02 1622.86 2361.51C1499.35 2446.83 1377.85 2501.62 1261.72 2524.37C1139.05 2548.39 1027.77 2535.57 930.959 2486.24C834.15 2436.91 758.357 2354.42 705.69 2241.06C655.83 2133.74 628.744 2003.24 625.177 1853.17C617.929 1548.04 708.611 1194.19 880.526 856.796Z" stroke="url(#paint19_linear_265_46)" stroke-opacity="0.5" stroke-width="2.45417" stroke-miterlimit="10"/>
<path d="M2364.38 1213.04C2364.38 1591.71 2284.54 1948.17 2139.55 2216.74C2068.24 2348.84 1984.86 2452.83 1891.71 2525.81C1793.32 2602.91 1688.34 2641.99 1579.69 2641.99C1471.03 2641.99 1366.05 2602.91 1267.66 2525.81C1174.52 2452.83 1091.14 2348.84 1019.83 2216.74C874.841 1948.17 794.999 1591.71 794.999 1213.04C794.999 834.372 874.841 477.92 1019.83 209.343C1091.14 77.2429 1174.52 -26.7404 1267.66 -99.7276C1366.05 -176.821 1471.03 -215.908 1579.69 -215.908C1688.34 -215.908 1793.32 -176.821 1891.71 -99.7276C1984.86 -26.7404 2068.24 77.2429 2139.55 209.343C2284.54 477.92 2364.38 834.372 2364.38 1213.04Z" stroke="url(#paint20_linear_265_46)" stroke-opacity="0.5" stroke-width="2.45417" stroke-miterlimit="10"/>
<path d="M880.526 1569.28C708.611 1231.89 617.929 878.04 625.177 572.912C628.744 422.839 655.83 292.335 705.69 185.014C758.357 71.6552 834.15 -10.8296 930.959 -60.1585C1027.77 -109.487 1139.06 -122.315 1261.72 -98.2964C1377.85 -75.5544 1499.35 -20.7608 1622.86 64.5708C1873.97 238.056 2106.93 519.411 2278.85 856.803C2450.76 1194.19 2541.45 1548.05 2534.2 1853.17C2530.63 2003.25 2503.55 2133.75 2453.68 2241.07C2401.02 2354.43 2325.22 2436.91 2228.42 2486.24C2131.61 2535.57 2020.32 2548.4 1897.66 2524.38C1781.53 2501.64 1660.02 2446.85 1536.52 2361.51C1285.41 2188.03 1052.44 1906.67 880.526 1569.28Z" stroke="url(#paint21_linear_265_46)" stroke-opacity="0.5" stroke-width="2.45417" stroke-miterlimit="10"/>
<path d="M2040.92 578.214C2347.26 800.791 2588.71 1074.9 2720.78 1350.06C2785.74 1485.39 2820.85 1613.97 2825.14 1732.23C2829.67 1857.14 2799.59 1965.05 2735.73 2052.95C2671.86 2140.85 2578.53 2202.81 2458.33 2237.1C2344.53 2269.56 2211.4 2275.9 2062.61 2255.94C1760.11 2215.36 1424.81 2070.44 1118.46 1847.87C812.112 1625.29 570.662 1351.18 438.595 1076.02C373.641 940.688 338.53 812.105 334.235 693.847C329.703 568.937 359.783 461.027 423.649 373.127C487.515 285.227 580.847 223.267 701.044 188.982C814.845 156.521 947.975 150.181 1096.76 170.142C1399.27 210.718 1734.57 355.637 2040.92 578.214Z" stroke="url(#paint22_linear_265_46)" stroke-opacity="0.5" stroke-width="2.45417" stroke-miterlimit="10"/>
<path d="M1456.93 1988.07C1082.92 1928.84 743.355 1794.22 500.759 1609C381.446 1517.91 291.786 1419.28 234.269 1315.87C173.52 1206.63 151.334 1096.82 168.333 989.509C185.332 882.196 240.363 784.618 331.896 699.499C418.553 618.921 534.3 552.822 675.93 503.059C963.878 401.882 1328.44 378.78 1702.44 438.015C2076.45 497.251 2416.01 631.871 2658.61 817.087C2777.92 908.178 2867.58 1006.81 2925.1 1110.22C2985.85 1219.46 3008.03 1329.27 2991.03 1436.58C2974.04 1543.89 2919 1641.47 2827.47 1726.59C2740.82 1807.17 2625.07 1873.27 2483.44 1923.03C2195.49 2024.21 1830.93 2047.31 1456.93 1988.07Z" stroke="url(#paint23_linear_265_46)" stroke-opacity="0.5" stroke-width="2.45417" stroke-miterlimit="10"/>
<path d="M1337.21 466.753C1697.34 349.738 2061.03 315.527 2361.25 370.418C2508.92 397.414 2633.58 444.592 2731.78 510.625C2835.5 580.373 2905.11 668.142 2938.69 771.48C2972.26 874.817 2967.52 986.735 2924.62 1104.13C2883.98 1215.28 2810.86 1326.71 2707.27 1435.35C2496.63 1656.23 2182.3 1842.32 1822.17 1959.33C1462.04 2076.35 1098.35 2110.56 798.124 2055.67C650.456 2028.67 525.792 1981.49 427.601 1915.46C323.879 1845.71 254.262 1757.94 220.689 1654.61C187.116 1551.27 191.853 1439.35 234.76 1321.95C275.393 1210.81 348.519 1099.37 452.11 990.736C662.743 769.852 977.074 583.768 1337.21 466.753Z" stroke="url(#paint24_linear_265_46)" stroke-opacity="0.5" stroke-width="2.45417" stroke-miterlimit="10"/>
<path d="M2134.54 1767.9C1866.79 2035.66 1558.28 2231.25 1265.85 2318.65C1122.02 2361.63 989.524 2376.2 872.059 2361.94C747.976 2346.88 646.103 2300.29 569.271 2223.46C492.439 2146.63 445.851 2044.75 430.79 1920.67C416.532 1803.2 431.101 1670.71 474.082 1526.88C561.475 1234.45 757.073 925.945 1024.83 658.187C1292.59 390.428 1601.1 194.838 1893.53 107.437C2037.36 64.4562 2169.85 49.8866 2287.32 64.1453C2411.4 79.2058 2513.27 125.794 2590.1 202.626C2666.94 279.458 2713.52 381.331 2728.59 505.414C2742.84 622.887 2728.27 755.38 2685.29 899.203C2597.9 1191.63 2402.3 1500.14 2134.54 1767.9Z" stroke="url(#paint25_linear_265_46)" stroke-opacity="0.5" stroke-width="2.45417" stroke-miterlimit="10"/>
<path d="M833.407 970.554C950.422 610.42 1136.51 296.09 1357.39 85.4561C1466.03 -18.1428 1577.46 -91.2691 1688.61 -131.894C1806 -174.809 1917.92 -179.546 2021.26 -145.964C2124.6 -112.391 2212.36 -42.7746 2282.11 60.947C2348.15 159.147 2395.32 283.802 2422.32 431.47C2477.21 731.706 2442.99 1095.38 2325.99 1455.52C2208.97 1815.65 2022.89 2129.98 1802 2340.61C1693.37 2444.21 1581.93 2517.34 1470.79 2557.96C1353.39 2600.88 1241.47 2605.62 1138.13 2572.03C1034.8 2538.46 947.035 2468.84 877.279 2365.12C811.246 2266.92 764.076 2142.27 737.072 1994.6C682.181 1694.36 716.4 1330.69 833.407 970.554Z" stroke="url(#paint26_linear_265_46)" stroke-opacity="0.5" stroke-width="2.45417" stroke-miterlimit="10"/>
<path d="M2354.72 1090.29C2413.95 1464.29 2390.85 1828.85 2289.67 2116.79C2239.91 2258.42 2173.81 2374.17 2093.23 2460.83C2008.11 2552.36 1910.54 2607.39 1803.22 2624.39C1695.91 2641.39 1586.1 2619.21 1476.87 2558.46C1373.45 2500.94 1274.82 2411.28 1183.73 2291.97C998.523 2049.38 863.895 1709.8 804.66 1335.79C745.424 961.786 768.526 597.235 869.704 309.287C919.466 167.664 985.565 51.9091 1066.14 -34.7478C1151.26 -126.28 1248.83 -181.311 1356.15 -198.31C1463.47 -215.31 1573.27 -193.124 1682.51 -132.375C1785.93 -74.8571 1884.55 14.802 1975.64 134.116C2160.85 376.703 2295.48 716.279 2354.72 1090.29Z" stroke="url(#paint27_linear_265_46)" stroke-opacity="0.5" stroke-width="2.45417" stroke-miterlimit="10"/>
<path d="M944.859 1674.27C722.282 1367.93 577.363 1032.62 536.787 730.118C516.835 581.338 523.175 448.199 555.627 334.399C589.912 214.202 651.863 120.869 739.772 57.0036C827.672 -6.86222 935.582 -36.9422 1060.49 -32.4102C1178.75 -28.1154 1307.33 6.99569 1442.66 71.9495C1717.82 204.017 1991.93 445.458 2214.51 751.813C2437.09 1058.16 2582.01 1393.47 2622.58 1695.97C2642.53 1844.75 2636.19 1977.89 2603.74 2091.69C2569.46 2211.88 2507.51 2305.22 2419.6 2369.08C2331.7 2432.95 2223.79 2463.03 2098.88 2458.5C1980.62 2454.2 1852.04 2419.09 1716.71 2354.14C1441.55 2222.07 1167.44 1980.63 944.859 1674.27Z" stroke="url(#paint28_linear_265_46)" stroke-opacity="0.5" stroke-width="2.45417" stroke-miterlimit="10"/>
<path d="M1935.93 513.874C2273.32 685.789 2554.67 918.756 2728.16 1169.87C2813.48 1293.38 2868.28 1414.88 2891.03 1531.01C2915.05 1653.67 2902.22 1764.95 2852.89 1861.76C2803.56 1958.57 2721.08 2034.37 2607.72 2087.03C2500.4 2136.89 2369.89 2163.98 2219.82 2167.55C1914.69 2174.79 1560.84 2084.11 1223.45 1912.2C886.056 1740.28 604.701 1507.32 431.216 1256.2C345.892 1132.69 291.099 1011.2 268.349 895.065C244.33 772.397 257.158 661.116 306.486 564.307C355.815 467.498 438.3 391.705 551.659 339.039C658.98 289.178 789.484 262.092 939.557 258.525C1244.68 251.277 1598.54 341.959 1935.93 513.874Z" stroke="url(#paint29_linear_265_46)" stroke-opacity="0.5" stroke-width="2.45417" stroke-miterlimit="10"/>
<path d="M1579.69 1997.73C1201.02 1997.73 844.565 1917.89 575.989 1772.91C443.888 1701.6 339.905 1618.21 266.918 1525.07C189.824 1426.68 150.737 1321.7 150.737 1213.04C150.737 1104.39 189.824 999.408 266.918 901.02C339.905 807.876 443.888 724.492 575.989 653.181C844.565 508.197 1201.02 428.354 1579.69 428.354C1958.36 428.354 2314.81 508.197 2583.39 653.181C2715.49 724.492 2819.47 807.876 2892.46 901.02C2969.55 999.408 3008.64 1104.39 3008.64 1213.04C3008.64 1321.7 2969.55 1426.68 2892.46 1525.07C2819.47 1618.21 2715.49 1701.6 2583.39 1772.91C2314.81 1917.89 1958.36 1997.73 1579.69 1997.73Z" stroke="url(#paint30_linear_265_46)" stroke-opacity="0.5" stroke-width="2.45417" stroke-miterlimit="10"/>
</g>
<defs>
<linearGradient id="paint0_linear_265_46" x1="1579.69" y1="-215.908" x2="1579.69" y2="2641.99" gradientUnits="userSpaceOnUse">
<stop stop-color="#95BF47"/>
<stop offset="1" stop-color="#5E8E3E"/>
</linearGradient>
<linearGradient id="paint1_linear_265_46" x1="1579.69" y1="-110.058" x2="1579.69" y2="2536.13" gradientUnits="userSpaceOnUse">
<stop stop-color="#95BF47"/>
<stop offset="1" stop-color="#5E8E3E"/>
</linearGradient>
<linearGradient id="paint2_linear_265_46" x1="1579.69" y1="158.771" x2="1579.69" y2="2267.31" gradientUnits="userSpaceOnUse">
<stop stop-color="#95BF47"/>
<stop offset="1" stop-color="#5E8E3E"/>
</linearGradient>
<linearGradient id="paint3_linear_265_46" x1="1579.68" y1="405.853" x2="1579.68" y2="2020.23" gradientUnits="userSpaceOnUse">
<stop stop-color="#95BF47"/>
<stop offset="1" stop-color="#5E8E3E"/>
</linearGradient>
<linearGradient id="paint4_linear_265_46" x1="1579.69" y1="344.862" x2="1579.69" y2="2081.21" gradientUnits="userSpaceOnUse">
<stop stop-color="#95BF47"/>
<stop offset="1" stop-color="#5E8E3E"/>
</linearGradient>
<linearGradient id="paint5_linear_265_46" x1="1579.68" y1="58.8428" x2="1579.68" y2="2367.23" gradientUnits="userSpaceOnUse">
<stop stop-color="#95BF47"/>
<stop offset="1" stop-color="#5E8E3E"/>
</linearGradient>
<linearGradient id="paint6_linear_265_46" x1="1579.68" y1="-168.04" x2="1579.68" y2="2594.13" gradientUnits="userSpaceOnUse">
<stop stop-color="#95BF47"/>
<stop offset="1" stop-color="#5E8E3E"/>
</linearGradient>
<linearGradient id="paint7_linear_265_46" x1="1579.69" y1="-203.848" x2="1579.69" y2="2629.93" gradientUnits="userSpaceOnUse">
<stop stop-color="#95BF47"/>
<stop offset="1" stop-color="#5E8E3E"/>
</linearGradient>
<linearGradient id="paint8_linear_265_46" x1="1579.68" y1="-32.8555" x2="1579.68" y2="2458.94" gradientUnits="userSpaceOnUse">
<stop stop-color="#95BF47"/>
<stop offset="1" stop-color="#5E8E3E"/>
</linearGradient>
<linearGradient id="paint9_linear_265_46" x1="1579.69" y1="258.129" x2="1579.69" y2="2167.96" gradientUnits="userSpaceOnUse">
<stop stop-color="#95BF47"/>
<stop offset="1" stop-color="#5E8E3E"/>
</linearGradient>
<linearGradient id="paint10_linear_265_46" x1="1579.69" y1="428.354" x2="1579.69" y2="1997.73" gradientUnits="userSpaceOnUse">
<stop stop-color="#95BF47"/>
<stop offset="1" stop-color="#5E8E3E"/>
</linearGradient>
<linearGradient id="paint11_linear_265_46" x1="1579.69" y1="258.129" x2="1579.69" y2="2167.96" gradientUnits="userSpaceOnUse">
<stop stop-color="#95BF47"/>
<stop offset="1" stop-color="#5E8E3E"/>
</linearGradient>
<linearGradient id="paint12_linear_265_46" x1="1579.68" y1="-32.8555" x2="1579.68" y2="2458.94" gradientUnits="userSpaceOnUse">
<stop stop-color="#95BF47"/>
<stop offset="1" stop-color="#5E8E3E"/>
</linearGradient>
<linearGradient id="paint13_linear_265_46" x1="1579.69" y1="-203.848" x2="1579.69" y2="2629.93" gradientUnits="userSpaceOnUse">
<stop stop-color="#95BF47"/>
<stop offset="1" stop-color="#5E8E3E"/>
</linearGradient>
<linearGradient id="paint14_linear_265_46" x1="1579.7" y1="-168.033" x2="1579.7" y2="2594.12" gradientUnits="userSpaceOnUse">
<stop stop-color="#95BF47"/>
<stop offset="1" stop-color="#5E8E3E"/>
</linearGradient>
<linearGradient id="paint15_linear_265_46" x1="1579.69" y1="58.8428" x2="1579.69" y2="2367.23" gradientUnits="userSpaceOnUse">
<stop stop-color="#95BF47"/>
<stop offset="1" stop-color="#5E8E3E"/>
</linearGradient>
<linearGradient id="paint16_linear_265_46" x1="1579.69" y1="344.862" x2="1579.69" y2="2081.21" gradientUnits="userSpaceOnUse">
<stop stop-color="#95BF47"/>
<stop offset="1" stop-color="#5E8E3E"/>
</linearGradient>
<linearGradient id="paint17_linear_265_46" x1="1579.68" y1="405.853" x2="1579.68" y2="2020.23" gradientUnits="userSpaceOnUse">
<stop stop-color="#95BF47"/>
<stop offset="1" stop-color="#5E8E3E"/>
</linearGradient>
<linearGradient id="paint18_linear_265_46" x1="1579.69" y1="158.775" x2="1579.69" y2="2267.3" gradientUnits="userSpaceOnUse">
<stop stop-color="#95BF47"/>
<stop offset="1" stop-color="#5E8E3E"/>
</linearGradient>
<linearGradient id="paint19_linear_265_46" x1="1579.69" y1="-110.058" x2="1579.69" y2="2536.13" gradientUnits="userSpaceOnUse">
<stop stop-color="#95BF47"/>
<stop offset="1" stop-color="#5E8E3E"/>
</linearGradient>
<linearGradient id="paint20_linear_265_46" x1="1579.69" y1="-215.908" x2="1579.69" y2="2641.99" gradientUnits="userSpaceOnUse">
<stop stop-color="#95BF47"/>
<stop offset="1" stop-color="#5E8E3E"/>
</linearGradient>
<linearGradient id="paint21_linear_265_46" x1="1579.69" y1="-110.051" x2="1579.69" y2="2536.14" gradientUnits="userSpaceOnUse">
<stop stop-color="#95BF47"/>
<stop offset="1" stop-color="#5E8E3E"/>
</linearGradient>
<linearGradient id="paint22_linear_265_46" x1="1579.69" y1="158.771" x2="1579.69" y2="2267.31" gradientUnits="userSpaceOnUse">
<stop stop-color="#95BF47"/>
<stop offset="1" stop-color="#5E8E3E"/>
</linearGradient>
<linearGradient id="paint23_linear_265_46" x1="1579.68" y1="405.853" x2="1579.68" y2="2020.23" gradientUnits="userSpaceOnUse">
<stop stop-color="#95BF47"/>
<stop offset="1" stop-color="#5E8E3E"/>
</linearGradient>
<linearGradient id="paint24_linear_265_46" x1="1579.69" y1="344.869" x2="1579.69" y2="2081.22" gradientUnits="userSpaceOnUse">
<stop stop-color="#95BF47"/>
<stop offset="1" stop-color="#5E8E3E"/>
</linearGradient>
<linearGradient id="paint25_linear_265_46" x1="1579.69" y1="58.8496" x2="1579.69" y2="2367.24" gradientUnits="userSpaceOnUse">
<stop stop-color="#95BF47"/>
<stop offset="1" stop-color="#5E8E3E"/>
</linearGradient>
<linearGradient id="paint26_linear_265_46" x1="1579.7" y1="-168.049" x2="1579.7" y2="2594.12" gradientUnits="userSpaceOnUse">
<stop stop-color="#95BF47"/>
<stop offset="1" stop-color="#5E8E3E"/>
</linearGradient>
<linearGradient id="paint27_linear_265_46" x1="1579.69" y1="-203.848" x2="1579.69" y2="2629.93" gradientUnits="userSpaceOnUse">
<stop stop-color="#95BF47"/>
<stop offset="1" stop-color="#5E8E3E"/>
</linearGradient>
<linearGradient id="paint28_linear_265_46" x1="1579.68" y1="-32.8555" x2="1579.68" y2="2458.94" gradientUnits="userSpaceOnUse">
<stop stop-color="#95BF47"/>
<stop offset="1" stop-color="#5E8E3E"/>
</linearGradient>
<linearGradient id="paint29_linear_265_46" x1="1579.69" y1="258.122" x2="1579.69" y2="2167.95" gradientUnits="userSpaceOnUse">
<stop stop-color="#95BF47"/>
<stop offset="1" stop-color="#5E8E3E"/>
</linearGradient>
<linearGradient id="paint30_linear_265_46" x1="1579.69" y1="428.354" x2="1579.69" y2="1997.73" gradientUnits="userSpaceOnUse">
<stop stop-color="#95BF47"/>
<stop offset="1" stop-color="#5E8E3E"/>
</linearGradient>
<clipPath id="clip0_265_46">
<rect width="3157" height="3149.86" fill="white" transform="translate(0 -351)"/>
</clipPath>
</defs>
</svg>
