<svg width="1601" height="2160" viewBox="0 0 1601 2160" fill="none" xmlns="http://www.w3.org/2000/svg">
<path d="M2362.19 1550.42C2432.26 538.289 2147.98 -321.633 1727.22 -370.267C1306.47 -418.901 908.571 362.171 838.495 1374.31C768.419 2386.44 1052.7 3246.36 1473.46 3295C1894.21 3343.63 2292.11 2562.56 2362.19 1550.42Z" stroke="url(#paint0_linear_219_13591)" stroke-opacity="0.5" stroke-width="3.43597" stroke-miterlimit="10"/>
<path d="M1986.28 2343.6C2656.55 1855.51 3027.74 1065.14 2815.36 578.251C2602.98 91.3625 1887.46 92.332 1217.2 580.417C546.94 1068.5 175.751 1858.88 388.127 2345.76C600.503 2832.65 1316.02 2831.68 1986.28 2343.6Z" stroke="url(#paint1_linear_219_13591)" stroke-opacity="0.5" stroke-width="3.43597" stroke-miterlimit="10"/>
<path d="M2740.45 2443.29C2984.64 1969.18 2672.26 1146.02 2042.73 604.732C1413.2 63.4407 704.906 8.98695 460.718 483.106C216.529 957.224 528.913 1780.38 1158.44 2321.67C1787.98 2862.96 2496.27 2917.41 2740.45 2443.29Z" stroke="url(#paint2_linear_219_13591)" stroke-opacity="0.5" stroke-width="3.43597" stroke-miterlimit="10"/>
<path d="M2367.01 1501.01C2398.12 484.201 2079.99 -357.619 1656.44 -379.253C1232.9 -400.887 864.328 405.859 833.219 1422.66C802.109 2439.47 1120.24 3281.29 1543.78 3302.92C1967.33 3324.56 2335.9 2517.81 2367.01 1501.01Z" stroke="url(#paint3_linear_219_13591)" stroke-opacity="0.5" stroke-width="3.43597" stroke-miterlimit="10"/>
<path d="M2022.04 2314.48C2674.26 1778.03 3014.72 960.993 2782.46 489.564C2550.21 18.1354 1833.19 70.8416 1180.96 607.287C528.736 1143.73 188.28 1960.78 420.536 2432.2C652.791 2903.63 1369.81 2850.92 2022.04 2314.48Z" stroke="url(#paint4_linear_219_13591)" stroke-opacity="0.5" stroke-width="3.43597" stroke-miterlimit="10"/>
<path d="M2784.36 2357.24C3007.67 1863.71 2658.93 1063.46 2005.44 569.832C1351.95 76.2045 641.163 76.1283 417.858 569.661C194.552 1063.19 543.287 1863.44 1196.78 2357.07C1850.27 2850.7 2561.05 2850.78 2784.36 2357.24Z" stroke="url(#paint5_linear_219_13591)" stroke-opacity="0.5" stroke-width="3.43597" stroke-miterlimit="10"/>
<path d="M1614 3306.35C2039.4 3300.69 2377.66 2470.28 2369.54 1451.57C2361.42 432.867 2009.98 -388.369 1584.59 -382.707C1159.2 -377.045 820.941 453.371 829.062 1472.08C837.184 2490.78 1188.61 3312.02 1614 3306.35Z" stroke="url(#paint6_linear_219_13591)" stroke-opacity="0.5" stroke-width="3.43597" stroke-miterlimit="10"/>
<path d="M2055.84 2284.83C2688.18 1701.59 2997.11 860.115 2745.85 405.334C2494.6 -49.4462 1778.3 54.6866 1145.96 637.923C513.614 1221.16 204.685 2062.64 455.943 2517.42C707.2 2972.2 1423.5 2868.07 2055.84 2284.83Z" stroke="url(#paint7_linear_219_13591)" stroke-opacity="0.5" stroke-width="3.43597" stroke-miterlimit="10"/>
<path d="M2824.19 2267.76C3025.5 1756.43 2641.04 981.966 1965.47 537.936C1289.91 93.906 579.059 148.459 377.748 659.784C176.437 1171.11 560.898 1945.58 1236.46 2389.61C1912.03 2833.64 2622.87 2779.08 2824.19 2267.76Z" stroke="url(#paint8_linear_219_13591)" stroke-opacity="0.5" stroke-width="3.43597" stroke-miterlimit="10"/>
<path d="M1687.22 3306.21C2113.51 3272.88 2420.45 2420.65 2372.78 1402.7C2325.11 384.749 1940.88 -413.447 1514.59 -380.118C1088.29 -346.79 781.355 505.443 829.027 1523.4C876.699 2541.35 1260.92 3339.54 1687.22 3306.21Z" stroke="url(#paint9_linear_219_13591)" stroke-opacity="0.5" stroke-width="3.43597" stroke-miterlimit="10"/>
<path d="M2088.36 2252.7C2699.02 1624.27 2975.64 760.519 2706.22 323.452C2436.8 -113.616 1723.36 41.5101 1112.7 669.936C502.046 1298.36 225.421 2162.12 494.842 2599.18C764.263 3036.25 1477.71 2881.12 2088.36 2252.7Z" stroke="url(#paint10_linear_219_13591)" stroke-opacity="0.5" stroke-width="3.43597" stroke-miterlimit="10"/>
<path d="M2860.94 2173.56C3039.25 1646.14 2619.84 900.28 1924.17 507.643C1228.5 115.006 520.003 224.273 341.694 751.699C163.384 1279.13 582.789 2024.98 1278.46 2417.62C1974.13 2810.26 2682.63 2700.99 2860.94 2173.56Z" stroke="url(#paint11_linear_219_13591)" stroke-opacity="0.5" stroke-width="3.43597" stroke-miterlimit="10"/>
<path d="M1759.41 3299.67C2185.6 3238.39 2460.28 2366.44 2372.92 1352.1C2285.56 337.768 1869.25 -434.838 1443.06 -373.559C1016.87 -312.281 742.186 559.676 829.545 1574.01C916.904 2588.35 1333.22 3360.95 1759.41 3299.67Z" stroke="url(#paint12_linear_219_13591)" stroke-opacity="0.5" stroke-width="3.43597" stroke-miterlimit="10"/>
<path d="M2119.63 2220.76C2706.91 1548.9 2950.59 665.104 2663.91 246.739C2377.22 -171.625 1668.73 33.8698 1081.44 705.725C494.16 1377.58 250.479 2261.38 537.165 2679.74C823.852 3098.11 1532.34 2892.61 2119.63 2220.76Z" stroke="url(#paint13_linear_219_13591)" stroke-opacity="0.5" stroke-width="3.43597" stroke-miterlimit="10"/>
<path d="M2893.05 2075.26C3047.45 1533.56 2594.06 819.125 1880.37 479.514C1166.68 139.902 462.951 303.723 308.549 845.416C154.148 1387.11 607.54 2101.55 1321.23 2441.16C2034.92 2780.77 2738.64 2616.95 2893.05 2075.26Z" stroke="url(#paint14_linear_219_13591)" stroke-opacity="0.5" stroke-width="3.43597" stroke-miterlimit="10"/>
<path d="M1830.82 3287.73C2255.84 3198.26 2497.36 2308.69 2370.28 1300.82C2243.2 292.953 1795.63 -451.561 1370.61 -362.094C945.596 -272.626 704.071 616.943 831.154 1624.81C958.236 2632.68 1405.8 3377.19 1830.82 3287.73Z" stroke="url(#paint15_linear_219_13591)" stroke-opacity="0.5" stroke-width="3.43597" stroke-miterlimit="10"/>
<path d="M2150.48 2183.26C2712.68 1469.69 2922.69 568.005 2619.56 169.292C2316.43 -229.422 1614.94 25.8195 1052.74 739.391C490.541 1452.96 280.529 2354.65 583.663 2753.36C886.797 3152.08 1588.29 2896.83 2150.48 2183.26Z" stroke="url(#paint16_linear_219_13591)" stroke-opacity="0.5" stroke-width="3.43597" stroke-miterlimit="10"/>
<path d="M2921.19 1978.51C3050.96 1424.54 2564.81 744.19 1835.34 458.899C1105.86 173.608 409.307 391.412 279.533 945.378C149.76 1499.34 635.912 2179.69 1365.38 2464.99C2094.86 2750.28 2791.41 2532.47 2921.19 1978.51Z" stroke="url(#paint17_linear_219_13591)" stroke-opacity="0.5" stroke-width="3.43597" stroke-miterlimit="10"/>
<path d="M1903.8 3269.33C2326.59 3151.41 2534.1 2246.31 2367.27 1247.74C2200.45 249.159 1722.47 -464.757 1299.68 -346.839C876.89 -228.922 669.389 676.176 836.214 1674.75C1003.04 2673.33 1481.01 3387.24 1903.8 3269.33Z" stroke="url(#paint18_linear_219_13591)" stroke-opacity="0.5" stroke-width="3.43597" stroke-miterlimit="10"/>
<path d="M2176.98 2147.44C2712.51 1394.23 2888.35 477.032 2569.72 98.829C2251.09 -279.375 1558.66 24.6316 1023.12 777.847C487.593 1531.06 311.758 2448.26 630.386 2826.46C949.014 3204.67 1641.45 2900.66 2176.98 2147.44Z" stroke="url(#paint19_linear_219_13591)" stroke-opacity="0.5" stroke-width="3.43597" stroke-miterlimit="10"/>
<path d="M2944.75 1877.54C3049.24 1313.32 2531.61 669.709 1788.6 439.992C1045.58 210.276 358.545 481.443 254.057 1045.66C149.569 1609.88 667.198 2253.49 1410.21 2483.21C2153.23 2712.92 2840.26 2441.76 2944.75 1877.54Z" stroke="url(#paint20_linear_219_13591)" stroke-opacity="0.5" stroke-width="3.43597" stroke-miterlimit="10"/>
<path d="M1974.88 3249.15C2394.33 3102.69 2567.09 2184.26 2360.75 1197.79C2154.42 211.308 1647.13 -469.659 1227.69 -323.196C808.248 -176.733 635.488 741.696 841.82 1728.17C1048.15 2714.65 1555.44 3395.62 1974.88 3249.15Z" stroke="url(#paint21_linear_219_13591)" stroke-opacity="0.5" stroke-width="3.43597" stroke-miterlimit="10"/>
<path d="M2203.26 2108.57C2710.6 1317.65 2851.72 387.174 2518.46 30.292C2185.2 -326.59 1503.76 25.265 996.423 816.183C489.084 1607.1 347.965 2537.58 681.225 2894.46C1014.48 3251.34 1695.92 2899.49 2203.26 2108.57Z" stroke="url(#paint22_linear_219_13591)" stroke-opacity="0.5" stroke-width="3.43597" stroke-miterlimit="10"/>
<path d="M2967 1774.6C3045.74 1202.17 2498.09 597.7 1743.78 424.473C989.467 251.245 314.143 574.863 235.4 1147.29C156.657 1719.72 704.313 2324.2 1458.62 2497.43C2212.93 2670.65 2888.26 2347.03 2967 1774.6Z" stroke="url(#paint23_linear_219_13591)" stroke-opacity="0.5" stroke-width="3.43597" stroke-miterlimit="10"/>
<path d="M2047.16 3221.29C2462.11 3046.11 2599.33 2116.55 2353.66 1145.05C2107.99 173.561 1572.45 -471.98 1157.5 -296.8C742.555 -121.621 605.331 807.943 851.003 1779.44C1096.68 2750.93 1632.21 3396.47 2047.16 3221.29Z" stroke="url(#paint24_linear_219_13591)" stroke-opacity="0.5" stroke-width="3.43597" stroke-miterlimit="10"/>
<path d="M2227.79 2068.07C2705.48 1241.54 2811.41 300.066 2464.38 -34.7685C2117.35 -369.603 1448.78 28.9962 971.087 855.529C493.393 1682.06 387.467 2623.54 734.495 2958.37C1081.52 3293.2 1750.09 2894.6 2227.79 2068.07Z" stroke="url(#paint25_linear_219_13591)" stroke-opacity="0.5" stroke-width="3.43597" stroke-miterlimit="10"/>
<path d="M2983.55 1671.18C3036.2 1092.74 2460.19 529.809 1697 413.843C933.804 297.878 272.434 672.791 219.786 1251.24C167.138 1829.68 743.15 2392.61 1506.34 2508.58C2269.54 2624.54 2930.9 2249.63 2983.55 1671.18Z" stroke="url(#paint26_linear_219_13591)" stroke-opacity="0.5" stroke-width="3.43597" stroke-miterlimit="10"/>
<path d="M2115.89 3187.44C2525.1 2983.54 2626.12 2045.25 2341.52 1091.71C2056.92 138.16 1494.48 -469.551 1085.27 -265.654C676.061 -61.7571 575.046 876.537 859.645 1830.08C1144.24 2783.63 1706.69 3391.34 2115.89 3187.44Z" stroke="url(#paint27_linear_219_13591)" stroke-opacity="0.5" stroke-width="3.43597" stroke-miterlimit="10"/>
<path d="M2252.35 2028.02C2699.09 1168.04 2769.48 217.854 2409.56 -94.2794C2049.65 -406.413 1395.73 37.706 948.984 897.688C502.243 1757.67 431.856 2707.86 791.77 3019.99C1151.68 3332.13 1805.61 2888.01 2252.35 2028.02Z" stroke="url(#paint28_linear_219_13591)" stroke-opacity="0.5" stroke-width="3.43597" stroke-miterlimit="10"/>
<path d="M2994.98 1568.03C3021.34 985.743 2418.78 466.544 1649.13 408.369C879.468 350.194 234.163 775.072 207.799 1357.36C181.436 1939.65 783.997 2458.85 1553.66 2517.03C2323.31 2575.2 2968.62 2150.32 2994.98 1568.03Z" stroke="url(#paint29_linear_219_13591)" stroke-opacity="0.5" stroke-width="3.43597" stroke-miterlimit="10"/>
<path d="M2186.99 3150.86C2589.29 2918.24 2653.48 1973.43 2330.37 1040.57C2007.27 107.704 1419.21 -459.956 1016.92 -227.336C614.626 5.2837 550.433 950.095 873.54 1882.96C1196.65 2815.82 1784.7 3383.48 2186.99 3150.86Z" stroke="url(#paint30_linear_219_13591)" stroke-opacity="0.5" stroke-width="3.43597" stroke-miterlimit="10"/>
<path d="M2274.33 1983.3C2688.73 1092.07 2723.15 135.529 2351.2 -153.203C1979.25 -441.935 1341.79 46.4815 927.383 937.706C512.978 1828.93 478.561 2785.47 850.509 3074.21C1222.46 3362.94 1859.92 2874.52 2274.33 1983.3Z" stroke="url(#paint31_linear_219_13591)" stroke-opacity="0.5" stroke-width="3.43597" stroke-miterlimit="10"/>
<path d="M1600.83 2519.5C2374.55 2519.5 3001.77 2046.07 3001.77 1462.05C3001.77 878.042 2374.55 404.605 1600.83 404.605C827.117 404.605 199.897 878.042 199.897 1462.05C199.897 2046.07 827.117 2519.5 1600.83 2519.5Z" stroke="url(#paint32_linear_219_13591)" stroke-opacity="0.5" stroke-width="3.43597" stroke-miterlimit="10"/>
<defs>
<linearGradient id="paint0_linear_219_13591" x1="838.495" y1="1374.31" x2="2367.05" y2="1480.14" gradientUnits="userSpaceOnUse">
<stop stop-color="#63923F"/>
<stop offset="1" stop-color="#5E8E3E"/>
</linearGradient>
<linearGradient id="paint1_linear_219_13591" x1="1217.2" y1="580.417" x2="2322.74" y2="2098.59" gradientUnits="userSpaceOnUse">
<stop stop-color="#63923F"/>
<stop offset="1" stop-color="#5E8E3E"/>
</linearGradient>
<linearGradient id="paint2_linear_219_13591" x1="460.718" y1="483.105" x2="3060.42" y2="1822.05" gradientUnits="userSpaceOnUse">
<stop stop-color="#63923F"/>
<stop offset="1" stop-color="#5E8E3E"/>
</linearGradient>
<linearGradient id="paint3_linear_219_13591" x1="833.219" y1="1422.66" x2="2367.97" y2="1469.62" gradientUnits="userSpaceOnUse">
<stop stop-color="#63923F"/>
<stop offset="1" stop-color="#5E8E3E"/>
</linearGradient>
<linearGradient id="paint4_linear_219_13591" x1="1180.96" y1="607.287" x2="2357.9" y2="2038.24" gradientUnits="userSpaceOnUse">
<stop stop-color="#63923F"/>
<stop offset="1" stop-color="#5E8E3E"/>
</linearGradient>
<linearGradient id="paint5_linear_219_13591" x1="417.858" y1="569.66" x2="3053.58" y2="1762.23" gradientUnits="userSpaceOnUse">
<stop stop-color="#63923F"/>
<stop offset="1" stop-color="#5E8E3E"/>
</linearGradient>
<linearGradient id="paint6_linear_219_13591" x1="1584.59" y1="-382.707" x2="1633.69" y2="3306.09" gradientUnits="userSpaceOnUse">
<stop stop-color="#63923F"/>
<stop offset="1" stop-color="#5E8E3E"/>
</linearGradient>
<linearGradient id="paint7_linear_219_13591" x1="1145.96" y1="637.923" x2="2384.97" y2="1981.26" gradientUnits="userSpaceOnUse">
<stop stop-color="#63923F"/>
<stop offset="1" stop-color="#5E8E3E"/>
</linearGradient>
<linearGradient id="paint8_linear_219_13591" x1="377.748" y1="659.783" x2="3043.98" y2="1709.49" gradientUnits="userSpaceOnUse">
<stop stop-color="#63923F"/>
<stop offset="1" stop-color="#5E8E3E"/>
</linearGradient>
<linearGradient id="paint9_linear_219_13591" x1="1514.59" y1="-380.118" x2="1802.09" y2="3297.23" gradientUnits="userSpaceOnUse">
<stop stop-color="#63923F"/>
<stop offset="1" stop-color="#5E8E3E"/>
</linearGradient>
<linearGradient id="paint10_linear_219_13591" x1="1112.7" y1="669.936" x2="2405.58" y2="1926.25" gradientUnits="userSpaceOnUse">
<stop stop-color="#63923F"/>
<stop offset="1" stop-color="#5E8E3E"/>
</linearGradient>
<linearGradient id="paint11_linear_219_13591" x1="341.694" y1="751.699" x2="3033.93" y2="1661.88" gradientUnits="userSpaceOnUse">
<stop stop-color="#63923F"/>
<stop offset="1" stop-color="#5E8E3E"/>
</linearGradient>
<linearGradient id="paint12_linear_219_13591" x1="1443.06" y1="-373.559" x2="1966.91" y2="3269.84" gradientUnits="userSpaceOnUse">
<stop stop-color="#63923F"/>
<stop offset="1" stop-color="#5E8E3E"/>
</linearGradient>
<linearGradient id="paint13_linear_219_13591" x1="1081.44" y1="705.724" x2="2420.66" y2="1876.37" gradientUnits="userSpaceOnUse">
<stop stop-color="#63923F"/>
<stop offset="1" stop-color="#5E8E3E"/>
</linearGradient>
<linearGradient id="paint14_linear_219_13591" x1="308.549" y1="845.416" x2="3023.05" y2="1619.14" gradientUnits="userSpaceOnUse">
<stop stop-color="#63923F"/>
<stop offset="1" stop-color="#5E8E3E"/>
</linearGradient>
<linearGradient id="paint15_linear_219_13591" x1="1370.61" y1="-362.094" x2="2125.84" y2="3225.63" gradientUnits="userSpaceOnUse">
<stop stop-color="#63923F"/>
<stop offset="1" stop-color="#5E8E3E"/>
</linearGradient>
<linearGradient id="paint16_linear_219_13591" x1="1052.74" y1="739.391" x2="2431.94" y2="1826.02" gradientUnits="userSpaceOnUse">
<stop stop-color="#63923F"/>
<stop offset="1" stop-color="#5E8E3E"/>
</linearGradient>
<linearGradient id="paint17_linear_219_13591" x1="279.533" y1="945.378" x2="3013.19" y2="1585.77" gradientUnits="userSpaceOnUse">
<stop stop-color="#63923F"/>
<stop offset="1" stop-color="#5E8E3E"/>
</linearGradient>
<linearGradient id="paint18_linear_219_13591" x1="1299.68" y1="-346.839" x2="2279.05" y2="3164.67" gradientUnits="userSpaceOnUse">
<stop stop-color="#63923F"/>
<stop offset="1" stop-color="#5E8E3E"/>
</linearGradient>
<linearGradient id="paint19_linear_219_13591" x1="1023.12" y1="777.847" x2="2436.35" y2="1782.64" gradientUnits="userSpaceOnUse">
<stop stop-color="#63923F"/>
<stop offset="1" stop-color="#5E8E3E"/>
</linearGradient>
<linearGradient id="paint20_linear_219_13591" x1="254.057" y1="1045.66" x2="3004.48" y2="1555.01" gradientUnits="userSpaceOnUse">
<stop stop-color="#63923F"/>
<stop offset="1" stop-color="#5E8E3E"/>
</linearGradient>
<linearGradient id="paint21_linear_219_13591" x1="1227.69" y1="-323.196" x2="2420.74" y2="3093.47" gradientUnits="userSpaceOnUse">
<stop stop-color="#63923F"/>
<stop offset="1" stop-color="#5E8E3E"/>
</linearGradient>
<linearGradient id="paint22_linear_219_13591" x1="996.423" y1="816.183" x2="2438.79" y2="1741.4" gradientUnits="userSpaceOnUse">
<stop stop-color="#63923F"/>
<stop offset="1" stop-color="#5E8E3E"/>
</linearGradient>
<linearGradient id="paint23_linear_219_13591" x1="235.4" y1="1147.29" x2="3000.96" y2="1527.72" gradientUnits="userSpaceOnUse">
<stop stop-color="#63923F"/>
<stop offset="1" stop-color="#5E8E3E"/>
</linearGradient>
<linearGradient id="paint24_linear_219_13591" x1="1157.5" y1="-296.8" x2="2552.65" y2="3007.88" gradientUnits="userSpaceOnUse">
<stop stop-color="#63923F"/>
<stop offset="1" stop-color="#5E8E3E"/>
</linearGradient>
<linearGradient id="paint25_linear_219_13591" x1="971.087" y1="855.529" x2="2438.44" y2="1703.59" gradientUnits="userSpaceOnUse">
<stop stop-color="#63923F"/>
<stop offset="1" stop-color="#5E8E3E"/>
</linearGradient>
<linearGradient id="paint26_linear_219_13591" x1="219.786" y1="1251.24" x2="2998.75" y2="1504.17" gradientUnits="userSpaceOnUse">
<stop stop-color="#63923F"/>
<stop offset="1" stop-color="#5E8E3E"/>
</linearGradient>
<linearGradient id="paint27_linear_219_13591" x1="1085.27" y1="-265.654" x2="2668.62" y2="2912.03" gradientUnits="userSpaceOnUse">
<stop stop-color="#63923F"/>
<stop offset="1" stop-color="#5E8E3E"/>
</linearGradient>
<linearGradient id="paint28_linear_219_13591" x1="948.984" y1="897.688" x2="2437.77" y2="1671.08" gradientUnits="userSpaceOnUse">
<stop stop-color="#63923F"/>
<stop offset="1" stop-color="#5E8E3E"/>
</linearGradient>
<linearGradient id="paint29_linear_219_13591" x1="207.799" y1="1357.36" x2="2998.8" y2="1483.73" gradientUnits="userSpaceOnUse">
<stop stop-color="#63923F"/>
<stop offset="1" stop-color="#5E8E3E"/>
</linearGradient>
<linearGradient id="paint30_linear_219_13591" x1="1016.92" y1="-227.336" x2="2774.03" y2="2811.41" gradientUnits="userSpaceOnUse">
<stop stop-color="#63923F"/>
<stop offset="1" stop-color="#5E8E3E"/>
</linearGradient>
<linearGradient id="paint31_linear_219_13591" x1="927.383" y1="937.706" x2="2434.63" y2="1638.55" gradientUnits="userSpaceOnUse">
<stop stop-color="#63923F"/>
<stop offset="1" stop-color="#5E8E3E"/>
</linearGradient>
<linearGradient id="paint32_linear_219_13591" x1="1600.83" y1="404.605" x2="1600.83" y2="2519.5" gradientUnits="userSpaceOnUse">
<stop stop-color="#63923F"/>
<stop offset="1" stop-color="#5E8E3E"/>
</linearGradient>
</defs>
</svg>
