<svg width="387" height="379" viewBox="0 0 387 379" fill="none" xmlns="http://www.w3.org/2000/svg">
<path d="M328.5 126.6H291.2V32L200.3 116.7V32H185.2V116.7L94.3 32V126.6H57V262.9H94.2V347.9L185.2 266.9V347.9H200.3V266.9L291.3 347.9V262.9H328.5V126.6ZM276 66.8V126.6H211.9L276 66.8ZM109.4 66.8L173.5 126.6H109.4V66.8ZM72.1 247.8V141.8H173.3L94.2 214.5V247.8H72.1ZM109.3 221.1L185.2 151.4V246.7L109.3 314.2V221.1ZM276.1 314.2L200.2 246.7V151.4L276.1 221.1V314.2ZM313.3 247.8H291.3V214.5L212.2 141.8H313.4V247.8H313.3Z" fill="#FCFCF9"/>
</svg>
